<?xml version="1.0" encoding="UTF-8" standalone="no"?>
<!-- Created with Inkscape (http://www.inkscape.org/) -->

<svg
   xmlns:dc="http://purl.org/dc/elements/1.1/"
   xmlns:cc="http://creativecommons.org/ns#"
   xmlns:rdf="http://www.w3.org/1999/02/22-rdf-syntax-ns#"
   xmlns:svg="http://www.w3.org/2000/svg"
   xmlns="http://www.w3.org/2000/svg"
   xmlns:sodipodi="http://sodipodi.sourceforge.net/DTD/sodipodi-0.dtd"
   xmlns:inkscape="http://www.inkscape.org/namespaces/inkscape"
   width="203.92876mm"
   height="114.22482mm"
   viewBox="0 0 203.92876 114.22481"
   id="svg2"
   version="1.1"
   inkscape:version="0.91+devel+osxmenu r12922"
   sodipodi:docname="compose-block-diagram.svg">
  <defs
     id="defs4">
    <marker
       inkscape:stockid="Arrow1Lend"
       orient="auto"
       refY="0"
       refX="0"
       id="marker7650"
       style="overflow:visible"
       inkscape:isstock="true">
      <path
         id="path7652"
         d="M 0,0 5,-5 -12.5,0 5,5 0,0 Z"
         style="fill:#000000;fill-opacity:1;fill-rule:evenodd;stroke:#000000;stroke-width:1.00000003pt;stroke-opacity:1"
         transform="matrix(-0.8,0,0,-0.8,-10,0)"
         inkscape:connector-curvature="0" />
    </marker>
    <marker
       inkscape:stockid="Arrow1Lstart"
       orient="auto"
       refY="0"
       refX="0"
       id="marker7568"
       style="overflow:visible"
       inkscape:isstock="true">
      <path
         id="path7570"
         d="M 0,0 5,-5 -12.5,0 5,5 0,0 Z"
         style="fill:#000000;fill-opacity:1;fill-rule:evenodd;stroke:#000000;stroke-width:1.00000003pt;stroke-opacity:1"
         transform="matrix(0.8,0,0,0.8,10,0)"
         inkscape:connector-curvature="0" />
    </marker>
    <marker
       inkscape:isstock="true"
       style="overflow:visible"
       id="marker7478"
       refX="0"
       refY="0"
       orient="auto"
       inkscape:stockid="Arrow1Lend"
       inkscape:collect="always">
      <path
         transform="matrix(-0.8,0,0,-0.8,-10,0)"
         style="fill:#000000;fill-opacity:1;fill-rule:evenodd;stroke:#000000;stroke-width:1.00000003pt;stroke-opacity:1"
         d="M 0,0 5,-5 -12.5,0 5,5 0,0 Z"
         id="path7480"
         inkscape:connector-curvature="0" />
    </marker>
    <marker
       inkscape:isstock="true"
       style="overflow:visible"
       id="marker7408"
       refX="0"
       refY="0"
       orient="auto"
       inkscape:stockid="Arrow1Lstart"
       inkscape:collect="always">
      <path
         transform="matrix(0.8,0,0,0.8,10,0)"
         style="fill:#000000;fill-opacity:1;fill-rule:evenodd;stroke:#000000;stroke-width:1.00000003pt;stroke-opacity:1"
         d="M 0,0 5,-5 -12.5,0 5,5 0,0 Z"
         id="path7410"
         inkscape:connector-curvature="0" />
    </marker>
    <marker
       inkscape:stockid="Arrow1Lstart"
       orient="auto"
       refY="0"
       refX="0"
       id="marker6552"
       style="overflow:visible"
       inkscape:isstock="true"
       inkscape:collect="always">
      <path
         id="path6554"
         d="M 0,0 5,-5 -12.5,0 5,5 0,0 Z"
         style="fill:#000000;fill-opacity:1;fill-rule:evenodd;stroke:#000000;stroke-width:1.00000003pt;stroke-opacity:1"
         transform="matrix(0.8,0,0,0.8,10,0)"
         inkscape:connector-curvature="0" />
    </marker>
    <marker
       inkscape:stockid="Arrow1Lend"
       orient="auto"
       refY="0"
       refX="0"
       id="marker6482"
       style="overflow:visible"
       inkscape:isstock="true"
       inkscape:collect="always">
      <path
         id="path6484"
         d="M 0,0 5,-5 -12.5,0 5,5 0,0 Z"
         style="fill:#000000;fill-opacity:1;fill-rule:evenodd;stroke:#000000;stroke-width:1.00000003pt;stroke-opacity:1"
         transform="matrix(-0.8,0,0,-0.8,-10,0)"
         inkscape:connector-curvature="0" />
    </marker>
    <marker
       inkscape:stockid="Arrow1Lend"
       orient="auto"
       refY="0"
       refX="0"
       id="marker6418"
       style="overflow:visible"
       inkscape:isstock="true">
      <path
         id="path6420"
         d="M 0,0 5,-5 -12.5,0 5,5 0,0 Z"
         style="fill:#000000;fill-opacity:1;fill-rule:evenodd;stroke:#000000;stroke-width:1.00000003pt;stroke-opacity:1"
         transform="matrix(-0.8,0,0,-0.8,-10,0)"
         inkscape:connector-curvature="0" />
    </marker>
    <marker
       inkscape:isstock="true"
       style="overflow:visible"
       id="marker5979"
       refX="0"
       refY="0"
       orient="auto"
       inkscape:stockid="Arrow1Lend"
       inkscape:collect="always">
      <path
         transform="matrix(-0.8,0,0,-0.8,-10,0)"
         style="fill:#000000;fill-opacity:1;fill-rule:evenodd;stroke:#000000;stroke-width:1.00000003pt;stroke-opacity:1"
         d="M 0,0 5,-5 -12.5,0 5,5 0,0 Z"
         id="path5981"
         inkscape:connector-curvature="0" />
    </marker>
    <marker
       inkscape:isstock="true"
       style="overflow:visible"
       id="marker5939"
       refX="0"
       refY="0"
       orient="auto"
       inkscape:stockid="Arrow1Lstart"
       inkscape:collect="always">
      <path
         transform="matrix(0.8,0,0,0.8,10,0)"
         style="fill:#000000;fill-opacity:1;fill-rule:evenodd;stroke:#000000;stroke-width:1.00000003pt;stroke-opacity:1"
         d="M 0,0 5,-5 -12.5,0 5,5 0,0 Z"
         id="path5941"
         inkscape:connector-curvature="0" />
    </marker>
    <marker
       inkscape:isstock="true"
       style="overflow:visible"
       id="marker5639"
       refX="0"
       refY="0"
       orient="auto"
       inkscape:stockid="Arrow1Lend">
      <path
         transform="matrix(-0.8,0,0,-0.8,-10,0)"
         style="fill:#000000;fill-opacity:1;fill-rule:evenodd;stroke:#000000;stroke-width:1.00000003pt;stroke-opacity:1"
         d="M 0,0 5,-5 -12.5,0 5,5 0,0 Z"
         id="path5641"
         inkscape:connector-curvature="0" />
    </marker>
    <marker
       inkscape:isstock="true"
       style="overflow:visible"
       id="marker5611"
       refX="0"
       refY="0"
       orient="auto"
       inkscape:stockid="Arrow1Lstart">
      <path
         transform="matrix(0.8,0,0,0.8,10,0)"
         style="fill:#000000;fill-opacity:1;fill-rule:evenodd;stroke:#000000;stroke-width:1.00000003pt;stroke-opacity:1"
         d="M 0,0 5,-5 -12.5,0 5,5 0,0 Z"
         id="path5613"
         inkscape:connector-curvature="0" />
    </marker>
    <marker
       inkscape:stockid="Arrow1Lend"
       orient="auto"
       refY="0"
       refX="0"
       id="Arrow1Lend"
       style="overflow:visible"
       inkscape:isstock="true"
       inkscape:collect="always">
      <path
         id="path4335"
         d="M 0,0 5,-5 -12.5,0 5,5 0,0 Z"
         style="fill:#000000;fill-opacity:1;fill-rule:evenodd;stroke:#000000;stroke-width:1.00000003pt;stroke-opacity:1"
         transform="matrix(-0.8,0,0,-0.8,-10,0)"
         inkscape:connector-curvature="0" />
    </marker>
    <marker
       inkscape:stockid="Arrow1Lstart"
       orient="auto"
       refY="0"
       refX="0"
       id="Arrow1Lstart"
       style="overflow:visible"
       inkscape:isstock="true"
       inkscape:collect="always">
      <path
         id="path4332"
         d="M 0,0 5,-5 -12.5,0 5,5 0,0 Z"
         style="fill:#000000;fill-opacity:1;fill-rule:evenodd;stroke:#000000;stroke-width:1.00000003pt;stroke-opacity:1"
         transform="matrix(0.8,0,0,0.8,10,0)"
         inkscape:connector-curvature="0" />
    </marker>
  </defs>
  <sodipodi:namedview
     id="base"
     pagecolor="#ffffff"
     bordercolor="#666666"
     borderopacity="1.0"
     inkscape:pageopacity="0.0"
     inkscape:pageshadow="2"
     inkscape:zoom="0.7"
     inkscape:cx="686.82239"
     inkscape:cy="290.44598"
     inkscape:document-units="mm"
     inkscape:current-layer="layer1"
     showgrid="false"
     fit-margin-top="0"
     fit-margin-left="0"
     fit-margin-right="0"
     fit-margin-bottom="0"
     inkscape:window-width="1680"
     inkscape:window-height="954"
     inkscape:window-x="0"
     inkscape:window-y="23"
     inkscape:window-maximized="0" />
  <metadata
     id="metadata7">
    <rdf:RDF>
      <cc:Work
         rdf:about="">
        <dc:format>image/svg+xml</dc:format>
        <dc:type
           rdf:resource="http://purl.org/dc/dcmitype/StillImage" />
        <dc:title></dc:title>
      </cc:Work>
    </rdf:RDF>
  </metadata>
  <g
     inkscape:label="Layer 1"
     inkscape:groupmode="layer"
     id="layer1"
     transform="translate(-4.1146338,-36.441899)">
    <rect
       style="opacity:1;fill:#f5f5f5;fill-opacity:1;fill-rule:nonzero;stroke:#7c7c7c;stroke-width:0.26499996;stroke-linecap:butt;stroke-linejoin:miter;stroke-miterlimit:4;stroke-dasharray:none;stroke-dashoffset:0;stroke-opacity:1"
       id="rect4161"
       width="203.66376"
       height="75.395897"
       x="4.2471337"
       y="71.348221"
       rx="2.0080049"
       ry="1.740741" />
    <g
       id="g4229"
       transform="translate(-4.8569961,5.2916667)">
      <rect
         ry="1.7407413"
         rx="2.0080049"
         y="31.282732"
         x="87.879463"
         height="14.363094"
         width="46.113091"
         id="rect4141"
         style="opacity:1;fill:#dcdcdc;fill-opacity:1;fill-rule:nonzero;stroke:#7c7c7c;stroke-width:0.26499999;stroke-linecap:butt;stroke-linejoin:miter;stroke-miterlimit:4;stroke-dasharray:none;stroke-dashoffset:0;stroke-opacity:1" />
      <flowRoot
         transform="translate(42.333335,-17.4625)"
         style="font-style:normal;font-weight:normal;font-size:6.3499999px;line-height:125%;font-family:sans-serif;letter-spacing:-0.51593751px;word-spacing:0px;fill:#000000;fill-opacity:1;stroke:none;stroke-width:0.26458332px;stroke-linecap:butt;stroke-linejoin:miter;stroke-opacity:1"
         id="flowRoot4143"
         xml:space="preserve"><flowRegion
           style="font-size:6.3499999px;stroke-width:0.26458332px"
           id="flowRegion4145"><rect
             style="font-size:6.3499999px;stroke-width:0.26458332px"
             y="51.088684"
             x="42.711311"
             height="10.016365"
             width="51.782738"
             id="rect4147" /></flowRegion><flowPara
           style="font-size:7.05555582px;text-align:center;letter-spacing:0px;text-anchor:middle;stroke-width:0.26458332px"
           id="flowPara4149">Browser</flowPara></flowRoot>    </g>
    <g
       id="g4248"
       transform="translate(-4.8569889)">
      <rect
         style="opacity:1;fill:#dcdcdc;fill-opacity:1;fill-rule:nonzero;stroke:#7c7c7c;stroke-width:0.26499999;stroke-linecap:butt;stroke-linejoin:miter;stroke-miterlimit:4;stroke-dasharray:none;stroke-dashoffset:0;stroke-opacity:1"
         id="rect4151"
         width="46.971882"
         height="18.142857"
         x="87.450066"
         y="87.601181"
         rx="2.0080049"
         ry="1.7407413" />
      <flowRoot
         xml:space="preserve"
         id="flowRoot4153"
         style="font-style:normal;font-weight:normal;font-size:6.3499999px;line-height:125%;font-family:sans-serif;letter-spacing:-0.51593751px;word-spacing:0px;fill:#000000;fill-opacity:1;stroke:none;stroke-width:0.26458332px;stroke-linecap:butt;stroke-linejoin:miter;stroke-opacity:1"
         transform="translate(42.333335,40.745835)"><flowRegion
           id="flowRegion4155"
           style="font-size:6.3499999px;stroke-width:0.26458332px"><rect
             id="rect4157"
             width="51.782738"
             height="10.016365"
             x="42.711311"
             y="51.088684"
             style="font-size:6.3499999px;stroke-width:0.26458332px" /></flowRegion><flowPara
           id="flowPara4159"
           style="font-size:7.05555582px;text-align:center;letter-spacing:0px;text-anchor:middle;stroke-width:0.26458332px">Core</flowPara></flowRoot>    </g>
    <g
       transform="matrix(0.44544898,0,0,0.44544898,-19.643187,22.047158)"
       id="layer1-0"
       inkscape:label="Layer 1"
       style="stroke-width:2.24492598">
      <g
         id="text4141"
         aria-label="\ compose\"
         style="font-style:normal;font-weight:normal;font-size:16.93333244px;line-height:125%;font-family:sans-serif;letter-spacing:-0.51593751px;word-spacing:0px;fill:#ffffff;fill-opacity:1;stroke:none;stroke-width:0.44898522;stroke-linecap:butt;stroke-linejoin:miter;stroke-miterlimit:4;stroke-dasharray:none;stroke-opacity:1">
        <path
           inkscape:connector-curvature="0"
           id="path4864"
           style="letter-spacing:-1.8706038px;fill:#000000;fill-opacity:1;stroke:none;stroke-width:0.44898522;stroke-miterlimit:4;stroke-dasharray:none;stroke-opacity:1"
           d="m 64.219336,119.3004 4.721159,12.14603 -1.289844,0 -4.721159,-12.14603 1.289844,0 z" />
        <path
           inkscape:connector-curvature="0"
           id="path4866"
           style="fill:#000000;fill-opacity:1;stroke:none;stroke-width:0.44898522;stroke-miterlimit:4;stroke-dasharray:none;stroke-opacity:1"
           d="m 73.657685,122.33484 q 1.496549,0 2.430859,0.7276 0.942578,0.72761 1.132747,2.50528 l -1.44694,0 q -0.132291,-0.81856 -0.60358,-1.35599 -0.471289,-0.54571 -1.513086,-0.54571 -1.422135,0 -2.033984,1.38907 -0.396875,0.90123 -0.396875,2.22415 0,1.33118 0.562239,2.24069 0.56224,0.9095 1.769401,0.9095 0.926042,0 1.463477,-0.56224 0.545703,-0.5705 0.752408,-1.55442 l 1.44694,0 q -0.248046,1.76113 -1.240234,2.57969 -0.992187,0.81028 -2.538346,0.81028 -1.736328,0 -2.769857,-1.26504 -1.033528,-1.2733 -1.033528,-3.175 0,-2.33164 1.132747,-3.62975 1.132747,-1.29811 2.885612,-1.29811 z m -0.231511,0.0413 0,0 z" />
        <path
           sodipodi:nodetypes="cssscsssccssssscsccc"
           inkscape:connector-curvature="0"
           id="path4868"
           style="fill:#000000;fill-opacity:1;stroke:none;stroke-width:0.44898522;stroke-miterlimit:4;stroke-dasharray:none;stroke-opacity:1"
           d="m 82.315183,122.36584 c 0.904462,0.10468 1.685873,0.47469 2.344233,1.11003 0.788241,0.76068 1.182357,1.87965 1.182357,3.3569 0,1.42765 -0.347266,2.60726 -1.041797,3.53881 -0.694531,0.93155 -1.772157,1.39733 -3.232877,1.39733 -1.218186,0 -2.185569,-0.41066 -2.902149,-1.23197 -0.716579,-0.82682 -1.074869,-1.93476 -1.074869,-3.32383 0,-1.48828 0.377579,-2.6734 1.132747,-3.55534 0.630757,-0.73665 1.442257,-1.16565 2.434499,-1.28701 l -8.76e-4,1.31324 c -0.622573,0.11974 -1.094792,0.44998 -1.416657,0.99071 -0.413408,0.69453 -0.620117,1.53237 -0.620117,2.51354 0,0.94258 0.206706,1.72806 0.620117,2.35644 0.413411,0.62839 1.069358,0.94258 1.967839,0.94258 l 0,4e-5 c 0.986675,0 1.661913,-0.37207 2.025716,-1.11621 0.369314,-0.74965 0.553971,-1.58199 0.553971,-2.497 0,-0.82683 -0.132292,-1.49931 -0.396875,-2.01745 -0.332439,-0.64738 -0.855793,-1.0379 -1.570062,-1.17155 z" />
        <path
           inkscape:connector-curvature="0"
           id="path4870"
           style="fill:#000000;fill-opacity:1;stroke:none;stroke-width:0.44898522;stroke-miterlimit:4;stroke-dasharray:none;stroke-opacity:1"
           d="m 87.103478,122.59115 1.471745,0 0,1.25677 q 0.529166,-0.65319 0.959114,-0.95084 0.735872,-0.50436 1.670182,-0.50436 1.058334,0 1.703255,0.52089 0.363802,0.29766 0.661459,0.87644 0.496093,-0.71107 1.16582,-1.05007 0.669726,-0.34726 1.504818,-0.34726 1.785937,0 2.430859,1.28984 0.347265,0.69453 0.347265,1.86862 l 0,5.89525 -1.546158,0 0,-6.15157 q 0,-0.8847 -0.446485,-1.21543 -0.438216,-0.33072 -1.074869,-0.33072 -0.876433,0 -1.513086,0.58704 -0.628386,0.58704 -0.628386,1.95957 l 0,5.15111 -1.513086,0 0,-5.7795 q 0,-0.90123 -0.214974,-1.31464 -0.338997,-0.62012 -1.265038,-0.62012 -0.84336,0 -1.537891,0.65319 -0.686263,0.65319 -0.686263,2.36471 l 0,4.69636 -1.488281,0 0,-8.85528 z" />
        <path
           inkscape:connector-curvature="0"
           id="path4872"
           style="fill:#000000;fill-opacity:1;stroke:none;stroke-width:0.44898522;stroke-miterlimit:4;stroke-dasharray:none;stroke-opacity:1"
           d="m 104.44691,130.44597 q 1.0418,0 1.72806,-0.86816 0.69453,-0.87644 0.69453,-2.61276 0,-1.05834 -0.30592,-1.81901 -0.57878,-1.46348 -2.11667,-1.46348 -1.54616,0 -2.11666,1.54616 -0.30593,0.82682 -0.30593,2.10013 0,1.02526 0.30593,1.74459 0.57877,1.37253 2.11666,1.37253 z m -3.85299,-7.81348 1.44694,0 0,1.17409 q 0.44648,-0.60358 0.97565,-0.93431 0.75241,-0.49609 1.7694,-0.49609 1.50482,0 2.55488,1.15755 1.05007,1.14929 1.05007,3.29076 0,2.89388 -1.51309,4.13411 -0.95911,0.78548 -2.23242,0.78548 -1.00046,0 -1.67845,-0.43821 -0.39688,-0.24805 -0.8847,-0.85163 l 0,4.52272 -1.48828,0 0,-12.34447 z" />
        <path
           inkscape:connector-curvature="0"
           id="path4876"
           style="fill:#000000;fill-opacity:1;stroke:none;stroke-width:0.44898522;stroke-miterlimit:4;stroke-dasharray:none;stroke-opacity:1"
           d="m 119.41406,128.6683 q 0.0661,0.74414 0.37207,1.14102 0.56224,0.71933 1.9513,0.71933 0.82683,0 1.45521,-0.35553 0.62839,-0.3638 0.62839,-1.11621 0,-0.57051 -0.50437,-0.86817 -0.32246,-0.1819 -1.2733,-0.42168 l -1.18236,-0.29765 q -1.13275,-0.28112 -1.67018,-0.62839 -0.95912,-0.60358 -0.95912,-1.67018 0,-1.25677 0.90124,-2.03398 0.90951,-0.77722 2.43913,-0.77722 2.00091,0 2.88561,1.17409 0.55397,0.74414 0.53744,1.60404 l -1.4056,0 q -0.0413,-0.50436 -0.35554,-0.91778 -0.51263,-0.58704 -1.77767,-0.58704 -0.84336,0 -1.28157,0.32246 -0.42995,0.32246 -0.42995,0.85163 0,0.57877 0.57051,0.92604 0.33073,0.20671 0.97565,0.3638 l 0.98392,0.23978 q 1.60403,0.38861 2.14974,0.75241 0.86816,0.57051 0.86816,1.79421 0,1.18235 -0.90124,2.04225 -0.89296,0.85989 -2.72851,0.85989 -1.97611,0 -2.80293,-0.89296 -0.81856,-0.90124 -0.87643,-2.22416 l 1.4304,0 z m 2.19935,-6.29212 0,0 z" />
        <path
           inkscape:connector-curvature="0"
           id="path4878"
           style="fill:#000000;fill-opacity:1;stroke:none;stroke-width:0.44898522;stroke-miterlimit:4;stroke-dasharray:none;stroke-opacity:1"
           d="m 130.16772,122.39272 q 0.94258,0 1.82728,0.44648 0.8847,0.43822 1.34772,1.14102 0.44648,0.66972 0.59531,1.56269 0.13229,0.61185 0.13229,1.9513 l -6.49056,0 q 0.0414,1.34772 0.63666,2.16628 0.59531,0.81029 1.84381,0.81029 1.16582,0 1.86035,-0.76895 0.39688,-0.44648 0.56224,-1.03353 l 1.46348,0 q -0.0579,0.48783 -0.38861,1.09141 -0.32246,0.59531 -0.7276,0.97565 -0.678,0.66146 -1.67845,0.89297 -0.53744,0.13229 -1.21543,0.13229 -1.65365,0 -2.80293,-1.19889 -1.14928,-1.20717 -1.14928,-3.37344 0,-2.1332 1.15755,-3.46439 1.15755,-1.33118 3.02617,-1.33118 z m 2.37298,3.91914 q -0.0909,-0.96739 -0.42168,-1.54616 -0.61185,-1.07487 -2.04225,-1.07487 -1.02526,0 -1.71979,0.74414 -0.69453,0.73587 -0.73587,1.87689 l 4.91959,0 z m -2.51354,-3.93568 0,0 z" />
        <path
           inkscape:connector-curvature="0"
           id="path4880"
           style="fill:#000000;fill-opacity:1;stroke:none;stroke-width:0.44898522;stroke-miterlimit:4;stroke-dasharray:none;stroke-opacity:1"
           d="m 135.01786,119.3004 4.72116,12.14603 -1.28985,0 -4.72115,-12.14603 1.28984,0 z" />
        <path
           d="m 113.74106,131.76891 c 0.90446,-0.10468 1.68587,-0.47469 2.34424,-1.11003 0.78824,-0.76068 1.18235,-1.87965 1.18235,-3.3569 0,-1.42765 -0.34726,-2.60726 -1.04179,-3.53881 -0.69454,-0.93155 -1.77216,-1.39733 -3.23288,-1.39733 -1.21819,0 -2.18557,0.41066 -2.90216,1.23197 -0.71657,0.82682 -1.07486,1.93476 -1.07486,3.32383 0,1.48828 0.37757,2.6734 1.13274,3.55534 0.63076,0.73665 1.44226,1.16565 2.4345,1.28701 l -8.7e-4,-1.31324 c -0.62257,-0.11974 -1.09479,-0.44998 -1.41666,-0.99071 -0.41341,-0.69453 -0.62012,-1.53237 -0.62012,-2.51354 0,-0.94258 0.20671,-1.72806 0.62012,-2.35644 0.41341,-0.62839 1.06936,-0.94258 1.96784,-0.94258 l 0,-4e-5 c 0.98668,0 1.66191,0.37207 2.02572,1.11621 0.36931,0.74965 0.55397,1.58199 0.55397,2.497 0,0.82683 -0.13229,1.49931 -0.39688,2.01745 -0.33244,0.64738 -0.85579,1.0379 -1.57006,1.17155 z"
           style="font-style:normal;font-weight:normal;font-size:16.93333244px;line-height:125%;font-family:sans-serif;letter-spacing:-0.51593751px;word-spacing:0px;fill:#000000;fill-opacity:1;stroke:none;stroke-width:0.44898522;stroke-linecap:butt;stroke-linejoin:miter;stroke-miterlimit:4;stroke-dasharray:none;stroke-opacity:1"
           id="path4895"
           inkscape:connector-curvature="0"
           sodipodi:nodetypes="cssscsssccssssscsccc" />
      </g>
    </g>
    <rect
       ry="1.7407413"
       rx="2.0080049"
       y="89.491066"
       x="146.65477"
       height="14.363094"
       width="44.97916"
       id="rect4238"
       style="opacity:1;fill:#dcdcdc;fill-opacity:1;fill-rule:nonzero;stroke:#7c7c7c;stroke-width:0.26499999;stroke-linecap:butt;stroke-linejoin:miter;stroke-miterlimit:4;stroke-dasharray:none;stroke-dashoffset:0;stroke-opacity:1" />
    <flowRoot
       transform="translate(100.54167,41.275003)"
       style="font-style:normal;font-weight:normal;font-size:6.3499999px;line-height:125%;font-family:sans-serif;letter-spacing:-0.51593751px;word-spacing:0px;fill:#000000;fill-opacity:1;stroke:none;stroke-width:0.26458332px;stroke-linecap:butt;stroke-linejoin:miter;stroke-opacity:1"
       id="flowRoot4240"
       xml:space="preserve"><flowRegion
         style="font-size:6.3499999px;stroke-width:0.26458332px"
         id="flowRegion4242"><rect
           style="font-size:6.3499999px;stroke-width:0.26458332px"
           y="51.088684"
           x="42.711311"
           height="10.016365"
           width="51.782738"
           id="rect4244" /></flowRegion><flowPara
         style="font-size:6.3499999px;text-align:center;letter-spacing:0px;text-anchor:middle;stroke-width:0.26458332px"
         id="flowPara4246">RESTful API</flowPara></flowRoot>    <rect
       ry="1.7407411"
       rx="2.0080049"
       y="113.68153"
       x="21.412348"
       height="36.85268"
       width="169.33334"
       id="rect4267"
       style="opacity:1;fill:#f5f5f5;fill-opacity:1;fill-rule:nonzero;stroke:#7c7c7c;stroke-width:0.26499999;stroke-linecap:butt;stroke-linejoin:miter;stroke-miterlimit:4;stroke-dasharray:none;stroke-dashoffset:0;stroke-opacity:1" />
    <g
       id="g4294"
       transform="translate(-4.2333333,3.7041668)">
      <rect
         ry="1.7407413"
         rx="2.0080049"
         y="128.6494"
         x="33.110706"
         height="14.363094"
         width="38.175591"
         id="rect4271"
         style="opacity:1;fill:#dcdcdc;fill-opacity:1;fill-rule:nonzero;stroke:#7c7c7c;stroke-width:0.26499999;stroke-linecap:butt;stroke-linejoin:miter;stroke-miterlimit:4;stroke-dasharray:none;stroke-dashoffset:0;stroke-opacity:1" />
      <flowRoot
         transform="translate(-15.875006,80.433333)"
         style="font-style:normal;font-weight:normal;font-size:6.3499999px;line-height:125%;font-family:sans-serif;letter-spacing:-0.51593751px;word-spacing:0px;fill:#000000;fill-opacity:1;stroke:none;stroke-width:0.26458332px;stroke-linecap:butt;stroke-linejoin:miter;stroke-opacity:1"
         id="flowRoot4273"
         xml:space="preserve"><flowRegion
           style="font-size:6.3499999px;stroke-width:0.26458332px"
           id="flowRegion4275"><rect
             style="font-size:6.3499999px;stroke-width:0.26458332px"
             y="51.088684"
             x="42.711311"
             height="10.016365"
             width="51.782738"
             id="rect4277" /></flowRegion><flowPara
           style="font-size:6.3499999px;text-align:center;letter-spacing:0px;text-anchor:middle;stroke-width:0.26458332px"
           id="flowPara4279">Package 1</flowPara></flowRoot>    </g>
    <flowRoot
       transform="translate(-17.462513,64.029165)"
       style="font-style:normal;font-weight:normal;font-size:6.3499999px;line-height:125%;font-family:sans-serif;text-align:start;letter-spacing:-0.51593751px;word-spacing:0px;text-anchor:start;fill:#000000;fill-opacity:1;stroke:none;stroke-width:0.26458332px;stroke-linecap:butt;stroke-linejoin:miter;stroke-opacity:1"
       id="flowRoot4286"
       xml:space="preserve"><flowRegion
         style="font-size:6.3499999px;text-align:start;text-anchor:start;stroke-width:0.26458332px"
         id="flowRegion4288"><rect
           style="font-size:6.3499999px;text-align:start;text-anchor:start;stroke-width:0.26458332px"
           y="51.088684"
           x="42.711311"
           height="10.016365"
           width="51.782738"
           id="rect4290" /></flowRegion><flowPara
         style="font-size:6.3499999px;text-align:start;letter-spacing:0px;text-anchor:start;stroke-width:0.26458332px"
         id="flowPara4292">Packages</flowPara></flowRoot>    <g
       transform="translate(43.391669,3.7041668)"
       id="g4301">
      <rect
         style="opacity:1;fill:#dcdcdc;fill-opacity:1;fill-rule:nonzero;stroke:#7c7c7c;stroke-width:0.26499999;stroke-linecap:butt;stroke-linejoin:miter;stroke-miterlimit:4;stroke-dasharray:none;stroke-dashoffset:0;stroke-opacity:1"
         id="rect4303"
         width="38.175591"
         height="14.363094"
         x="33.110706"
         y="128.6494"
         rx="2.0080049"
         ry="1.7407413" />
      <flowRoot
         xml:space="preserve"
         id="flowRoot4305"
         style="font-style:normal;font-weight:normal;font-size:6.3499999px;line-height:125%;font-family:sans-serif;letter-spacing:-0.51593751px;word-spacing:0px;fill:#000000;fill-opacity:1;stroke:none;stroke-width:0.26458332px;stroke-linecap:butt;stroke-linejoin:miter;stroke-opacity:1"
         transform="translate(-15.875006,80.433333)"><flowRegion
           id="flowRegion4307"
           style="font-size:6.3499999px;stroke-width:0.26458332px"><rect
             id="rect4309"
             width="51.782738"
             height="10.016365"
             x="42.711311"
             y="51.088684"
             style="font-size:6.3499999px;stroke-width:0.26458332px" /></flowRegion><flowPara
           id="flowPara4311"
           style="font-size:6.3499999px;text-align:center;letter-spacing:0px;text-anchor:middle;stroke-width:0.26458332px">Package 2</flowPara></flowRoot>    </g>
    <g
       id="g6405">
      <rect
         ry="1.7407413"
         rx="2.0080049"
         y="111.74881"
         x="104.61932"
         height="4.1593819"
         width="2.6058781"
         id="rect6399"
         style="opacity:1;fill:#f5f5f5;fill-opacity:1;fill-rule:nonzero;stroke:none;stroke-width:0.44999996;stroke-linecap:butt;stroke-linejoin:miter;stroke-miterlimit:4;stroke-dasharray:2.69999982, 2.69999982;stroke-dashoffset:0;stroke-opacity:1" />
      <rect
         style="opacity:1;fill:#f5f5f5;fill-opacity:1;fill-rule:nonzero;stroke:none;stroke-width:0.44999996;stroke-linecap:butt;stroke-linejoin:miter;stroke-miterlimit:4;stroke-dasharray:2.69999982, 2.69999982;stroke-dashoffset:0;stroke-opacity:1"
         id="rect6401"
         width="2.6058781"
         height="4.1593819"
         x="111.71564"
         y="111.74881"
         rx="2.0080049"
         ry="1.7407413" />
      <rect
         style="opacity:1;fill:#f5f5f5;fill-opacity:1;fill-rule:nonzero;stroke:none;stroke-width:0.44999996;stroke-linecap:butt;stroke-linejoin:miter;stroke-miterlimit:4;stroke-dasharray:2.69999982, 2.69999982;stroke-dashoffset:0;stroke-opacity:1"
         id="rect6403"
         width="2.6058781"
         height="4.1593819"
         x="97.160881"
         y="111.74881"
         rx="2.0080049"
         ry="1.7407413" />
    </g>
    <g
       id="g4313"
       transform="translate(112.18335)">
      <rect
         ry="1.7407413"
         rx="2.0080049"
         y="132.35352"
         x="33.110706"
         height="14.363094"
         width="38.175591"
         id="rect4315"
         style="opacity:1;fill:#dcdcdc;fill-opacity:1;fill-rule:nonzero;stroke:#7c7c7c;stroke-width:0.26499999;stroke-linecap:butt;stroke-linejoin:miter;stroke-miterlimit:4;stroke-dasharray:none;stroke-dashoffset:0;stroke-opacity:1" />
      <flowRoot
         transform="translate(-15.875006,84.137502)"
         style="font-style:normal;font-weight:normal;font-size:6.3499999px;line-height:125%;font-family:sans-serif;letter-spacing:-0.51593751px;word-spacing:0px;fill:#000000;fill-opacity:1;stroke:none;stroke-width:0.26458332px;stroke-linecap:butt;stroke-linejoin:miter;stroke-opacity:1"
         id="flowRoot4317"
         xml:space="preserve"><flowRegion
           style="font-size:6.3499999px;stroke-width:0.26458332px"
           id="flowRegion4319"><rect
             style="font-size:6.3499999px;stroke-width:0.26458332px"
             y="51.088684"
             x="42.711311"
             height="10.016365"
             width="51.782738"
             id="rect4321" /></flowRegion><flowPara
           style="font-size:6.3499999px;text-align:center;letter-spacing:0px;text-anchor:middle;stroke-width:0.26458332px"
           id="flowPara4323">Package N</flowPara></flowRoot>      <path
         style="fill:none;fill-rule:evenodd;stroke:#000000;stroke-width:0.26458332px;stroke-linecap:butt;stroke-linejoin:miter;stroke-opacity:1;marker-start:url(#Arrow1Lstart);marker-end:url(#Arrow1Lend)"
         d="m -64.652846,131.87165 -0.09051,-5.04308 51.08265,-9.96633 -0.05985,-10.36224"
         id="path4327"
         inkscape:connector-curvature="0"
         sodipodi:nodetypes="cccc" />
      <path
         sodipodi:nodetypes="cccc"
         inkscape:connector-curvature="0"
         id="path5609"
         d="M 51.84533,131.87165 51.93584,126.82857 0.85319293,116.86224 0.91304293,106.5"
         style="fill:none;fill-rule:evenodd;stroke:#000000;stroke-width:0.26458332px;stroke-linecap:butt;stroke-linejoin:miter;stroke-opacity:1;marker-start:url(#marker5611);marker-end:url(#marker5639)" />
      <path
         sodipodi:nodetypes="cccc"
         inkscape:connector-curvature="0"
         id="path5937"
         d="m -17.027844,131.87165 -0.09051,-6.10141 10.8659815,-7.84967 -0.05985,-11.42057"
         style="fill:none;fill-rule:evenodd;stroke:#000000;stroke-width:0.26458332px;stroke-linecap:butt;stroke-linejoin:miter;stroke-opacity:1;marker-start:url(#marker5939);marker-end:url(#marker5979)" />
    </g>
    <path
       style="fill:none;fill-rule:evenodd;stroke:#000000;stroke-width:0.44999999;stroke-linecap:butt;stroke-linejoin:miter;stroke-miterlimit:4;stroke-dasharray:2.69999985, 2.69999985;stroke-dashoffset:0;stroke-opacity:1"
       d="m 121.02798,139.30835 20.97768,0"
       id="path4325"
       inkscape:connector-curvature="0" />
    <path
       style="fill:none;fill-rule:evenodd;stroke:#000000;stroke-width:0.26499999;stroke-linecap:butt;stroke-linejoin:miter;stroke-miterlimit:4;stroke-dasharray:none;stroke-opacity:1;marker-start:url(#marker6552);marker-end:url(#marker6482)"
       d="m 130.30729,96.719865 c 5.99239,0 11.26712,0 15.49702,0"
       id="path6410"
       inkscape:connector-curvature="0"
       sodipodi:nodetypes="cc" />
    <rect
       style="opacity:1;fill:#dcdcdc;fill-opacity:1;fill-rule:nonzero;stroke:#7c7c7c;stroke-width:0.26499999;stroke-linecap:butt;stroke-linejoin:miter;stroke-miterlimit:4;stroke-dasharray:none;stroke-dashoffset:0;stroke-opacity:1"
       id="rect7386"
       width="44.97916"
       height="14.363094"
       x="-64.837799"
       y="89.491066"
       rx="2.0080049"
       ry="1.7407413"
       transform="scale(-1,1)" />
    <flowRoot
       transform="translate(-121.65007,0.52916667)"
       xml:space="preserve"
       id="flowRoot7388"
       style="font-style:normal;font-weight:normal;font-size:6.3499999px;line-height:125%;font-family:sans-serif;letter-spacing:-0.51593751px;word-spacing:0px;fill:#000000;fill-opacity:1;stroke:none;stroke-width:0.26458332px;stroke-linecap:butt;stroke-linejoin:miter;stroke-opacity:1"><flowRegion
         id="flowRegion7390"
         style="font-size:6.3499999px;stroke-width:0.26458332px"><rect
           transform="scale(-1,1)"
           id="rect7392"
           width="51.782738"
           height="10.016365"
           x="-189.79201"
           y="91.834518"
           style="font-size:6.3499999px;stroke-width:0.26458332px" /></flowRegion><flowPara
         id="flowPara7394"
         style="font-size:6.3499999px;text-align:center;letter-spacing:0px;text-anchor:middle;stroke-width:0.26458332px">Configuration</flowPara></flowRoot>    <path
       sodipodi:nodetypes="cc"
       inkscape:connector-curvature="0"
       id="path7396"
       d="m 81.185297,96.719865 c -5.992387,0 -11.267114,0 -15.497011,0"
       style="fill:none;fill-rule:evenodd;stroke:#000000;stroke-width:0.26499999;stroke-linecap:butt;stroke-linejoin:miter;stroke-miterlimit:4;stroke-dasharray:none;stroke-opacity:1;marker-start:url(#marker7408);marker-end:url(#marker7478)" />
    <rect
       style="opacity:1;fill:#f5f5f5;fill-opacity:1;fill-rule:nonzero;stroke:none;stroke-width:0.44999993;stroke-linecap:butt;stroke-linejoin:miter;stroke-miterlimit:4;stroke-dasharray:2.6999998, 2.6999998;stroke-dashoffset:0;stroke-opacity:1"
       id="rect8325"
       width="2.6058781"
       height="0.27027068"
       x="104.80831"
       y="71.212975"
       rx="0"
       ry="0" />
    <path
       style="fill:none;fill-rule:evenodd;stroke:#000000;stroke-width:0.26499999;stroke-linecap:butt;stroke-linejoin:miter;stroke-miterlimit:4;stroke-dasharray:none;stroke-opacity:1;marker-start:url(#marker7568);marker-end:url(#marker7650)"
       d="m 106.07901,86.476703 0,-34.017853"
       id="path7566"
       inkscape:connector-curvature="0"
       sodipodi:nodetypes="cc" />
  </g>
</svg>
