<?xml version="1.0" encoding="UTF-8" standalone="no"?>
<svg
   xmlns:dc="http://purl.org/dc/elements/1.1/"
   xmlns:cc="http://creativecommons.org/ns#"
   xmlns:rdf="http://www.w3.org/1999/02/22-rdf-syntax-ns#"
   xmlns:svg="http://www.w3.org/2000/svg"
   xmlns="http://www.w3.org/2000/svg"
   version="1.1"
   id="svg2"
   viewBox="0 0 76.809525 15.67656"
   height="15.67656mm"
   width="76.809525mm">
  <defs
     id="defs4" />
  <metadata
     id="metadata7">
    <rdf:RDF>
      <cc:Work
         rdf:about="">
        <dc:format>image/svg+xml</dc:format>
        <dc:type
           rdf:resource="http://purl.org/dc/dcmitype/StillImage" />
        <dc:title></dc:title>
      </cc:Work>
    </rdf:RDF>
  </metadata>
  <g
     transform="translate(-62.929492,-119.3004)"
     id="layer1">
    <g
       id="text4141"
       aria-label="\ compose\"
       style="font-style:normal;font-weight:normal;font-size:16.93333244px;line-height:125%;font-family:sans-serif;letter-spacing:-0.51593751px;word-spacing:0px;fill:#ffffff;fill-opacity:1;stroke:none;stroke-width:0.2;stroke-linecap:butt;stroke-linejoin:miter;stroke-miterlimit:4;stroke-dasharray:none;stroke-opacity:1">
      <path
         id="path4864"
         style="letter-spacing:-1.8706038px;fill:#000000;fill-opacity:1;stroke:none;stroke-width:0.2;stroke-miterlimit:4;stroke-dasharray:none;stroke-opacity:1"
         d="m 64.219336,119.3004 4.721159,12.14603 -1.289844,0 -4.721159,-12.14603 1.289844,0 z" />
      <path
         id="path4866"
         style="fill:#000000;fill-opacity:1;stroke:none;stroke-width:0.2;stroke-miterlimit:4;stroke-dasharray:none;stroke-opacity:1"
         d="m 73.657685,122.33484 q 1.496549,0 2.430859,0.7276 0.942578,0.72761 1.132747,2.50528 l -1.44694,0 q -0.132291,-0.81856 -0.60358,-1.35599 -0.471289,-0.54571 -1.513086,-0.54571 -1.422135,0 -2.033984,1.38907 -0.396875,0.90123 -0.396875,2.22415 0,1.33118 0.562239,2.24069 0.56224,0.9095 1.769401,0.9095 0.926042,0 1.463477,-0.56224 0.545703,-0.5705 0.752408,-1.55442 l 1.44694,0 q -0.248046,1.76113 -1.240234,2.57969 -0.992187,0.81028 -2.538346,0.81028 -1.736328,0 -2.769857,-1.26504 -1.033528,-1.2733 -1.033528,-3.175 0,-2.33164 1.132747,-3.62975 1.132747,-1.29811 2.885612,-1.29811 z m -0.231511,0.0413 0,0 z" />
      <path
         id="path4868"
         style="fill:#000000;fill-opacity:1;stroke:none;stroke-width:0.2;stroke-miterlimit:4;stroke-dasharray:none;stroke-opacity:1"
         d="m 82.315183,122.36584 c 0.904462,0.10468 1.685873,0.47469 2.344233,1.11003 0.788241,0.76068 1.182357,1.87965 1.182357,3.3569 0,1.42765 -0.347266,2.60726 -1.041797,3.53881 -0.694531,0.93155 -1.772157,1.39733 -3.232877,1.39733 -1.218186,0 -2.185569,-0.41066 -2.902149,-1.23197 -0.716579,-0.82682 -1.074869,-1.93476 -1.074869,-3.32383 0,-1.48828 0.377579,-2.6734 1.132747,-3.55534 0.630757,-0.73665 1.442257,-1.16565 2.434499,-1.28701 l -8.76e-4,1.31324 c -0.622573,0.11974 -1.094792,0.44998 -1.416657,0.99071 -0.413408,0.69453 -0.620117,1.53237 -0.620117,2.51354 0,0.94258 0.206706,1.72806 0.620117,2.35644 0.413411,0.62839 1.069358,0.94258 1.967839,0.94258 l 0,4e-5 c 0.986675,0 1.661913,-0.37207 2.025716,-1.11621 0.369314,-0.74965 0.553971,-1.58199 0.553971,-2.497 0,-0.82683 -0.132292,-1.49931 -0.396875,-2.01745 -0.332439,-0.64738 -0.855793,-1.0379 -1.570062,-1.17155 z" />
      <path
         id="path4870"
         style="fill:#000000;fill-opacity:1;stroke:none;stroke-width:0.2;stroke-miterlimit:4;stroke-dasharray:none;stroke-opacity:1"
         d="m 87.103478,122.59115 1.471745,0 0,1.25677 q 0.529166,-0.65319 0.959114,-0.95084 0.735872,-0.50436 1.670182,-0.50436 1.058334,0 1.703255,0.52089 0.363802,0.29766 0.661459,0.87644 0.496093,-0.71107 1.16582,-1.05007 0.669726,-0.34726 1.504818,-0.34726 1.785937,0 2.430859,1.28984 0.347265,0.69453 0.347265,1.86862 l 0,5.89525 -1.546158,0 0,-6.15157 q 0,-0.8847 -0.446485,-1.21543 -0.438216,-0.33072 -1.074869,-0.33072 -0.876433,0 -1.513086,0.58704 -0.628386,0.58704 -0.628386,1.95957 l 0,5.15111 -1.513086,0 0,-5.7795 q 0,-0.90123 -0.214974,-1.31464 -0.338997,-0.62012 -1.265038,-0.62012 -0.84336,0 -1.537891,0.65319 -0.686263,0.65319 -0.686263,2.36471 l 0,4.69636 -1.488281,0 0,-8.85528 z" />
      <path
         id="path4872"
         style="fill:#000000;fill-opacity:1;stroke:none;stroke-width:0.2;stroke-miterlimit:4;stroke-dasharray:none;stroke-opacity:1"
         d="m 104.44691,130.44597 q 1.0418,0 1.72806,-0.86816 0.69453,-0.87644 0.69453,-2.61276 0,-1.05834 -0.30592,-1.81901 -0.57878,-1.46348 -2.11667,-1.46348 -1.54616,0 -2.11666,1.54616 -0.30593,0.82682 -0.30593,2.10013 0,1.02526 0.30593,1.74459 0.57877,1.37253 2.11666,1.37253 z m -3.85299,-7.81348 1.44694,0 0,1.17409 q 0.44648,-0.60358 0.97565,-0.93431 0.75241,-0.49609 1.7694,-0.49609 1.50482,0 2.55488,1.15755 1.05007,1.14929 1.05007,3.29076 0,2.89388 -1.51309,4.13411 -0.95911,0.78548 -2.23242,0.78548 -1.00046,0 -1.67845,-0.43821 -0.39688,-0.24805 -0.8847,-0.85163 l 0,4.52272 -1.48828,0 0,-12.34447 z" />
      <path
         id="path4876"
         style="fill:#000000;fill-opacity:1;stroke:none;stroke-width:0.2;stroke-miterlimit:4;stroke-dasharray:none;stroke-opacity:1"
         d="m 119.41406,128.6683 q 0.0661,0.74414 0.37207,1.14102 0.56224,0.71933 1.9513,0.71933 0.82683,0 1.45521,-0.35553 0.62839,-0.3638 0.62839,-1.11621 0,-0.57051 -0.50437,-0.86817 -0.32246,-0.1819 -1.2733,-0.42168 l -1.18236,-0.29765 q -1.13275,-0.28112 -1.67018,-0.62839 -0.95912,-0.60358 -0.95912,-1.67018 0,-1.25677 0.90124,-2.03398 0.90951,-0.77722 2.43913,-0.77722 2.00091,0 2.88561,1.17409 0.55397,0.74414 0.53744,1.60404 l -1.4056,0 q -0.0413,-0.50436 -0.35554,-0.91778 -0.51263,-0.58704 -1.77767,-0.58704 -0.84336,0 -1.28157,0.32246 -0.42995,0.32246 -0.42995,0.85163 0,0.57877 0.57051,0.92604 0.33073,0.20671 0.97565,0.3638 l 0.98392,0.23978 q 1.60403,0.38861 2.14974,0.75241 0.86816,0.57051 0.86816,1.79421 0,1.18235 -0.90124,2.04225 -0.89296,0.85989 -2.72851,0.85989 -1.97611,0 -2.80293,-0.89296 -0.81856,-0.90124 -0.87643,-2.22416 l 1.4304,0 z m 2.19935,-6.29212 0,0 z" />
      <path
         id="path4878"
         style="fill:#000000;fill-opacity:1;stroke:none;stroke-width:0.2;stroke-miterlimit:4;stroke-dasharray:none;stroke-opacity:1"
         d="m 130.16772,122.39272 q 0.94258,0 1.82728,0.44648 0.8847,0.43822 1.34772,1.14102 0.44648,0.66972 0.59531,1.56269 0.13229,0.61185 0.13229,1.9513 l -6.49056,0 q 0.0414,1.34772 0.63666,2.16628 0.59531,0.81029 1.84381,0.81029 1.16582,0 1.86035,-0.76895 0.39688,-0.44648 0.56224,-1.03353 l 1.46348,0 q -0.0579,0.48783 -0.38861,1.09141 -0.32246,0.59531 -0.7276,0.97565 -0.678,0.66146 -1.67845,0.89297 -0.53744,0.13229 -1.21543,0.13229 -1.65365,0 -2.80293,-1.19889 -1.14928,-1.20717 -1.14928,-3.37344 0,-2.1332 1.15755,-3.46439 1.15755,-1.33118 3.02617,-1.33118 z m 2.37298,3.91914 q -0.0909,-0.96739 -0.42168,-1.54616 -0.61185,-1.07487 -2.04225,-1.07487 -1.02526,0 -1.71979,0.74414 -0.69453,0.73587 -0.73587,1.87689 l 4.91959,0 z m -2.51354,-3.93568 0,0 z" />
      <path
         id="path4880"
         style="fill:#000000;fill-opacity:1;stroke:none;stroke-width:0.2;stroke-miterlimit:4;stroke-dasharray:none;stroke-opacity:1"
         d="m 135.01786,119.3004 4.72116,12.14603 -1.28985,0 -4.72115,-12.14603 1.28984,0 z" />
      <path
         d="m 113.74106,131.76891 c 0.90446,-0.10468 1.68587,-0.47469 2.34424,-1.11003 0.78824,-0.76068 1.18235,-1.87965 1.18235,-3.3569 0,-1.42765 -0.34726,-2.60726 -1.04179,-3.53881 -0.69454,-0.93155 -1.77216,-1.39733 -3.23288,-1.39733 -1.21819,0 -2.18557,0.41066 -2.90216,1.23197 -0.71657,0.82682 -1.07486,1.93476 -1.07486,3.32383 0,1.48828 0.37757,2.6734 1.13274,3.55534 0.63076,0.73665 1.44226,1.16565 2.4345,1.28701 l -8.7e-4,-1.31324 c -0.62257,-0.11974 -1.09479,-0.44998 -1.41666,-0.99071 -0.41341,-0.69453 -0.62012,-1.53237 -0.62012,-2.51354 0,-0.94258 0.20671,-1.72806 0.62012,-2.35644 0.41341,-0.62839 1.06936,-0.94258 1.96784,-0.94258 l 0,-4e-5 c 0.98668,0 1.66191,0.37207 2.02572,1.11621 0.36931,0.74965 0.55397,1.58199 0.55397,2.497 0,0.82683 -0.13229,1.49931 -0.39688,2.01745 -0.33244,0.64738 -0.85579,1.0379 -1.57006,1.17155 z"
         style="font-style:normal;font-weight:normal;font-size:16.93333244px;line-height:125%;font-family:sans-serif;letter-spacing:-0.51593751px;word-spacing:0px;fill:#000000;fill-opacity:1;stroke:none;stroke-width:0.2;stroke-linecap:butt;stroke-linejoin:miter;stroke-miterlimit:4;stroke-dasharray:none;stroke-opacity:1"
         id="path4895" />
    </g>
  </g>
</svg>
