<?xml version="1.0" encoding="UTF-8" standalone="no"?>
<svg
   xmlns:dc="http://purl.org/dc/elements/1.1/"
   xmlns:cc="http://creativecommons.org/ns#"
   xmlns:rdf="http://www.w3.org/1999/02/22-rdf-syntax-ns#"
   xmlns:svg="http://www.w3.org/2000/svg"
   xmlns="http://www.w3.org/2000/svg"
   version="1.1"
   id="svg2"
   viewBox="0 0 203.92876 114.22481"
   height="114.22482mm"
   width="203.92876mm">
  <defs
     id="defs4">
    <marker
       style="overflow:visible"
       id="marker7650"
       refX="0"
       refY="0"
       orient="auto">
      <path
         transform="matrix(-0.8,0,0,-0.8,-10,0)"
         style="fill:#000000;fill-opacity:1;fill-rule:evenodd;stroke:#000000;stroke-width:1.00000003pt;stroke-opacity:1"
         d="M 0,0 5,-5 -12.5,0 5,5 0,0 Z"
         id="path7652" />
    </marker>
    <marker
       style="overflow:visible"
       id="marker7568"
       refX="0"
       refY="0"
       orient="auto">
      <path
         transform="matrix(0.8,0,0,0.8,10,0)"
         style="fill:#000000;fill-opacity:1;fill-rule:evenodd;stroke:#000000;stroke-width:1.00000003pt;stroke-opacity:1"
         d="M 0,0 5,-5 -12.5,0 5,5 0,0 Z"
         id="path7570" />
    </marker>
    <marker
       orient="auto"
       refY="0"
       refX="0"
       id="marker7478"
       style="overflow:visible">
      <path
         id="path7480"
         d="M 0,0 5,-5 -12.5,0 5,5 0,0 Z"
         style="fill:#000000;fill-opacity:1;fill-rule:evenodd;stroke:#000000;stroke-width:1.00000003pt;stroke-opacity:1"
         transform="matrix(-0.8,0,0,-0.8,-10,0)" />
    </marker>
    <marker
       orient="auto"
       refY="0"
       refX="0"
       id="marker7408"
       style="overflow:visible">
      <path
         id="path7410"
         d="M 0,0 5,-5 -12.5,0 5,5 0,0 Z"
         style="fill:#000000;fill-opacity:1;fill-rule:evenodd;stroke:#000000;stroke-width:1.00000003pt;stroke-opacity:1"
         transform="matrix(0.8,0,0,0.8,10,0)" />
    </marker>
    <marker
       style="overflow:visible"
       id="marker6552"
       refX="0"
       refY="0"
       orient="auto">
      <path
         transform="matrix(0.8,0,0,0.8,10,0)"
         style="fill:#000000;fill-opacity:1;fill-rule:evenodd;stroke:#000000;stroke-width:1.00000003pt;stroke-opacity:1"
         d="M 0,0 5,-5 -12.5,0 5,5 0,0 Z"
         id="path6554" />
    </marker>
    <marker
       style="overflow:visible"
       id="marker6482"
       refX="0"
       refY="0"
       orient="auto">
      <path
         transform="matrix(-0.8,0,0,-0.8,-10,0)"
         style="fill:#000000;fill-opacity:1;fill-rule:evenodd;stroke:#000000;stroke-width:1.00000003pt;stroke-opacity:1"
         d="M 0,0 5,-5 -12.5,0 5,5 0,0 Z"
         id="path6484" />
    </marker>
    <marker
       style="overflow:visible"
       id="marker6418"
       refX="0"
       refY="0"
       orient="auto">
      <path
         transform="matrix(-0.8,0,0,-0.8,-10,0)"
         style="fill:#000000;fill-opacity:1;fill-rule:evenodd;stroke:#000000;stroke-width:1.00000003pt;stroke-opacity:1"
         d="M 0,0 5,-5 -12.5,0 5,5 0,0 Z"
         id="path6420" />
    </marker>
    <marker
       orient="auto"
       refY="0"
       refX="0"
       id="marker5979"
       style="overflow:visible">
      <path
         id="path5981"
         d="M 0,0 5,-5 -12.5,0 5,5 0,0 Z"
         style="fill:#000000;fill-opacity:1;fill-rule:evenodd;stroke:#000000;stroke-width:1.00000003pt;stroke-opacity:1"
         transform="matrix(-0.8,0,0,-0.8,-10,0)" />
    </marker>
    <marker
       orient="auto"
       refY="0"
       refX="0"
       id="marker5939"
       style="overflow:visible">
      <path
         id="path5941"
         d="M 0,0 5,-5 -12.5,0 5,5 0,0 Z"
         style="fill:#000000;fill-opacity:1;fill-rule:evenodd;stroke:#000000;stroke-width:1.00000003pt;stroke-opacity:1"
         transform="matrix(0.8,0,0,0.8,10,0)" />
    </marker>
    <marker
       orient="auto"
       refY="0"
       refX="0"
       id="marker5639"
       style="overflow:visible">
      <path
         id="path5641"
         d="M 0,0 5,-5 -12.5,0 5,5 0,0 Z"
         style="fill:#000000;fill-opacity:1;fill-rule:evenodd;stroke:#000000;stroke-width:1.00000003pt;stroke-opacity:1"
         transform="matrix(-0.8,0,0,-0.8,-10,0)" />
    </marker>
    <marker
       orient="auto"
       refY="0"
       refX="0"
       id="marker5611"
       style="overflow:visible">
      <path
         id="path5613"
         d="M 0,0 5,-5 -12.5,0 5,5 0,0 Z"
         style="fill:#000000;fill-opacity:1;fill-rule:evenodd;stroke:#000000;stroke-width:1.00000003pt;stroke-opacity:1"
         transform="matrix(0.8,0,0,0.8,10,0)" />
    </marker>
    <marker
       style="overflow:visible"
       id="Arrow1Lend"
       refX="0"
       refY="0"
       orient="auto">
      <path
         transform="matrix(-0.8,0,0,-0.8,-10,0)"
         style="fill:#000000;fill-opacity:1;fill-rule:evenodd;stroke:#000000;stroke-width:1.00000003pt;stroke-opacity:1"
         d="M 0,0 5,-5 -12.5,0 5,5 0,0 Z"
         id="path4335" />
    </marker>
    <marker
       style="overflow:visible"
       id="Arrow1Lstart"
       refX="0"
       refY="0"
       orient="auto">
      <path
         transform="matrix(0.8,0,0,0.8,10,0)"
         style="fill:#000000;fill-opacity:1;fill-rule:evenodd;stroke:#000000;stroke-width:1.00000003pt;stroke-opacity:1"
         d="M 0,0 5,-5 -12.5,0 5,5 0,0 Z"
         id="path4332" />
    </marker>
  </defs>
  <metadata
     id="metadata7">
    <rdf:RDF>
      <cc:Work
         rdf:about="">
        <dc:format>image/svg+xml</dc:format>
        <dc:type
           rdf:resource="http://purl.org/dc/dcmitype/StillImage" />
        <dc:title></dc:title>
      </cc:Work>
    </rdf:RDF>
  </metadata>
  <g
     transform="translate(-4.1146338,-36.441899)"
     id="layer1">
    <path
       id="rect4161"
       d="m 6.2551386,71.348221 199.6477514,0 c 1.11243,0 2.008,0.77637 2.008,1.740741 l 0,71.914418 c 0,0.96437 -0.89557,1.74074 -2.008,1.74074 l -199.6477514,0 c -1.1124347,0 -2.0080049,-0.77637 -2.0080049,-1.74074 l 0,-71.914418 c 0,-0.964371 0.8955702,-1.740741 2.0080049,-1.740741 z"
       style="opacity:1;fill:#f5f5f5;fill-opacity:1;fill-rule:nonzero;stroke:#7c7c7c;stroke-width:0.26499996;stroke-linecap:butt;stroke-linejoin:miter;stroke-miterlimit:4;stroke-dasharray:none;stroke-dashoffset:0;stroke-opacity:1" />
    <g
       transform="translate(-4.8569961,5.2916667)"
       id="g4229">
      <path
         id="rect4141"
         d="m 89.887468,31.282732 42.097082,0 c 1.11243,0 2.008,0.776371 2.008,1.740741 l 0,10.881612 c 0,0.964371 -0.89557,1.740741 -2.008,1.740741 l -42.097082,0 c -1.112435,0 -2.008005,-0.77637 -2.008005,-1.740741 l 0,-10.881612 c 0,-0.96437 0.89557,-1.740741 2.008005,-1.740741 z"
         style="opacity:1;fill:#dcdcdc;fill-opacity:1;fill-rule:nonzero;stroke:#7c7c7c;stroke-width:0.26499999;stroke-linecap:butt;stroke-linejoin:miter;stroke-miterlimit:4;stroke-dasharray:none;stroke-dashoffset:0;stroke-opacity:1" />
      <g
         id="flowRoot4143"
         aria-label="Browser"
         style="font-style:normal;font-weight:normal;font-size:6.3499999px;line-height:125%;font-family:sans-serif;letter-spacing:-0.51593751px;word-spacing:0px;fill:#000000;fill-opacity:1;stroke:none;stroke-width:0.26458332px;stroke-linecap:butt;stroke-linejoin:miter;stroke-opacity:1"
         transform="translate(42.333335,-17.4625)">
        <path
           id="path9125"
           style="font-size:7.05555582px;text-align:center;letter-spacing:0px;text-anchor:middle;stroke-width:0.26458332px"
           d="m 58.088107,54.957594 q 0.434082,0 0.675239,-0.120578 0.378961,-0.18948 0.378961,-0.682129 0,-0.496094 -0.403077,-0.668349 -0.227376,-0.09646 -0.675238,-0.09646 l -1.223009,0 0,1.567518 1.247124,0 z m 0.230822,2.335775 q 0.630452,0 0.89917,-0.36518 0.168809,-0.230821 0.168809,-0.558106 0,-0.551215 -0.492648,-0.75103 -0.261828,-0.106798 -0.692465,-0.106798 l -1.360812,0 0,1.781114 1.477946,0 z m -2.14974,-4.475179 2.173855,0 q 0.888835,0 1.26435,0.530545 0.220487,0.313503 0.220487,0.72347 0,0.478868 -0.272163,0.785482 -0.141249,0.161919 -0.406521,0.296278 0.389295,0.148139 0.582221,0.334174 0.341064,0.330729 0.341064,0.91295 0,0.489204 -0.306613,0.88539 -0.458198,0.592556 -1.457276,0.592556 l -2.139404,0 0,-5.060845 z" />
        <path
           id="path9127"
           style="font-size:7.05555582px;text-align:center;letter-spacing:0px;text-anchor:middle;stroke-width:0.26458332px"
           d="m 60.833848,54.189338 0.589112,0 0,0.637343 q 0.07235,-0.186036 0.354844,-0.451308 0.282498,-0.268717 0.651124,-0.268717 0.01723,0 0.05857,0.0034 0.04134,0.0034 0.141249,0.01378 l 0,0.654568 q -0.05512,-0.01034 -0.103353,-0.01378 -0.04479,-0.0034 -0.09991,-0.0034 -0.468533,0 -0.720025,0.303168 -0.251492,0.299724 -0.251492,0.692464 l 0,2.122179 -0.620117,0 0,-3.689697 z" />
        <path
           id="path9129"
           style="font-size:7.05555582px;text-align:center;letter-spacing:0px;text-anchor:middle;stroke-width:0.26458332px"
           d="m 64.637234,57.479404 q 0.616672,0 0.844048,-0.465088 0.230822,-0.468533 0.230822,-1.040419 0,-0.516764 -0.165365,-0.840603 -0.261827,-0.509874 -0.902615,-0.509874 -0.568441,0 -0.826823,0.434082 -0.258382,0.434082 -0.258382,1.047309 0,0.589111 0.258382,0.981852 0.258382,0.392741 0.819933,0.392741 z m 0.02411,-3.396864 q 0.713135,0 1.205784,0.475423 0.492649,0.475423 0.492649,1.398709 0,0.89228 -0.434082,1.474501 -0.434083,0.582221 -1.347033,0.582221 -0.761366,0 -1.209228,-0.513319 -0.447863,-0.516765 -0.447863,-1.384929 0,-0.930175 0.471978,-1.481391 0.471978,-0.551215 1.267795,-0.551215 z m -0.02067,0.01722 0,0 z" />
        <path
           id="path9131"
           style="font-size:7.05555582px;text-align:center;letter-spacing:0px;text-anchor:middle;stroke-width:0.26458332px"
           d="m 67.38642,54.189338 0.70969,2.907661 0.720025,-2.907661 0.695909,0 0.72347,2.890435 0.754476,-2.890435 0.620117,0 -1.071424,3.689697 -0.644233,0 -0.751031,-2.855984 -0.726915,2.855984 -0.644233,0 -1.064535,-3.689697 0.678684,0 z" />
        <path
           id="path9133"
           style="font-size:7.05555582px;text-align:center;letter-spacing:0px;text-anchor:middle;stroke-width:0.26458332px"
           d="m 72.567843,56.721483 q 0.02756,0.310059 0.155029,0.475423 0.234267,0.299724 0.813043,0.299724 0.34451,0 0.606337,-0.148139 0.261827,-0.151585 0.261827,-0.465088 0,-0.237712 -0.210151,-0.361735 -0.134359,-0.07579 -0.530545,-0.1757 l -0.492648,-0.124024 q -0.471978,-0.117133 -0.695909,-0.261827 -0.399632,-0.251492 -0.399632,-0.695909 0,-0.523655 0.375516,-0.847494 0.37896,-0.323839 1.016303,-0.323839 0.833713,0 1.202338,0.489204 0.230822,0.310058 0.223932,0.668348 l -0.585667,0 q -0.01722,-0.21015 -0.148139,-0.382405 -0.213596,-0.244602 -0.740695,-0.244602 -0.3514,0 -0.53399,0.134359 -0.179145,0.134358 -0.179145,0.354845 0,0.241156 0.237712,0.38585 0.137803,0.08613 0.406521,0.151584 l 0.409966,0.09991 q 0.668349,0.16192 0.895725,0.313504 0.361735,0.237712 0.361735,0.747586 0,0.492648 -0.375515,0.850938 -0.372071,0.35829 -1.136882,0.35829 -0.823378,0 -1.167887,-0.37207 -0.341065,-0.375515 -0.36518,-0.926731 l 0.596001,0 z m 0.916396,-2.621718 0,0 z" />
        <path
           id="path9135"
           style="font-size:7.05555582px;text-align:center;letter-spacing:0px;text-anchor:middle;stroke-width:0.26458332px"
           d="m 77.263509,54.106656 q 0.392741,0 0.761366,0.186035 0.368625,0.18259 0.561551,0.475423 0.186035,0.279053 0.248047,0.651123 0.05512,0.254937 0.05512,0.813043 l -2.7044,0 q 0.01723,0.56155 0.265273,0.902615 0.248046,0.337619 0.768256,0.337619 0.485758,0 0.775146,-0.320394 0.165365,-0.186035 0.234267,-0.430637 l 0.609782,0 q -0.02412,0.203261 -0.16192,0.454753 -0.134358,0.248047 -0.303168,0.406521 -0.282498,0.275608 -0.699354,0.37207 -0.223932,0.05512 -0.50643,0.05512 -0.689019,0 -1.167887,-0.499539 -0.478868,-0.502984 -0.478868,-1.405599 0,-0.888835 0.482313,-1.443495 0.482314,-0.55466 1.260905,-0.55466 z m 0.988743,1.632975 q -0.0379,-0.403076 -0.1757,-0.644233 -0.254937,-0.447862 -0.850939,-0.447862 -0.427192,0 -0.71658,0.310058 -0.289388,0.306614 -0.306613,0.782037 l 2.049832,0 z m -1.047309,-1.639866 0,0 z" />
        <path
           id="path9137"
           style="font-size:7.05555582px;text-align:center;letter-spacing:0px;text-anchor:middle;stroke-width:0.26458332px"
           d="m 79.67163,54.189338 0.589112,0 0,0.637343 q 0.07235,-0.186036 0.354844,-0.451308 0.282498,-0.268717 0.651123,-0.268717 0.01723,0 0.05857,0.0034 0.04134,0.0034 0.141249,0.01378 l 0,0.654568 q -0.05512,-0.01034 -0.103353,-0.01378 -0.04479,-0.0034 -0.09991,-0.0034 -0.468533,0 -0.720025,0.303168 -0.251492,0.299724 -0.251492,0.692464 l 0,2.122179 -0.620117,0 0,-3.689697 z" />
      </g>
    </g>
    <g
       transform="translate(-4.8569889)"
       id="g4248">
      <path
         id="rect4151"
         d="m 89.458071,87.601181 42.955869,0 c 1.11244,0 2.00801,0.776371 2.00801,1.740741 l 0,14.661378 c 0,0.96437 -0.89557,1.74074 -2.00801,1.74074 l -42.955869,0 c -1.112435,0 -2.008005,-0.77637 -2.008005,-1.74074 l 0,-14.661378 c 0,-0.96437 0.89557,-1.740741 2.008005,-1.740741 z"
         style="opacity:1;fill:#dcdcdc;fill-opacity:1;fill-rule:nonzero;stroke:#7c7c7c;stroke-width:0.26499999;stroke-linecap:butt;stroke-linejoin:miter;stroke-miterlimit:4;stroke-dasharray:none;stroke-dashoffset:0;stroke-opacity:1" />
      <g
         id="flowRoot4153"
         aria-label="Core"
         style="font-style:normal;font-weight:normal;font-size:6.3499999px;line-height:125%;font-family:sans-serif;letter-spacing:-0.51593751px;word-spacing:0px;fill:#000000;fill-opacity:1;stroke:none;stroke-width:0.26458332px;stroke-linecap:butt;stroke-linejoin:miter;stroke-opacity:1"
         transform="translate(42.333335,40.745835)">
        <path
           id="path9141"
           style="font-size:7.05555582px;text-align:center;letter-spacing:0px;text-anchor:middle;stroke-width:0.26458332px"
           d="m 63.617486,52.680386 q 0.961181,0 1.491726,0.506429 0.530545,0.506429 0.589111,1.150662 l -0.668348,0 q -0.113688,-0.489204 -0.454753,-0.775146 -0.337619,-0.285943 -0.950846,-0.285943 -0.747586,0 -1.209229,0.527099 -0.458197,0.523655 -0.458197,1.60886 0,0.888835 0.413411,1.443495 0.416857,0.551215 1.240235,0.551215 0.757921,0 1.154107,-0.582221 0.21015,-0.306613 0.313503,-0.806152 l 0.668349,0 q -0.08957,0.799262 -0.592557,1.340142 -0.602891,0.651123 -1.626085,0.651123 -0.881944,0 -1.481391,-0.53399 -0.788927,-0.706244 -0.788927,-2.180745 0,-1.119656 0.592557,-1.836236 0.640787,-0.778592 1.767334,-0.778592 z m -0.137804,0 0,0 z" />
        <path
           id="path9143"
           style="font-size:7.05555582px;text-align:center;letter-spacing:0px;text-anchor:middle;stroke-width:0.26458332px"
           d="m 67.965196,57.479404 q 0.616673,0 0.844049,-0.465088 0.230821,-0.468533 0.230821,-1.040419 0,-0.516764 -0.165364,-0.840603 -0.261828,-0.509874 -0.902615,-0.509874 -0.568441,0 -0.826823,0.434082 -0.258383,0.434082 -0.258383,1.047309 0,0.589111 0.258383,0.981852 0.258382,0.392741 0.819932,0.392741 z m 0.02412,-3.396864 q 0.713135,0 1.205784,0.475423 0.492648,0.475423 0.492648,1.398709 0,0.89228 -0.434082,1.474501 -0.434082,0.582221 -1.347032,0.582221 -0.761366,0 -1.209229,-0.513319 -0.447862,-0.516765 -0.447862,-1.384929 0,-0.930175 0.471978,-1.481391 0.471978,-0.551215 1.267795,-0.551215 z m -0.02067,0.01722 0,0 z" />
        <path
           id="path9145"
           style="font-size:7.05555582px;text-align:center;letter-spacing:0px;text-anchor:middle;stroke-width:0.26458332px"
           d="m 70.445665,54.189338 0.589112,0 0,0.637343 q 0.07235,-0.186036 0.354845,-0.451308 0.282497,-0.268717 0.651123,-0.268717 0.01722,0 0.05857,0.0034 0.04134,0.0034 0.141249,0.01378 l 0,0.654568 q -0.05512,-0.01034 -0.103353,-0.01378 -0.04479,-0.0034 -0.09991,-0.0034 -0.468533,0 -0.720025,0.303168 -0.251492,0.299724 -0.251492,0.692464 l 0,2.122179 -0.620118,0 0,-3.689697 z" />
        <path
           id="path9147"
           style="font-size:7.05555582px;text-align:center;letter-spacing:0px;text-anchor:middle;stroke-width:0.26458332px"
           d="m 74.321398,54.106656 q 0.392741,0 0.761366,0.186035 0.368625,0.18259 0.561551,0.475423 0.186035,0.279053 0.248046,0.651123 0.05512,0.254937 0.05512,0.813043 l -2.7044,0 q 0.01722,0.56155 0.265272,0.902615 0.248047,0.337619 0.768257,0.337619 0.485758,0 0.775146,-0.320394 0.165365,-0.186035 0.234267,-0.430637 l 0.609782,0 q -0.02412,0.203261 -0.16192,0.454753 -0.134359,0.248047 -0.303168,0.406521 -0.282498,0.275608 -0.699355,0.37207 -0.223931,0.05512 -0.506429,0.05512 -0.689019,0 -1.167887,-0.499539 -0.478868,-0.502984 -0.478868,-1.405599 0,-0.888835 0.482313,-1.443495 0.482313,-0.55466 1.260905,-0.55466 z m 0.988742,1.632975 q -0.0379,-0.403076 -0.1757,-0.644233 -0.254937,-0.447862 -0.850938,-0.447862 -0.427192,0 -0.71658,0.310058 -0.289388,0.306614 -0.306614,0.782037 l 2.049832,0 z m -1.047309,-1.639866 0,0 z" />
      </g>
    </g>
    <g
       style="stroke-width:2.24492598"
       id="layer1-0"
       transform="matrix(0.44544898,0,0,0.44544898,-19.643187,22.047158)">
      <g
         style="font-style:normal;font-weight:normal;font-size:16.93333244px;line-height:125%;font-family:sans-serif;letter-spacing:-0.51593751px;word-spacing:0px;fill:#ffffff;fill-opacity:1;stroke:none;stroke-width:0.44898522;stroke-linecap:butt;stroke-linejoin:miter;stroke-miterlimit:4;stroke-dasharray:none;stroke-opacity:1"
         aria-label="\ compose\"
         id="text4141">
        <path
           d="m 64.219336,119.3004 4.721159,12.14603 -1.289844,0 -4.721159,-12.14603 1.289844,0 z"
           style="letter-spacing:-1.8706038px;fill:#000000;fill-opacity:1;stroke:none;stroke-width:0.44898522;stroke-miterlimit:4;stroke-dasharray:none;stroke-opacity:1"
           id="path4864" />
        <path
           d="m 73.657685,122.33484 q 1.496549,0 2.430859,0.7276 0.942578,0.72761 1.132747,2.50528 l -1.44694,0 q -0.132291,-0.81856 -0.60358,-1.35599 -0.471289,-0.54571 -1.513086,-0.54571 -1.422135,0 -2.033984,1.38907 -0.396875,0.90123 -0.396875,2.22415 0,1.33118 0.562239,2.24069 0.56224,0.9095 1.769401,0.9095 0.926042,0 1.463477,-0.56224 0.545703,-0.5705 0.752408,-1.55442 l 1.44694,0 q -0.248046,1.76113 -1.240234,2.57969 -0.992187,0.81028 -2.538346,0.81028 -1.736328,0 -2.769857,-1.26504 -1.033528,-1.2733 -1.033528,-3.175 0,-2.33164 1.132747,-3.62975 1.132747,-1.29811 2.885612,-1.29811 z m -0.231511,0.0413 0,0 z"
           style="fill:#000000;fill-opacity:1;stroke:none;stroke-width:0.44898522;stroke-miterlimit:4;stroke-dasharray:none;stroke-opacity:1"
           id="path4866" />
        <path
           d="m 82.315183,122.36584 c 0.904462,0.10468 1.685873,0.47469 2.344233,1.11003 0.788241,0.76068 1.182357,1.87965 1.182357,3.3569 0,1.42765 -0.347266,2.60726 -1.041797,3.53881 -0.694531,0.93155 -1.772157,1.39733 -3.232877,1.39733 -1.218186,0 -2.185569,-0.41066 -2.902149,-1.23197 -0.716579,-0.82682 -1.074869,-1.93476 -1.074869,-3.32383 0,-1.48828 0.377579,-2.6734 1.132747,-3.55534 0.630757,-0.73665 1.442257,-1.16565 2.434499,-1.28701 l -8.76e-4,1.31324 c -0.622573,0.11974 -1.094792,0.44998 -1.416657,0.99071 -0.413408,0.69453 -0.620117,1.53237 -0.620117,2.51354 0,0.94258 0.206706,1.72806 0.620117,2.35644 0.413411,0.62839 1.069358,0.94258 1.967839,0.94258 l 0,4e-5 c 0.986675,0 1.661913,-0.37207 2.025716,-1.11621 0.369314,-0.74965 0.553971,-1.58199 0.553971,-2.497 0,-0.82683 -0.132292,-1.49931 -0.396875,-2.01745 -0.332439,-0.64738 -0.855793,-1.0379 -1.570062,-1.17155 z"
           style="fill:#000000;fill-opacity:1;stroke:none;stroke-width:0.44898522;stroke-miterlimit:4;stroke-dasharray:none;stroke-opacity:1"
           id="path4868" />
        <path
           d="m 87.103478,122.59115 1.471745,0 0,1.25677 q 0.529166,-0.65319 0.959114,-0.95084 0.735872,-0.50436 1.670182,-0.50436 1.058334,0 1.703255,0.52089 0.363802,0.29766 0.661459,0.87644 0.496093,-0.71107 1.16582,-1.05007 0.669726,-0.34726 1.504818,-0.34726 1.785937,0 2.430859,1.28984 0.347265,0.69453 0.347265,1.86862 l 0,5.89525 -1.546158,0 0,-6.15157 q 0,-0.8847 -0.446485,-1.21543 -0.438216,-0.33072 -1.074869,-0.33072 -0.876433,0 -1.513086,0.58704 -0.628386,0.58704 -0.628386,1.95957 l 0,5.15111 -1.513086,0 0,-5.7795 q 0,-0.90123 -0.214974,-1.31464 -0.338997,-0.62012 -1.265038,-0.62012 -0.84336,0 -1.537891,0.65319 -0.686263,0.65319 -0.686263,2.36471 l 0,4.69636 -1.488281,0 0,-8.85528 z"
           style="fill:#000000;fill-opacity:1;stroke:none;stroke-width:0.44898522;stroke-miterlimit:4;stroke-dasharray:none;stroke-opacity:1"
           id="path4870" />
        <path
           d="m 104.44691,130.44597 q 1.0418,0 1.72806,-0.86816 0.69453,-0.87644 0.69453,-2.61276 0,-1.05834 -0.30592,-1.81901 -0.57878,-1.46348 -2.11667,-1.46348 -1.54616,0 -2.11666,1.54616 -0.30593,0.82682 -0.30593,2.10013 0,1.02526 0.30593,1.74459 0.57877,1.37253 2.11666,1.37253 z m -3.85299,-7.81348 1.44694,0 0,1.17409 q 0.44648,-0.60358 0.97565,-0.93431 0.75241,-0.49609 1.7694,-0.49609 1.50482,0 2.55488,1.15755 1.05007,1.14929 1.05007,3.29076 0,2.89388 -1.51309,4.13411 -0.95911,0.78548 -2.23242,0.78548 -1.00046,0 -1.67845,-0.43821 -0.39688,-0.24805 -0.8847,-0.85163 l 0,4.52272 -1.48828,0 0,-12.34447 z"
           style="fill:#000000;fill-opacity:1;stroke:none;stroke-width:0.44898522;stroke-miterlimit:4;stroke-dasharray:none;stroke-opacity:1"
           id="path4872" />
        <path
           d="m 119.41406,128.6683 q 0.0661,0.74414 0.37207,1.14102 0.56224,0.71933 1.9513,0.71933 0.82683,0 1.45521,-0.35553 0.62839,-0.3638 0.62839,-1.11621 0,-0.57051 -0.50437,-0.86817 -0.32246,-0.1819 -1.2733,-0.42168 l -1.18236,-0.29765 q -1.13275,-0.28112 -1.67018,-0.62839 -0.95912,-0.60358 -0.95912,-1.67018 0,-1.25677 0.90124,-2.03398 0.90951,-0.77722 2.43913,-0.77722 2.00091,0 2.88561,1.17409 0.55397,0.74414 0.53744,1.60404 l -1.4056,0 q -0.0413,-0.50436 -0.35554,-0.91778 -0.51263,-0.58704 -1.77767,-0.58704 -0.84336,0 -1.28157,0.32246 -0.42995,0.32246 -0.42995,0.85163 0,0.57877 0.57051,0.92604 0.33073,0.20671 0.97565,0.3638 l 0.98392,0.23978 q 1.60403,0.38861 2.14974,0.75241 0.86816,0.57051 0.86816,1.79421 0,1.18235 -0.90124,2.04225 -0.89296,0.85989 -2.72851,0.85989 -1.97611,0 -2.80293,-0.89296 -0.81856,-0.90124 -0.87643,-2.22416 l 1.4304,0 z m 2.19935,-6.29212 0,0 z"
           style="fill:#000000;fill-opacity:1;stroke:none;stroke-width:0.44898522;stroke-miterlimit:4;stroke-dasharray:none;stroke-opacity:1"
           id="path4876" />
        <path
           d="m 130.16772,122.39272 q 0.94258,0 1.82728,0.44648 0.8847,0.43822 1.34772,1.14102 0.44648,0.66972 0.59531,1.56269 0.13229,0.61185 0.13229,1.9513 l -6.49056,0 q 0.0414,1.34772 0.63666,2.16628 0.59531,0.81029 1.84381,0.81029 1.16582,0 1.86035,-0.76895 0.39688,-0.44648 0.56224,-1.03353 l 1.46348,0 q -0.0579,0.48783 -0.38861,1.09141 -0.32246,0.59531 -0.7276,0.97565 -0.678,0.66146 -1.67845,0.89297 -0.53744,0.13229 -1.21543,0.13229 -1.65365,0 -2.80293,-1.19889 -1.14928,-1.20717 -1.14928,-3.37344 0,-2.1332 1.15755,-3.46439 1.15755,-1.33118 3.02617,-1.33118 z m 2.37298,3.91914 q -0.0909,-0.96739 -0.42168,-1.54616 -0.61185,-1.07487 -2.04225,-1.07487 -1.02526,0 -1.71979,0.74414 -0.69453,0.73587 -0.73587,1.87689 l 4.91959,0 z m -2.51354,-3.93568 0,0 z"
           style="fill:#000000;fill-opacity:1;stroke:none;stroke-width:0.44898522;stroke-miterlimit:4;stroke-dasharray:none;stroke-opacity:1"
           id="path4878" />
        <path
           d="m 135.01786,119.3004 4.72116,12.14603 -1.28985,0 -4.72115,-12.14603 1.28984,0 z"
           style="fill:#000000;fill-opacity:1;stroke:none;stroke-width:0.44898522;stroke-miterlimit:4;stroke-dasharray:none;stroke-opacity:1"
           id="path4880" />
        <path
           id="path4895"
           style="font-style:normal;font-weight:normal;font-size:16.93333244px;line-height:125%;font-family:sans-serif;letter-spacing:-0.51593751px;word-spacing:0px;fill:#000000;fill-opacity:1;stroke:none;stroke-width:0.44898522;stroke-linecap:butt;stroke-linejoin:miter;stroke-miterlimit:4;stroke-dasharray:none;stroke-opacity:1"
           d="m 113.74106,131.76891 c 0.90446,-0.10468 1.68587,-0.47469 2.34424,-1.11003 0.78824,-0.76068 1.18235,-1.87965 1.18235,-3.3569 0,-1.42765 -0.34726,-2.60726 -1.04179,-3.53881 -0.69454,-0.93155 -1.77216,-1.39733 -3.23288,-1.39733 -1.21819,0 -2.18557,0.41066 -2.90216,1.23197 -0.71657,0.82682 -1.07486,1.93476 -1.07486,3.32383 0,1.48828 0.37757,2.6734 1.13274,3.55534 0.63076,0.73665 1.44226,1.16565 2.4345,1.28701 l -8.7e-4,-1.31324 c -0.62257,-0.11974 -1.09479,-0.44998 -1.41666,-0.99071 -0.41341,-0.69453 -0.62012,-1.53237 -0.62012,-2.51354 0,-0.94258 0.20671,-1.72806 0.62012,-2.35644 0.41341,-0.62839 1.06936,-0.94258 1.96784,-0.94258 l 0,-4e-5 c 0.98668,0 1.66191,0.37207 2.02572,1.11621 0.36931,0.74965 0.55397,1.58199 0.55397,2.497 0,0.82683 -0.13229,1.49931 -0.39688,2.01745 -0.33244,0.64738 -0.85579,1.0379 -1.57006,1.17155 z" />
      </g>
    </g>
    <path
       id="rect4238"
       d="m 148.66277,89.491066 40.96316,0 c 1.11243,0 2.008,0.776371 2.008,1.740741 l 0,10.881613 c 0,0.96437 -0.89557,1.74074 -2.008,1.74074 l -40.96316,0 c -1.11243,0 -2.008,-0.77637 -2.008,-1.74074 l 0,-10.881613 c 0,-0.96437 0.89557,-1.740741 2.008,-1.740741 z"
       style="opacity:1;fill:#dcdcdc;fill-opacity:1;fill-rule:nonzero;stroke:#7c7c7c;stroke-width:0.26499999;stroke-linecap:butt;stroke-linejoin:miter;stroke-miterlimit:4;stroke-dasharray:none;stroke-dashoffset:0;stroke-opacity:1" />
    <g
       id="flowRoot4240"
       aria-label="RESTful API"
       style="font-style:normal;font-weight:normal;font-size:6.3499999px;line-height:125%;font-family:sans-serif;letter-spacing:-0.51593751px;word-spacing:0px;fill:#000000;fill-opacity:1;stroke:none;stroke-width:0.26458332px;stroke-linecap:butt;stroke-linejoin:miter;stroke-opacity:1"
       transform="translate(100.54167,41.275003)">
      <path
         id="path9151"
         style="font-size:6.3499999px;text-align:center;letter-spacing:0px;text-anchor:middle;stroke-width:0.26458332px"
         d="m 53.542993,54.731854 q 0.434082,0 0.68523,-0.173633 0.254248,-0.173632 0.254248,-0.626318 0,-0.486792 -0.353467,-0.663525 -0.189136,-0.09302 -0.505395,-0.09302 l -1.506885,0 0,1.556494 1.426269,0 z m -2.043286,-2.086694 2.108399,0 q 0.520898,0 0.858862,0.151929 0.641821,0.291455 0.641821,1.075903 0,0.409277 -0.170532,0.669726 -0.167432,0.26045 -0.471289,0.41858 0.26665,0.10852 0.399976,0.285253 0.136425,0.176734 0.151928,0.573609 l 0.0217,0.610815 q 0.0093,0.260449 0.04341,0.387573 0.05581,0.217042 0.198437,0.279053 l 0,0.10232 -0.756543,0 q -0.03101,-0.05891 -0.04961,-0.151929 -0.0186,-0.09302 -0.03101,-0.359668 l -0.03721,-0.759644 q -0.0217,-0.446484 -0.331763,-0.598413 -0.176733,-0.08372 -0.555005,-0.08372 l -1.404565,0 0,1.95337 -0.617017,0 0,-4.554761 z" />
      <path
         id="path9153"
         style="font-size:6.3499999px;text-align:center;letter-spacing:0px;text-anchor:middle;stroke-width:0.26458332px"
         d="m 56.073072,52.64516 3.320727,0 0,0.558105 -2.719214,0 0,1.382862 2.514575,0 0,0.527099 -2.514575,0 0,1.544092 2.765723,0 0,0.542603 -3.367236,0 0,-4.554761 z m 1.683618,0 0,0 z" />
      <path
         id="path9155"
         style="font-size:6.3499999px;text-align:center;letter-spacing:0px;text-anchor:middle;stroke-width:0.26458332px"
         d="m 60.658839,55.730243 q 0.0217,0.387573 0.182934,0.629419 0.306958,0.452685 1.082105,0.452685 0.347265,0 0.632519,-0.09922 0.551904,-0.192237 0.551904,-0.68833 0,-0.372071 -0.232544,-0.530201 -0.235644,-0.155029 -0.737939,-0.269751 l -0.617017,-0.139526 q -0.604614,-0.136426 -0.855761,-0.300757 -0.434082,-0.285254 -0.434082,-0.852661 0,-0.613916 0.42478,-1.00769 0.42478,-0.393775 1.203027,-0.393775 0.716236,0 1.21543,0.347266 0.502295,0.344165 0.502295,1.103808 l -0.57981,0 q -0.04651,-0.365869 -0.198437,-0.561206 -0.282154,-0.356567 -0.958081,-0.356567 -0.545703,0 -0.784448,0.229443 -0.238746,0.229444 -0.238746,0.533301 0,0.334863 0.279053,0.489893 0.182935,0.09922 0.827857,0.248047 l 0.63872,0.145727 q 0.461988,0.10542 0.713135,0.288355 0.434082,0.31936 0.434082,0.927075 0,0.756543 -0.551904,1.082104 -0.548804,0.325562 -1.277442,0.325562 -0.84956,0 -1.330151,-0.434082 -0.480591,-0.430982 -0.471289,-1.168921 l 0.57981,0 z m 1.246435,-3.209107 0,0 z" />
      <path
         id="path9157"
         style="font-size:6.3499999px;text-align:center;letter-spacing:0px;text-anchor:middle;stroke-width:0.26458332px"
         d="m 67.81189,52.64516 0,0.542602 -1.53479,0 0,4.012159 -0.626319,0 0,-4.012159 -1.53479,0 0,-0.542602 3.695899,0 z" />
      <path
         id="path9159"
         style="font-size:6.3499999px;text-align:center;letter-spacing:0px;text-anchor:middle;stroke-width:0.26458332px"
         d="m 68.44441,53.373798 q 0.0124,-0.347266 0.120923,-0.508497 0.195337,-0.285253 0.753442,-0.285253 0.05271,0 0.108521,0.0031 0.05581,0.0031 0.127124,0.0093 l 0,0.508496 q -0.08682,-0.0062 -0.127124,-0.0062 -0.03721,-0.0031 -0.07131,-0.0031 -0.254248,0 -0.303857,0.133325 -0.04961,0.130225 -0.04961,0.669727 l 0.551905,0 0,0.440283 -0.558106,0 0,2.864942 -0.551904,0 0,-2.864942 -0.461987,0 0,-0.440283 0.461987,0 0,-0.520898 z" />
      <path
         id="path9161"
         style="font-size:6.3499999px;text-align:center;letter-spacing:0px;text-anchor:middle;stroke-width:0.26458332px"
         d="m 70.62412,53.879193 0,2.204517 q 0,0.254248 0.08061,0.415478 0.148829,0.297656 0.555005,0.297656 0.58291,0 0.79375,-0.520898 0.114722,-0.279053 0.114722,-0.765845 l 0,-1.630908 0.558105,0 0,3.320728 -0.527099,0 0.0062,-0.489893 q -0.108521,0.189136 -0.269751,0.31936 -0.31936,0.26045 -0.775146,0.26045 -0.710035,0 -0.967383,-0.47439 Q 70.053612,56.5612 70.053612,56.13642 l 0,-2.257227 0.570508,0 z m 0.765845,-0.08062 0,0 z" />
      <path
         id="path9163"
         style="font-size:6.3499999px;text-align:center;letter-spacing:0px;text-anchor:middle;stroke-width:0.26458332px"
         d="m 73.616186,52.64516 0.558105,0 0,4.554761 -0.558105,0 0,-4.554761 z" />
      <path
         id="path9165"
         style="font-size:6.3499999px;text-align:center;letter-spacing:0px;text-anchor:middle;stroke-width:0.26458332px"
         d="m 78.840674,55.333368 -0.69143,-2.01228 -0.734839,2.01228 1.426269,0 z m -1.013891,-2.688208 0.697632,0 1.652612,4.554761 -0.675928,0 -0.461987,-1.364258 -1.80144,0 -0.492994,1.364258 -0.632519,0 1.714624,-4.554761 z m 0.31936,0 0,0 z" />
      <path
         id="path9167"
         style="font-size:6.3499999px;text-align:center;letter-spacing:0px;text-anchor:middle;stroke-width:0.26458332px"
         d="m 80.803344,52.64516 2.049487,0 q 0.607715,0 0.979785,0.344165 0.372071,0.341064 0.372071,0.961182 0,0.5333 -0.331763,0.930175 -0.331763,0.393775 -1.020093,0.393775 l -1.432471,0 0,1.925464 -0.617016,0 0,-4.554761 z m 2.778125,1.308447 q 0,-0.502295 -0.372071,-0.682129 -0.204638,-0.09612 -0.561206,-0.09612 l -1.227832,0 0,1.578198 1.227832,0 q 0.415479,0 0.672828,-0.176733 0.260449,-0.176733 0.260449,-0.623218 z" />
      <path
         id="path9169"
         style="font-size:6.3499999px;text-align:center;letter-spacing:0px;text-anchor:middle;stroke-width:0.26458332px"
         d="m 85.125561,52.64516 0.623218,0 0,4.554761 -0.623218,0 0,-4.554761 z" />
    </g>
    <path
       id="rect4267"
       d="m 23.420353,113.68153 165.317337,0 c 1.11243,0 2.008,0.77637 2.008,1.74074 l 0,33.3712 c 0,0.96437 -0.89557,1.74074 -2.008,1.74074 l -165.317337,0 c -1.112435,0 -2.008005,-0.77637 -2.008005,-1.74074 l 0,-33.3712 c 0,-0.96437 0.89557,-1.74074 2.008005,-1.74074 z"
       style="opacity:1;fill:#f5f5f5;fill-opacity:1;fill-rule:nonzero;stroke:#7c7c7c;stroke-width:0.26499999;stroke-linecap:butt;stroke-linejoin:miter;stroke-miterlimit:4;stroke-dasharray:none;stroke-dashoffset:0;stroke-opacity:1" />
    <g
       transform="translate(-4.2333333,3.7041668)"
       id="g4294">
      <path
         id="rect4271"
         d="m 35.118711,128.6494 34.159581,0 c 1.112435,0 2.008005,0.77637 2.008005,1.74074 l 0,10.88161 c 0,0.96437 -0.89557,1.74074 -2.008005,1.74074 l -34.159581,0 c -1.112434,0 -2.008005,-0.77637 -2.008005,-1.74074 l 0,-10.88161 c 0,-0.96437 0.895571,-1.74074 2.008005,-1.74074 z"
         style="opacity:1;fill:#dcdcdc;fill-opacity:1;fill-rule:nonzero;stroke:#7c7c7c;stroke-width:0.26499999;stroke-linecap:butt;stroke-linejoin:miter;stroke-miterlimit:4;stroke-dasharray:none;stroke-dashoffset:0;stroke-opacity:1" />
      <g
         id="flowRoot4273"
         aria-label="Package 1"
         style="font-style:normal;font-weight:normal;font-size:6.3499999px;line-height:125%;font-family:sans-serif;letter-spacing:-0.51593751px;word-spacing:0px;fill:#000000;fill-opacity:1;stroke:none;stroke-width:0.26458332px;stroke-linecap:butt;stroke-linejoin:miter;stroke-opacity:1"
         transform="translate(-15.875006,80.433333)">
        <path
           id="path9174"
           style="font-size:6.3499999px;text-align:center;letter-spacing:0px;text-anchor:middle;stroke-width:0.26458332px"
           d="m 54.132105,52.64516 2.049487,0 q 0.607715,0 0.979785,0.344165 0.37207,0.341064 0.37207,0.961182 0,0.5333 -0.331762,0.930175 -0.331763,0.393775 -1.020093,0.393775 l -1.432471,0 0,1.925464 -0.617016,0 0,-4.554761 z m 2.778125,1.308447 q 0,-0.502295 -0.372071,-0.682129 -0.204638,-0.09612 -0.561206,-0.09612 l -1.227832,0 0,1.578198 1.227832,0 q 0.415479,0 0.672827,-0.176733 0.26045,-0.176733 0.26045,-0.623218 z" />
        <path
           id="path9176"
           style="font-size:6.3499999px;text-align:center;letter-spacing:0px;text-anchor:middle;stroke-width:0.26458332px"
           d="m 58.668262,56.316254 q 0,0.241845 0.176733,0.381372 0.176734,0.139526 0.418579,0.139526 0.294556,0 0.570508,-0.136426 0.465088,-0.226343 0.465088,-0.74104 l 0,-0.449585 q -0.102319,0.06511 -0.26355,0.108521 -0.16123,0.04341 -0.31626,0.06201 l -0.337963,0.04341 q -0.303858,0.04031 -0.455787,0.127124 -0.257348,0.145727 -0.257348,0.465088 z m 1.351855,-1.128614 q 0.192237,-0.0248 0.257349,-0.16123 0.03721,-0.07441 0.03721,-0.213941 0,-0.285253 -0.204639,-0.412377 -0.201538,-0.130225 -0.579809,-0.130225 -0.437183,0 -0.620117,0.235644 -0.10232,0.130225 -0.133326,0.387574 l -0.520898,0 q 0.0155,-0.613916 0.396875,-0.852661 0.384473,-0.241846 0.889868,-0.241846 0.586011,0 0.95188,0.223242 0.362768,0.223242 0.362768,0.694531 l 0,1.913062 q 0,0.08682 0.03411,0.139526 0.03721,0.05271 0.151929,0.05271 0.03721,0 0.08371,-0.0031 0.04651,-0.0062 0.09922,-0.0155 l 0,0.412377 q -0.130224,0.03721 -0.198437,0.04651 -0.06821,0.0093 -0.186035,0.0093 -0.288355,0 -0.41858,-0.204639 -0.06821,-0.10852 -0.09612,-0.306958 -0.170532,0.223243 -0.489892,0.387574 -0.319361,0.164331 -0.703833,0.164331 -0.461988,0 -0.756543,-0.279053 -0.291455,-0.282153 -0.291455,-0.703833 0,-0.461987 0.288354,-0.716235 0.288355,-0.254248 0.756543,-0.31316 l 0.889868,-0.111621 z m -0.461987,-1.389062 0,0 z" />
        <path
           id="path9178"
           style="font-size:6.3499999px;text-align:center;letter-spacing:0px;text-anchor:middle;stroke-width:0.26458332px"
           d="m 63.055591,53.783075 q 0.561206,0 0.911572,0.272851 0.353467,0.272852 0.42478,0.939478 l -0.542602,0 q -0.04961,-0.306958 -0.226343,-0.508496 -0.176733,-0.204639 -0.567407,-0.204639 -0.533301,0 -0.762744,0.520899 -0.148828,0.337964 -0.148828,0.834057 0,0.499195 0.21084,0.840259 0.210839,0.341064 0.663525,0.341064 0.347266,0 0.548804,-0.210839 0.204638,-0.213941 0.282153,-0.58291 l 0.542602,0 q -0.09302,0.660424 -0.465087,0.967382 -0.372071,0.303858 -0.95188,0.303858 -0.651123,0 -1.038697,-0.47439 -0.387573,-0.47749 -0.387573,-1.190625 0,-0.874365 0.42478,-1.361157 0.424781,-0.486792 1.082105,-0.486792 z m -0.08682,0.0155 0,0 z" />
        <path
           id="path9180"
           style="font-size:6.3499999px;text-align:center;letter-spacing:0px;text-anchor:middle;stroke-width:0.26458332px"
           d="m 64.937646,52.64516 0.536402,0 0,2.6448 1.43247,-1.410767 0.713135,0 -1.27124,1.243335 1.342554,2.077393 -0.713135,0 -1.035596,-1.674317 -0.468188,0.427881 0,1.246436 -0.536402,0 0,-4.554761 z" />
        <path
           id="path9182"
           style="font-size:6.3499999px;text-align:center;letter-spacing:0px;text-anchor:middle;stroke-width:0.26458332px"
           d="m 68.55293,56.316254 q 0,0.241845 0.176733,0.381372 0.176734,0.139526 0.418579,0.139526 0.294556,0 0.570508,-0.136426 0.465088,-0.226343 0.465088,-0.74104 l 0,-0.449585 q -0.102319,0.06511 -0.26355,0.108521 -0.16123,0.04341 -0.31626,0.06201 l -0.337964,0.04341 q -0.303857,0.04031 -0.455786,0.127124 -0.257348,0.145727 -0.257348,0.465088 z m 1.351855,-1.128614 q 0.192236,-0.0248 0.257349,-0.16123 0.03721,-0.07441 0.03721,-0.213941 0,-0.285253 -0.204639,-0.412377 -0.201538,-0.130225 -0.579809,-0.130225 -0.437183,0 -0.620118,0.235644 -0.102319,0.130225 -0.133325,0.387574 l -0.520898,0 q 0.0155,-0.613916 0.396875,-0.852661 0.384472,-0.241846 0.889868,-0.241846 0.586011,0 0.95188,0.223242 0.362768,0.223242 0.362768,0.694531 l 0,1.913062 q 0,0.08682 0.03411,0.139526 0.03721,0.05271 0.151929,0.05271 0.03721,0 0.08372,-0.0031 0.04651,-0.0062 0.09922,-0.0155 l 0,0.412377 q -0.130225,0.03721 -0.198437,0.04651 -0.06821,0.0093 -0.186036,0.0093 -0.288354,0 -0.418579,-0.204639 -0.06821,-0.10852 -0.09612,-0.306958 -0.170532,0.223243 -0.489892,0.387574 -0.319361,0.164331 -0.703833,0.164331 -0.461988,0 -0.756543,-0.279053 -0.291455,-0.282153 -0.291455,-0.703833 0,-0.461987 0.288354,-0.716235 0.288355,-0.254248 0.756543,-0.31316 l 0.889868,-0.111621 z m -0.461987,-1.389062 0,0 z" />
        <path
           id="path9184"
           style="font-size:6.3499999px;text-align:center;letter-spacing:0px;text-anchor:middle;stroke-width:0.26458332px"
           d="m 72.831739,53.820282 q 0.390674,0 0.682129,0.192236 0.15813,0.108521 0.322461,0.31626 l 0,-0.418579 0.514697,0 0,3.019971 q 0,0.632519 -0.186035,0.998388 -0.347265,0.675928 -1.311548,0.675928 -0.536401,0 -0.90227,-0.241846 -0.365869,-0.238745 -0.409277,-0.750342 l 0.567407,0 q 0.04031,0.223243 0.16123,0.344166 0.189136,0.186035 0.595313,0.186035 0.641821,0 0.840258,-0.452686 0.117823,-0.26665 0.108521,-0.95188 -0.167432,0.254248 -0.403076,0.378272 -0.235645,0.124023 -0.623218,0.124023 -0.539502,0 -0.945679,-0.381372 -0.403076,-0.384473 -0.403076,-1.26814 0,-0.834057 0.406177,-1.302246 0.409277,-0.468188 0.985986,-0.468188 z m 1.00459,1.705322 q 0,-0.617016 -0.254248,-0.914673 -0.254248,-0.297656 -0.648022,-0.297656 -0.589112,0 -0.806153,0.551904 -0.114721,0.294556 -0.114721,0.772046 0,0.561206 0.226342,0.855762 0.229444,0.291455 0.613916,0.291455 0.601514,0 0.84646,-0.542602 0.136426,-0.306958 0.136426,-0.716236 z m -0.939477,-1.727026 0,0 z" />
        <path
           id="path9186"
           style="font-size:6.3499999px;text-align:center;letter-spacing:0px;text-anchor:middle;stroke-width:0.26458332px"
           d="m 76.577247,53.804779 q 0.353467,0 0.68523,0.167432 0.331762,0.164331 0.505395,0.427881 0.167432,0.251147 0.223242,0.58601 0.04961,0.229444 0.04961,0.731739 l -2.43396,0 q 0.0155,0.505395 0.238745,0.812353 0.223242,0.303857 0.69143,0.303857 0.437183,0 0.697632,-0.288354 0.148828,-0.167432 0.21084,-0.387573 l 0.548804,0 q -0.0217,0.182934 -0.145728,0.409277 -0.120923,0.223242 -0.272851,0.365869 -0.254248,0.248047 -0.629419,0.334863 -0.201538,0.04961 -0.455786,0.04961 -0.620118,0 -1.051099,-0.449585 -0.430981,-0.452686 -0.430981,-1.265039 0,-0.799951 0.434082,-1.299146 0.434082,-0.499194 1.134814,-0.499194 z m 0.889868,1.469678 q -0.03411,-0.362769 -0.15813,-0.57981 -0.229443,-0.403076 -0.765844,-0.403076 -0.384473,0 -0.644922,0.279053 -0.260449,0.275952 -0.275952,0.703833 l 1.844848,0 z m -0.942578,-1.475879 0,0 z" />
        <path
           id="path9188"
           style="font-size:6.3499999px;text-align:center;letter-spacing:0px;text-anchor:middle;stroke-width:0.26458332px"
           d="m 80.688623,54.055926 0,-0.42788 q 0.604614,-0.05891 0.843359,-0.195337 0.238745,-0.139527 0.356567,-0.654224 l 0.440283,0 0,4.421436 -0.595312,0 0,-3.143995 -1.044897,0 z" />
      </g>
    </g>
    <g
       id="flowRoot4286"
       aria-label="Packages"
       style="font-style:normal;font-weight:normal;font-size:6.3499999px;line-height:125%;font-family:sans-serif;text-align:start;letter-spacing:-0.51593751px;word-spacing:0px;text-anchor:start;fill:#000000;fill-opacity:1;stroke:none;stroke-width:0.26458332px;stroke-linecap:butt;stroke-linejoin:miter;stroke-opacity:1"
       transform="translate(-17.462513,64.029165)">
      <path
         id="path9191"
         style="font-size:6.3499999px;text-align:start;letter-spacing:0px;text-anchor:start;stroke-width:0.26458332px"
         d="m 43.25354,52.64516 2.049487,0 q 0.607715,0 0.979785,0.344165 0.372071,0.341064 0.372071,0.961182 0,0.5333 -0.331763,0.930175 -0.331763,0.393775 -1.020093,0.393775 l -1.43247,0 0,1.925464 -0.617017,0 0,-4.554761 z m 2.778125,1.308447 q 0,-0.502295 -0.37207,-0.682129 -0.204639,-0.09612 -0.561206,-0.09612 l -1.227832,0 0,1.578198 1.227832,0 q 0.415478,0 0.672827,-0.176733 0.260449,-0.176733 0.260449,-0.623218 z" />
      <path
         id="path9193"
         style="font-size:6.3499999px;text-align:start;letter-spacing:0px;text-anchor:start;stroke-width:0.26458332px"
         d="m 47.789697,56.316254 q 0,0.241845 0.176734,0.381372 0.176733,0.139526 0.418579,0.139526 0.294555,0 0.570507,-0.136426 0.465088,-0.226343 0.465088,-0.74104 l 0,-0.449585 q -0.102319,0.06511 -0.263549,0.108521 -0.161231,0.04341 -0.31626,0.06201 l -0.337964,0.04341 q -0.303858,0.04031 -0.455786,0.127124 -0.257349,0.145727 -0.257349,0.465088 z m 1.351856,-1.128614 q 0.192236,-0.0248 0.257348,-0.16123 0.03721,-0.07441 0.03721,-0.213941 0,-0.285253 -0.204638,-0.412377 -0.201538,-0.130225 -0.57981,-0.130225 -0.437183,0 -0.620117,0.235644 -0.102319,0.130225 -0.133325,0.387574 l -0.520899,0 q 0.0155,-0.613916 0.396875,-0.852661 0.384473,-0.241846 0.889868,-0.241846 0.586011,0 0.95188,0.223242 0.362769,0.223242 0.362769,0.694531 l 0,1.913062 q 0,0.08682 0.03411,0.139526 0.03721,0.05271 0.151929,0.05271 0.03721,0 0.08372,-0.0031 0.04651,-0.0062 0.09922,-0.0155 l 0,0.412377 q -0.130225,0.03721 -0.198438,0.04651 -0.06821,0.0093 -0.186035,0.0093 -0.288355,0 -0.418579,-0.204639 -0.06821,-0.10852 -0.09612,-0.306958 -0.170533,0.223243 -0.489893,0.387574 -0.31936,0.164331 -0.703833,0.164331 -0.461987,0 -0.756543,-0.279053 -0.291455,-0.282153 -0.291455,-0.703833 0,-0.461987 0.288354,-0.716235 0.288355,-0.254248 0.756543,-0.31316 l 0.889869,-0.111621 z m -0.461988,-1.389062 0,0 z" />
      <path
         id="path9195"
         style="font-size:6.3499999px;text-align:start;letter-spacing:0px;text-anchor:start;stroke-width:0.26458332px"
         d="m 52.177026,53.783075 q 0.561206,0 0.911572,0.272851 0.353467,0.272852 0.424781,0.939478 l -0.542603,0 q -0.04961,-0.306958 -0.226343,-0.508496 -0.176733,-0.204639 -0.567407,-0.204639 -0.533301,0 -0.762744,0.520899 -0.148828,0.337964 -0.148828,0.834057 0,0.499195 0.21084,0.840259 0.21084,0.341064 0.663525,0.341064 0.347266,0 0.548804,-0.210839 0.204639,-0.213941 0.282153,-0.58291 l 0.542603,0 q -0.09302,0.660424 -0.465088,0.967382 -0.37207,0.303858 -0.95188,0.303858 -0.651123,0 -1.038696,-0.47439 -0.387573,-0.47749 -0.387573,-1.190625 0,-0.874365 0.42478,-1.361157 0.42478,-0.486792 1.082104,-0.486792 z m -0.08682,0.0155 0,0 z" />
      <path
         id="path9197"
         style="font-size:6.3499999px;text-align:start;letter-spacing:0px;text-anchor:start;stroke-width:0.26458332px"
         d="m 54.059082,52.64516 0.536401,0 0,2.6448 1.432471,-1.410767 0.713134,0 -1.27124,1.243335 1.342554,2.077393 -0.713135,0 -1.035596,-1.674317 -0.468188,0.427881 0,1.246436 -0.536401,0 0,-4.554761 z" />
      <path
         id="path9199"
         style="font-size:6.3499999px;text-align:start;letter-spacing:0px;text-anchor:start;stroke-width:0.26458332px"
         d="m 57.674365,56.316254 q 0,0.241845 0.176733,0.381372 0.176734,0.139526 0.41858,0.139526 0.294555,0 0.570507,-0.136426 0.465088,-0.226343 0.465088,-0.74104 l 0,-0.449585 q -0.102319,0.06511 -0.26355,0.108521 -0.16123,0.04341 -0.316259,0.06201 l -0.337964,0.04341 q -0.303858,0.04031 -0.455786,0.127124 -0.257349,0.145727 -0.257349,0.465088 z M 59.02622,55.18764 q 0.192237,-0.0248 0.257349,-0.16123 0.03721,-0.07441 0.03721,-0.213941 0,-0.285253 -0.204639,-0.412377 -0.201538,-0.130225 -0.579809,-0.130225 -0.437183,0 -0.620117,0.235644 -0.10232,0.130225 -0.133325,0.387574 l -0.520899,0 q 0.0155,-0.613916 0.396875,-0.852661 0.384473,-0.241846 0.889868,-0.241846 0.586011,0 0.95188,0.223242 0.362769,0.223242 0.362769,0.694531 l 0,1.913062 q 0,0.08682 0.03411,0.139526 0.03721,0.05271 0.151929,0.05271 0.03721,0 0.08372,-0.0031 0.04651,-0.0062 0.09922,-0.0155 l 0,0.412377 q -0.130224,0.03721 -0.198437,0.04651 -0.06821,0.0093 -0.186035,0.0093 -0.288355,0 -0.418579,-0.204639 -0.06821,-0.10852 -0.09612,-0.306958 -0.170532,0.223243 -0.489892,0.387574 -0.31936,0.164331 -0.703833,0.164331 -0.461987,0 -0.756543,-0.279053 -0.291455,-0.282153 -0.291455,-0.703833 0,-0.461987 0.288354,-0.716235 0.288355,-0.254248 0.756543,-0.31316 L 59.02622,55.18764 Z m -0.461987,-1.389062 0,0 z" />
      <path
         id="path9201"
         style="font-size:6.3499999px;text-align:start;letter-spacing:0px;text-anchor:start;stroke-width:0.26458332px"
         d="m 61.953175,53.820282 q 0.390673,0 0.682128,0.192236 0.15813,0.108521 0.322461,0.31626 l 0,-0.418579 0.514698,0 0,3.019971 q 0,0.632519 -0.186035,0.998388 -0.347266,0.675928 -1.311548,0.675928 -0.536402,0 -0.902271,-0.241846 -0.365869,-0.238745 -0.409277,-0.750342 l 0.567407,0 q 0.04031,0.223243 0.161231,0.344166 0.189135,0.186035 0.595312,0.186035 0.641821,0 0.840259,-0.452686 0.117822,-0.26665 0.10852,-0.95188 -0.167431,0.254248 -0.403076,0.378272 -0.235644,0.124023 -0.623218,0.124023 -0.539502,0 -0.945678,-0.381372 -0.403076,-0.384473 -0.403076,-1.26814 0,-0.834057 0.406176,-1.302246 0.409278,-0.468188 0.985987,-0.468188 z m 1.004589,1.705322 q 0,-0.617016 -0.254248,-0.914673 -0.254248,-0.297656 -0.648022,-0.297656 -0.589111,0 -0.806152,0.551904 -0.114722,0.294556 -0.114722,0.772046 0,0.561206 0.226343,0.855762 0.229443,0.291455 0.613916,0.291455 0.601513,0 0.84646,-0.542602 0.136425,-0.306958 0.136425,-0.716236 z m -0.939477,-1.727026 0,0 z" />
      <path
         id="path9203"
         style="font-size:6.3499999px;text-align:start;letter-spacing:0px;text-anchor:start;stroke-width:0.26458332px"
         d="m 65.698682,53.804779 q 0.353467,0 0.68523,0.167432 0.331763,0.164331 0.505395,0.427881 0.167432,0.251147 0.223243,0.58601 0.04961,0.229444 0.04961,0.731739 l -2.43396,0 q 0.0155,0.505395 0.238745,0.812353 0.223242,0.303857 0.691431,0.303857 0.437182,0 0.697632,-0.288354 0.148828,-0.167432 0.210839,-0.387573 l 0.548804,0 q -0.0217,0.182934 -0.145727,0.409277 -0.120923,0.223242 -0.272852,0.365869 -0.254248,0.248047 -0.629419,0.334863 -0.201538,0.04961 -0.455786,0.04961 -0.620117,0 -1.051099,-0.449585 -0.430981,-0.452686 -0.430981,-1.265039 0,-0.799951 0.434082,-1.299146 0.434082,-0.499194 1.134814,-0.499194 z m 0.889869,1.469678 q -0.03411,-0.362769 -0.15813,-0.57981 -0.229444,-0.403076 -0.765845,-0.403076 -0.384473,0 -0.644922,0.279053 -0.260449,0.275952 -0.275952,0.703833 l 1.844849,0 z m -0.942579,-1.475879 0,0 z" />
      <path
         id="path9205"
         style="font-size:6.3499999px;text-align:start;letter-spacing:0px;text-anchor:start;stroke-width:0.26458332px"
         d="m 68.182252,56.158124 q 0.0248,0.279052 0.139526,0.427881 0.21084,0.269751 0.731738,0.269751 0.310059,0 0.545703,-0.133326 0.235645,-0.136425 0.235645,-0.418579 0,-0.21394 -0.189136,-0.325561 -0.120923,-0.06821 -0.47749,-0.15813 l -0.443384,-0.111621 q -0.42478,-0.10542 -0.626318,-0.235645 -0.359668,-0.226343 -0.359668,-0.626318 0,-0.471289 0.337964,-0.762744 0.341064,-0.291455 0.914673,-0.291455 0.750341,0 1.082104,0.440283 0.207739,0.279053 0.201538,0.601514 l -0.527099,0 q -0.0155,-0.189136 -0.133326,-0.344166 -0.192236,-0.220141 -0.666626,-0.220141 -0.316259,0 -0.48059,0.120923 -0.161231,0.120923 -0.161231,0.31936 0,0.217041 0.213941,0.347266 0.124023,0.07751 0.365869,0.136425 l 0.368969,0.08992 q 0.601514,0.145728 0.806153,0.282154 0.325561,0.21394 0.325561,0.672827 0,0.443384 -0.337964,0.765845 -0.334863,0.322461 -1.023193,0.322461 -0.74104,0 -1.051099,-0.334864 -0.306958,-0.337964 -0.328662,-0.834057 l 0.536402,0 z m 0.824756,-2.359546 0,0 z" />
    </g>
    <g
       id="g4301"
       transform="translate(43.391669,3.7041668)">
      <path
         id="rect4303"
         d="m 35.118711,128.6494 34.159581,0 c 1.112435,0 2.008005,0.77637 2.008005,1.74074 l 0,10.88161 c 0,0.96437 -0.89557,1.74074 -2.008005,1.74074 l -34.159581,0 c -1.112434,0 -2.008005,-0.77637 -2.008005,-1.74074 l 0,-10.88161 c 0,-0.96437 0.895571,-1.74074 2.008005,-1.74074 z"
         style="opacity:1;fill:#dcdcdc;fill-opacity:1;fill-rule:nonzero;stroke:#7c7c7c;stroke-width:0.26499999;stroke-linecap:butt;stroke-linejoin:miter;stroke-miterlimit:4;stroke-dasharray:none;stroke-dashoffset:0;stroke-opacity:1" />
      <g
         id="flowRoot4305"
         aria-label="Package 2"
         style="font-style:normal;font-weight:normal;font-size:6.3499999px;line-height:125%;font-family:sans-serif;letter-spacing:-0.51593751px;word-spacing:0px;fill:#000000;fill-opacity:1;stroke:none;stroke-width:0.26458332px;stroke-linecap:butt;stroke-linejoin:miter;stroke-opacity:1"
         transform="translate(-15.875006,80.433333)">
        <path
           id="path9209"
           style="font-size:6.3499999px;text-align:center;letter-spacing:0px;text-anchor:middle;stroke-width:0.26458332px"
           d="m 54.132105,52.64516 2.049487,0 q 0.607715,0 0.979785,0.344165 0.37207,0.341064 0.37207,0.961182 0,0.5333 -0.331762,0.930175 -0.331763,0.393775 -1.020093,0.393775 l -1.432471,0 0,1.925464 -0.617016,0 0,-4.554761 z m 2.778125,1.308447 q 0,-0.502295 -0.372071,-0.682129 -0.204638,-0.09612 -0.561206,-0.09612 l -1.227832,0 0,1.578198 1.227832,0 q 0.415479,0 0.672827,-0.176733 0.26045,-0.176733 0.26045,-0.623218 z" />
        <path
           id="path9211"
           style="font-size:6.3499999px;text-align:center;letter-spacing:0px;text-anchor:middle;stroke-width:0.26458332px"
           d="m 58.668262,56.316254 q 0,0.241845 0.176733,0.381372 0.176734,0.139526 0.418579,0.139526 0.294556,0 0.570508,-0.136426 0.465088,-0.226343 0.465088,-0.74104 l 0,-0.449585 q -0.102319,0.06511 -0.26355,0.108521 -0.16123,0.04341 -0.31626,0.06201 l -0.337963,0.04341 q -0.303858,0.04031 -0.455787,0.127124 -0.257348,0.145727 -0.257348,0.465088 z m 1.351855,-1.128614 q 0.192237,-0.0248 0.257349,-0.16123 0.03721,-0.07441 0.03721,-0.213941 0,-0.285253 -0.204639,-0.412377 -0.201538,-0.130225 -0.579809,-0.130225 -0.437183,0 -0.620117,0.235644 -0.10232,0.130225 -0.133326,0.387574 l -0.520898,0 q 0.0155,-0.613916 0.396875,-0.852661 0.384473,-0.241846 0.889868,-0.241846 0.586011,0 0.95188,0.223242 0.362768,0.223242 0.362768,0.694531 l 0,1.913062 q 0,0.08682 0.03411,0.139526 0.03721,0.05271 0.151929,0.05271 0.03721,0 0.08371,-0.0031 0.04651,-0.0062 0.09922,-0.0155 l 0,0.412377 q -0.130224,0.03721 -0.198437,0.04651 -0.06821,0.0093 -0.186035,0.0093 -0.288355,0 -0.41858,-0.204639 -0.06821,-0.10852 -0.09612,-0.306958 -0.170532,0.223243 -0.489892,0.387574 -0.319361,0.164331 -0.703833,0.164331 -0.461988,0 -0.756543,-0.279053 -0.291455,-0.282153 -0.291455,-0.703833 0,-0.461987 0.288354,-0.716235 0.288355,-0.254248 0.756543,-0.31316 l 0.889868,-0.111621 z m -0.461987,-1.389062 0,0 z" />
        <path
           id="path9213"
           style="font-size:6.3499999px;text-align:center;letter-spacing:0px;text-anchor:middle;stroke-width:0.26458332px"
           d="m 63.055591,53.783075 q 0.561206,0 0.911572,0.272851 0.353467,0.272852 0.42478,0.939478 l -0.542602,0 q -0.04961,-0.306958 -0.226343,-0.508496 -0.176733,-0.204639 -0.567407,-0.204639 -0.533301,0 -0.762744,0.520899 -0.148828,0.337964 -0.148828,0.834057 0,0.499195 0.21084,0.840259 0.210839,0.341064 0.663525,0.341064 0.347266,0 0.548804,-0.210839 0.204638,-0.213941 0.282153,-0.58291 l 0.542602,0 q -0.09302,0.660424 -0.465087,0.967382 -0.372071,0.303858 -0.95188,0.303858 -0.651123,0 -1.038697,-0.47439 -0.387573,-0.47749 -0.387573,-1.190625 0,-0.874365 0.42478,-1.361157 0.424781,-0.486792 1.082105,-0.486792 z m -0.08682,0.0155 0,0 z" />
        <path
           id="path9215"
           style="font-size:6.3499999px;text-align:center;letter-spacing:0px;text-anchor:middle;stroke-width:0.26458332px"
           d="m 64.937646,52.64516 0.536402,0 0,2.6448 1.43247,-1.410767 0.713135,0 -1.27124,1.243335 1.342554,2.077393 -0.713135,0 -1.035596,-1.674317 -0.468188,0.427881 0,1.246436 -0.536402,0 0,-4.554761 z" />
        <path
           id="path9217"
           style="font-size:6.3499999px;text-align:center;letter-spacing:0px;text-anchor:middle;stroke-width:0.26458332px"
           d="m 68.55293,56.316254 q 0,0.241845 0.176733,0.381372 0.176734,0.139526 0.418579,0.139526 0.294556,0 0.570508,-0.136426 0.465088,-0.226343 0.465088,-0.74104 l 0,-0.449585 q -0.102319,0.06511 -0.26355,0.108521 -0.16123,0.04341 -0.31626,0.06201 l -0.337964,0.04341 q -0.303857,0.04031 -0.455786,0.127124 -0.257348,0.145727 -0.257348,0.465088 z m 1.351855,-1.128614 q 0.192236,-0.0248 0.257349,-0.16123 0.03721,-0.07441 0.03721,-0.213941 0,-0.285253 -0.204639,-0.412377 -0.201538,-0.130225 -0.579809,-0.130225 -0.437183,0 -0.620118,0.235644 -0.102319,0.130225 -0.133325,0.387574 l -0.520898,0 q 0.0155,-0.613916 0.396875,-0.852661 0.384472,-0.241846 0.889868,-0.241846 0.586011,0 0.95188,0.223242 0.362768,0.223242 0.362768,0.694531 l 0,1.913062 q 0,0.08682 0.03411,0.139526 0.03721,0.05271 0.151929,0.05271 0.03721,0 0.08372,-0.0031 0.04651,-0.0062 0.09922,-0.0155 l 0,0.412377 q -0.130225,0.03721 -0.198437,0.04651 -0.06821,0.0093 -0.186036,0.0093 -0.288354,0 -0.418579,-0.204639 -0.06821,-0.10852 -0.09612,-0.306958 -0.170532,0.223243 -0.489892,0.387574 -0.319361,0.164331 -0.703833,0.164331 -0.461988,0 -0.756543,-0.279053 -0.291455,-0.282153 -0.291455,-0.703833 0,-0.461987 0.288354,-0.716235 0.288355,-0.254248 0.756543,-0.31316 l 0.889868,-0.111621 z m -0.461987,-1.389062 0,0 z" />
        <path
           id="path9219"
           style="font-size:6.3499999px;text-align:center;letter-spacing:0px;text-anchor:middle;stroke-width:0.26458332px"
           d="m 72.831739,53.820282 q 0.390674,0 0.682129,0.192236 0.15813,0.108521 0.322461,0.31626 l 0,-0.418579 0.514697,0 0,3.019971 q 0,0.632519 -0.186035,0.998388 -0.347265,0.675928 -1.311548,0.675928 -0.536401,0 -0.90227,-0.241846 -0.365869,-0.238745 -0.409277,-0.750342 l 0.567407,0 q 0.04031,0.223243 0.16123,0.344166 0.189136,0.186035 0.595313,0.186035 0.641821,0 0.840258,-0.452686 0.117823,-0.26665 0.108521,-0.95188 -0.167432,0.254248 -0.403076,0.378272 -0.235645,0.124023 -0.623218,0.124023 -0.539502,0 -0.945679,-0.381372 -0.403076,-0.384473 -0.403076,-1.26814 0,-0.834057 0.406177,-1.302246 0.409277,-0.468188 0.985986,-0.468188 z m 1.00459,1.705322 q 0,-0.617016 -0.254248,-0.914673 -0.254248,-0.297656 -0.648022,-0.297656 -0.589112,0 -0.806153,0.551904 -0.114721,0.294556 -0.114721,0.772046 0,0.561206 0.226342,0.855762 0.229444,0.291455 0.613916,0.291455 0.601514,0 0.84646,-0.542602 0.136426,-0.306958 0.136426,-0.716236 z m -0.939477,-1.727026 0,0 z" />
        <path
           id="path9221"
           style="font-size:6.3499999px;text-align:center;letter-spacing:0px;text-anchor:middle;stroke-width:0.26458332px"
           d="m 76.577247,53.804779 q 0.353467,0 0.68523,0.167432 0.331762,0.164331 0.505395,0.427881 0.167432,0.251147 0.223242,0.58601 0.04961,0.229444 0.04961,0.731739 l -2.43396,0 q 0.0155,0.505395 0.238745,0.812353 0.223242,0.303857 0.69143,0.303857 0.437183,0 0.697632,-0.288354 0.148828,-0.167432 0.21084,-0.387573 l 0.548804,0 q -0.0217,0.182934 -0.145728,0.409277 -0.120923,0.223242 -0.272851,0.365869 -0.254248,0.248047 -0.629419,0.334863 -0.201538,0.04961 -0.455786,0.04961 -0.620118,0 -1.051099,-0.449585 -0.430981,-0.452686 -0.430981,-1.265039 0,-0.799951 0.434082,-1.299146 0.434082,-0.499194 1.134814,-0.499194 z m 0.889868,1.469678 q -0.03411,-0.362769 -0.15813,-0.57981 -0.229443,-0.403076 -0.765844,-0.403076 -0.384473,0 -0.644922,0.279053 -0.260449,0.275952 -0.275952,0.703833 l 1.844848,0 z m -0.942578,-1.475879 0,0 z" />
        <path
           id="path9223"
           style="font-size:6.3499999px;text-align:center;letter-spacing:0px;text-anchor:middle;stroke-width:0.26458332px"
           d="m 80.279345,57.199921 q 0.03101,-0.573609 0.235645,-0.998389 0.207739,-0.42478 0.806152,-0.772046 l 0.595313,-0.344165 q 0.399975,-0.232544 0.561206,-0.396875 0.254248,-0.257349 0.254248,-0.589111 0,-0.387574 -0.232544,-0.613916 -0.232544,-0.229444 -0.620118,-0.229444 -0.573608,0 -0.79375,0.434082 -0.117822,0.232544 -0.130224,0.644922 l -0.567407,0 q 0.0093,-0.579809 0.21394,-0.945678 0.362769,-0.644922 1.280542,-0.644922 0.762744,0 1.11311,0.412378 0.353467,0.412377 0.353467,0.917773 0,0.533301 -0.375171,0.911572 -0.217041,0.220142 -0.778247,0.533301 l -0.42478,0.235645 q -0.303857,0.167431 -0.47749,0.31936 -0.310059,0.269751 -0.390674,0.598413 l 2.424658,0 0,0.5271 -3.047876,0 z" />
      </g>
    </g>
    <g
       id="g6405">
      <path
         id="rect6399"
         d="m 105.92226,111.74881 c 0.72183,0 1.30294,0.77637 1.30294,1.74074 l 0,0.6779 c 0,0.96437 -0.58111,1.74074 -1.30294,1.74074 -0.72183,0 -1.30294,-0.77637 -1.30294,-1.74074 l 0,-0.6779 c 0,-0.96437 0.58111,-1.74074 1.30294,-1.74074 z"
         style="opacity:1;fill:#f5f5f5;fill-opacity:1;fill-rule:nonzero;stroke:none;stroke-width:0.44999996;stroke-linecap:butt;stroke-linejoin:miter;stroke-miterlimit:4;stroke-dasharray:2.69999982, 2.69999982;stroke-dashoffset:0;stroke-opacity:1" />
      <path
         id="rect6401"
         d="m 113.01858,111.74881 c 0.72182,0 1.30294,0.77637 1.30294,1.74074 l 0,0.6779 c 0,0.96437 -0.58112,1.74074 -1.30294,1.74074 -0.72183,0 -1.30294,-0.77637 -1.30294,-1.74074 l 0,-0.6779 c 0,-0.96437 0.58111,-1.74074 1.30294,-1.74074 z"
         style="opacity:1;fill:#f5f5f5;fill-opacity:1;fill-rule:nonzero;stroke:none;stroke-width:0.44999996;stroke-linecap:butt;stroke-linejoin:miter;stroke-miterlimit:4;stroke-dasharray:2.69999982, 2.69999982;stroke-dashoffset:0;stroke-opacity:1" />
      <path
         id="rect6403"
         d="m 98.46382,111.74881 c 0.721828,0 1.302939,0.77637 1.302939,1.74074 l 0,0.6779 c 0,0.96437 -0.581111,1.74074 -1.302939,1.74074 -0.721828,0 -1.302939,-0.77637 -1.302939,-1.74074 l 0,-0.6779 c 0,-0.96437 0.581111,-1.74074 1.302939,-1.74074 z"
         style="opacity:1;fill:#f5f5f5;fill-opacity:1;fill-rule:nonzero;stroke:none;stroke-width:0.44999996;stroke-linecap:butt;stroke-linejoin:miter;stroke-miterlimit:4;stroke-dasharray:2.69999982, 2.69999982;stroke-dashoffset:0;stroke-opacity:1" />
    </g>
    <g
       transform="translate(112.18335)"
       id="g4313">
      <path
         id="rect4315"
         d="m 35.118711,132.35352 34.159581,0 c 1.112435,0 2.008005,0.77637 2.008005,1.74074 l 0,10.88161 c 0,0.96437 -0.89557,1.74074 -2.008005,1.74074 l -34.159581,0 c -1.112434,0 -2.008005,-0.77637 -2.008005,-1.74074 l 0,-10.88161 c 0,-0.96437 0.895571,-1.74074 2.008005,-1.74074 z"
         style="opacity:1;fill:#dcdcdc;fill-opacity:1;fill-rule:nonzero;stroke:#7c7c7c;stroke-width:0.26499999;stroke-linecap:butt;stroke-linejoin:miter;stroke-miterlimit:4;stroke-dasharray:none;stroke-dashoffset:0;stroke-opacity:1" />
      <g
         id="flowRoot4317"
         aria-label="Package N"
         style="font-style:normal;font-weight:normal;font-size:6.3499999px;line-height:125%;font-family:sans-serif;letter-spacing:-0.51593751px;word-spacing:0px;fill:#000000;fill-opacity:1;stroke:none;stroke-width:0.26458332px;stroke-linecap:butt;stroke-linejoin:miter;stroke-opacity:1"
         transform="translate(-15.875006,84.137502)">
        <path
           id="path9230"
           style="font-size:6.3499999px;text-align:center;letter-spacing:0px;text-anchor:middle;stroke-width:0.26458332px"
           d="m 53.605005,52.64516 2.049487,0 q 0.607715,0 0.979786,0.344165 0.37207,0.341064 0.37207,0.961182 0,0.5333 -0.331763,0.930175 -0.331763,0.393775 -1.020093,0.393775 l -1.43247,0 0,1.925464 -0.617017,0 0,-4.554761 z m 2.778125,1.308447 q 0,-0.502295 -0.37207,-0.682129 -0.204639,-0.09612 -0.561206,-0.09612 l -1.227832,0 0,1.578198 1.227832,0 q 0.415478,0 0.672827,-0.176733 0.260449,-0.176733 0.260449,-0.623218 z" />
        <path
           id="path9232"
           style="font-size:6.3499999px;text-align:center;letter-spacing:0px;text-anchor:middle;stroke-width:0.26458332px"
           d="m 58.141162,56.316254 q 0,0.241845 0.176734,0.381372 0.176733,0.139526 0.418579,0.139526 0.294555,0 0.570508,-0.136426 0.465087,-0.226343 0.465087,-0.74104 l 0,-0.449585 q -0.102319,0.06511 -0.263549,0.108521 -0.161231,0.04341 -0.31626,0.06201 l -0.337964,0.04341 q -0.303857,0.04031 -0.455786,0.127124 -0.257349,0.145727 -0.257349,0.465088 z m 1.351856,-1.128614 q 0.192236,-0.0248 0.257348,-0.16123 0.03721,-0.07441 0.03721,-0.213941 0,-0.285253 -0.204638,-0.412377 -0.201538,-0.130225 -0.57981,-0.130225 -0.437182,0 -0.620117,0.235644 -0.102319,0.130225 -0.133325,0.387574 l -0.520899,0 q 0.0155,-0.613916 0.396875,-0.852661 0.384473,-0.241846 0.889868,-0.241846 0.586011,0 0.95188,0.223242 0.362769,0.223242 0.362769,0.694531 l 0,1.913062 q 0,0.08682 0.03411,0.139526 0.03721,0.05271 0.151929,0.05271 0.03721,0 0.08372,-0.0031 0.04651,-0.0062 0.09922,-0.0155 l 0,0.412377 q -0.130225,0.03721 -0.198438,0.04651 -0.06821,0.0093 -0.186035,0.0093 -0.288355,0 -0.418579,-0.204639 -0.06821,-0.10852 -0.09612,-0.306958 -0.170533,0.223243 -0.489893,0.387574 -0.31936,0.164331 -0.703833,0.164331 -0.461987,0 -0.756543,-0.279053 -0.291455,-0.282153 -0.291455,-0.703833 0,-0.461987 0.288355,-0.716235 0.288354,-0.254248 0.756543,-0.31316 l 0.889868,-0.111621 z m -0.461988,-1.389062 0,0 z" />
        <path
           id="path9234"
           style="font-size:6.3499999px;text-align:center;letter-spacing:0px;text-anchor:middle;stroke-width:0.26458332px"
           d="m 62.528491,53.783075 q 0.561206,0 0.911573,0.272851 0.353466,0.272852 0.42478,0.939478 l -0.542603,0 q -0.04961,-0.306958 -0.226342,-0.508496 -0.176734,-0.204639 -0.567408,-0.204639 -0.5333,0 -0.762744,0.520899 -0.148828,0.337964 -0.148828,0.834057 0,0.499195 0.21084,0.840259 0.21084,0.341064 0.663525,0.341064 0.347266,0 0.548804,-0.210839 0.204639,-0.213941 0.282153,-0.58291 l 0.542603,0 q -0.09302,0.660424 -0.465088,0.967382 -0.37207,0.303858 -0.95188,0.303858 -0.651123,0 -1.038696,-0.47439 -0.387573,-0.47749 -0.387573,-1.190625 0,-0.874365 0.42478,-1.361157 0.42478,-0.486792 1.082104,-0.486792 z m -0.08682,0.0155 0,0 z" />
        <path
           id="path9236"
           style="font-size:6.3499999px;text-align:center;letter-spacing:0px;text-anchor:middle;stroke-width:0.26458332px"
           d="m 64.410547,52.64516 0.536401,0 0,2.6448 1.432471,-1.410767 0.713135,0 -1.271241,1.243335 1.342554,2.077393 -0.713135,0 -1.035595,-1.674317 -0.468189,0.427881 0,1.246436 -0.536401,0 0,-4.554761 z" />
        <path
           id="path9238"
           style="font-size:6.3499999px;text-align:center;letter-spacing:0px;text-anchor:middle;stroke-width:0.26458332px"
           d="m 68.02583,56.316254 q 0,0.241845 0.176734,0.381372 0.176733,0.139526 0.418579,0.139526 0.294555,0 0.570507,-0.136426 0.465088,-0.226343 0.465088,-0.74104 l 0,-0.449585 q -0.102319,0.06511 -0.26355,0.108521 -0.16123,0.04341 -0.316259,0.06201 l -0.337964,0.04341 q -0.303858,0.04031 -0.455786,0.127124 -0.257349,0.145727 -0.257349,0.465088 z m 1.351856,-1.128614 q 0.192236,-0.0248 0.257348,-0.16123 0.03721,-0.07441 0.03721,-0.213941 0,-0.285253 -0.204638,-0.412377 -0.201539,-0.130225 -0.57981,-0.130225 -0.437183,0 -0.620117,0.235644 -0.10232,0.130225 -0.133325,0.387574 l -0.520899,0 q 0.0155,-0.613916 0.396875,-0.852661 0.384473,-0.241846 0.889868,-0.241846 0.586011,0 0.95188,0.223242 0.362769,0.223242 0.362769,0.694531 l 0,1.913062 q 0,0.08682 0.03411,0.139526 0.03721,0.05271 0.151929,0.05271 0.03721,0 0.08372,-0.0031 0.04651,-0.0062 0.09922,-0.0155 l 0,0.412377 q -0.130224,0.03721 -0.198437,0.04651 -0.06821,0.0093 -0.186035,0.0093 -0.288355,0 -0.418579,-0.204639 -0.06821,-0.10852 -0.09612,-0.306958 -0.170533,0.223243 -0.489893,0.387574 -0.31936,0.164331 -0.703833,0.164331 -0.461987,0 -0.756543,-0.279053 -0.291455,-0.282153 -0.291455,-0.703833 0,-0.461987 0.288354,-0.716235 0.288355,-0.254248 0.756543,-0.31316 l 0.889869,-0.111621 z m -0.461988,-1.389062 0,0 z" />
        <path
           id="path9240"
           style="font-size:6.3499999px;text-align:center;letter-spacing:0px;text-anchor:middle;stroke-width:0.26458332px"
           d="m 72.30464,53.820282 q 0.390673,0 0.682129,0.192236 0.158129,0.108521 0.32246,0.31626 l 0,-0.418579 0.514698,0 0,3.019971 q 0,0.632519 -0.186035,0.998388 -0.347266,0.675928 -1.311548,0.675928 -0.536402,0 -0.902271,-0.241846 -0.365869,-0.238745 -0.409277,-0.750342 l 0.567407,0 q 0.04031,0.223243 0.161231,0.344166 0.189135,0.186035 0.595312,0.186035 0.641821,0 0.840259,-0.452686 0.117822,-0.26665 0.10852,-0.95188 -0.167431,0.254248 -0.403076,0.378272 -0.235644,0.124023 -0.623218,0.124023 -0.539502,0 -0.945678,-0.381372 -0.403076,-0.384473 -0.403076,-1.26814 0,-0.834057 0.406176,-1.302246 0.409278,-0.468188 0.985987,-0.468188 z m 1.004589,1.705322 q 0,-0.617016 -0.254248,-0.914673 -0.254248,-0.297656 -0.648022,-0.297656 -0.589111,0 -0.806152,0.551904 -0.114722,0.294556 -0.114722,0.772046 0,0.561206 0.226343,0.855762 0.229443,0.291455 0.613916,0.291455 0.601513,0 0.84646,-0.542602 0.136425,-0.306958 0.136425,-0.716236 z m -0.939477,-1.727026 0,0 z" />
        <path
           id="path9242"
           style="font-size:6.3499999px;text-align:center;letter-spacing:0px;text-anchor:middle;stroke-width:0.26458332px"
           d="m 76.050147,53.804779 q 0.353467,0 0.68523,0.167432 0.331763,0.164331 0.505395,0.427881 0.167432,0.251147 0.223243,0.58601 0.04961,0.229444 0.04961,0.731739 l -2.43396,0 q 0.0155,0.505395 0.238745,0.812353 0.223242,0.303857 0.691431,0.303857 0.437182,0 0.697632,-0.288354 0.148828,-0.167432 0.21084,-0.387573 l 0.548803,0 q -0.0217,0.182934 -0.145727,0.409277 -0.120923,0.223242 -0.272852,0.365869 -0.254248,0.248047 -0.629419,0.334863 -0.201538,0.04961 -0.455786,0.04961 -0.620117,0 -1.051099,-0.449585 -0.430981,-0.452686 -0.430981,-1.265039 0,-0.799951 0.434082,-1.299146 0.434082,-0.499194 1.134814,-0.499194 z m 0.889869,1.469678 q -0.03411,-0.362769 -0.15813,-0.57981 -0.229444,-0.403076 -0.765845,-0.403076 -0.384473,0 -0.644922,0.279053 -0.260449,0.275952 -0.275952,0.703833 l 1.844849,0 z m -0.942579,-1.475879 0,0 z" />
        <path
           id="path9244"
           style="font-size:6.3499999px;text-align:center;letter-spacing:0px;text-anchor:middle;stroke-width:0.26458332px"
           d="m 80.037499,52.64516 0.728638,0 2.300635,3.689697 0,-3.689697 0.586011,0 0,4.554761 -0.691431,0 -2.334741,-3.686597 0,3.686597 -0.589112,0 0,-4.554761 z m 1.767334,0 0,0 z" />
      </g>
      <path
         id="path4327"
         d="m -64.652846,131.87165 -0.09051,-5.04308 51.08265,-9.96633 -0.05985,-10.36224"
         style="fill:none;fill-rule:evenodd;stroke:#000000;stroke-width:0.26458332px;stroke-linecap:butt;stroke-linejoin:miter;stroke-opacity:1;marker-start:url(#Arrow1Lstart);marker-end:url(#Arrow1Lend)" />
      <path
         style="fill:none;fill-rule:evenodd;stroke:#000000;stroke-width:0.26458332px;stroke-linecap:butt;stroke-linejoin:miter;stroke-opacity:1;marker-start:url(#marker5611);marker-end:url(#marker5639)"
         d="M 51.84533,131.87165 51.93584,126.82857 0.85319293,116.86224 0.91304293,106.5"
         id="path5609" />
      <path
         style="fill:none;fill-rule:evenodd;stroke:#000000;stroke-width:0.26458332px;stroke-linecap:butt;stroke-linejoin:miter;stroke-opacity:1;marker-start:url(#marker5939);marker-end:url(#marker5979)"
         d="m -17.027844,131.87165 -0.09051,-6.10141 10.8659815,-7.84967 -0.05985,-11.42057"
         id="path5937" />
    </g>
    <path
       id="path4325"
       d="m 121.02798,139.30835 20.97768,0"
       style="fill:none;fill-rule:evenodd;stroke:#000000;stroke-width:0.44999999;stroke-linecap:butt;stroke-linejoin:miter;stroke-miterlimit:4;stroke-dasharray:2.69999985, 2.69999985;stroke-dashoffset:0;stroke-opacity:1" />
    <path
       id="path6410"
       d="m 130.30729,96.719865 c 5.99239,0 11.26712,0 15.49702,0"
       style="fill:none;fill-rule:evenodd;stroke:#000000;stroke-width:0.26499999;stroke-linecap:butt;stroke-linejoin:miter;stroke-miterlimit:4;stroke-dasharray:none;stroke-opacity:1;marker-start:url(#marker6552);marker-end:url(#marker6482)" />
    <path
       id="rect7386"
       d="m -62.829794,89.491066 40.96315,0 c 1.112435,0 2.008005,0.776371 2.008005,1.740741 l 0,10.881613 c 0,0.96437 -0.89557,1.74074 -2.008005,1.74074 l -40.96315,0 c -1.112435,0 -2.008005,-0.77637 -2.008005,-1.74074 l 0,-10.881613 c 0,-0.96437 0.89557,-1.740741 2.008005,-1.740741 z"
       style="opacity:1;fill:#dcdcdc;fill-opacity:1;fill-rule:nonzero;stroke:#7c7c7c;stroke-width:0.26499999;stroke-linecap:butt;stroke-linejoin:miter;stroke-miterlimit:4;stroke-dasharray:none;stroke-dashoffset:0;stroke-opacity:1"
       transform="scale(-1,1)" />
    <g
       id="flowRoot7388"
       aria-label="Confguration"
       style="font-style:normal;font-weight:normal;font-size:6.3499999px;line-height:125%;font-family:sans-serif;letter-spacing:-0.51593751px;word-spacing:0px;fill:#000000;fill-opacity:1;stroke:none;stroke-width:0.26458332px;stroke-linecap:butt;stroke-linejoin:miter;stroke-opacity:1"
       transform="translate(-121.65007,0.52916667)">
      <path
         id="path9248"
         style="font-size:6.3499999px;text-align:center;letter-spacing:0px;text-anchor:middle;stroke-width:0.26458332px"
         d="m 147.40315,93.26723 q 0.86506,0 1.34255,0.455786 0.47749,0.455786 0.5302,1.035596 l -0.60151,0 q -0.10232,-0.440283 -0.40928,-0.697632 -0.30385,-0.257348 -0.85576,-0.257348 -0.67283,0 -1.0883,0.474389 -0.41238,0.471289 -0.41238,1.447974 0,0.799951 0.37207,1.299145 0.37517,0.496094 1.11621,0.496094 0.68213,0 1.03869,-0.523999 0.18914,-0.275952 0.28216,-0.725537 l 0.60151,0 q -0.0806,0.719336 -0.5333,1.206128 -0.5426,0.586011 -1.46348,0.586011 -0.79375,0 -1.33325,-0.480591 -0.71003,-0.63562 -0.71003,-1.962671 0,-1.007691 0.5333,-1.652612 0.57671,-0.700733 1.5906,-0.700733 z m -0.12402,0 0,0 z" />
      <path
         id="path9250"
         style="font-size:6.3499999px;text-align:center;letter-spacing:0px;text-anchor:middle;stroke-width:0.26458332px"
         d="m 151.31609,97.586346 q 0.555,0 0.75964,-0.418579 0.20774,-0.421679 0.20774,-0.936377 0,-0.465088 -0.14883,-0.756543 -0.23564,-0.458886 -0.81235,-0.458886 -0.5116,0 -0.74414,0.390673 -0.23254,0.390674 -0.23254,0.942579 0,0.5302 0.23254,0.883667 0.23254,0.353466 0.73794,0.353466 z m 0.0217,-3.057177 q 0.64182,0 1.08521,0.427881 0.44338,0.42788 0.44338,1.258837 0,0.803052 -0.39067,1.327051 -0.39068,0.523999 -1.21233,0.523999 -0.68523,0 -1.08831,-0.461987 -0.40307,-0.465088 -0.40307,-1.246436 0,-0.837158 0.42478,-1.333252 0.42478,-0.496093 1.14101,-0.496093 z m -0.0186,0.0155 0,0 z" />
      <path
         id="path9252"
         style="font-size:6.3499999px;text-align:center;letter-spacing:0px;text-anchor:middle;stroke-width:0.26458332px"
         d="m 153.53301,94.625287 0.5302,0 0,0.471289 q 0.23564,-0.291455 0.49919,-0.418579 0.26355,-0.127124 0.58601,-0.127124 0.70694,0 0.95498,0.492993 0.13643,0.269751 0.13643,0.772046 l 0,2.130102 -0.56741,0 0,-2.092895 q 0,-0.303858 -0.0899,-0.489893 -0.14883,-0.310058 -0.53951,-0.310058 -0.19843,0 -0.32556,0.04031 -0.22944,0.06821 -0.40307,0.272852 -0.13953,0.164331 -0.18294,0.341064 -0.0403,0.173633 -0.0403,0.499195 l 0,1.739428 -0.5581,0 0,-3.320727 z m 1.31155,-0.08061 0,0 z" />
      <path
         id="path9254"
         style="font-size:6.3499999px;text-align:center;letter-spacing:0px;text-anchor:middle;stroke-width:0.26458332px"
         d="m 157.2072,94.119891 q 0.0124,-0.347265 0.12093,-0.508496 0.19533,-0.285254 0.75344,-0.285254 0.0527,0 0.10852,0.0031 0.0558,0.0031 0.12712,0.0093 l 0,0.508496 q -0.0868,-0.0062 -0.12712,-0.0062 -0.0372,-0.0031 -0.0713,-0.0031 -0.25424,0 -0.30385,0.133325 -0.0496,0.130225 -0.0496,0.669727 l 0.5519,0 0,0.440283 -0.5581,0 0,2.864941 -0.55191,0 0,-2.864941 -0.46198,0 0,-0.440283 0.46198,0 0,-0.520899 z m 1.64641,-0.09612 0,-0.632519 0.55811,0 0,0.632519 -0.55811,0 z m 0,0.617017 0.55811,0 0,3.305224 -0.55811,0 0,-3.305224 z" />
      <path
         id="path9256"
         style="font-size:6.3499999px;text-align:center;letter-spacing:0px;text-anchor:middle;stroke-width:0.26458332px"
         d="m 161.4147,94.566376 q 0.39067,0 0.68213,0.192236 0.15813,0.108521 0.32246,0.31626 l 0,-0.418579 0.51469,0 0,3.01997 q 0,0.63252 -0.18603,0.998389 -0.34727,0.675928 -1.31155,0.675928 -0.5364,0 -0.90227,-0.241846 -0.36587,-0.238745 -0.40928,-0.750342 l 0.56741,0 q 0.0403,0.223242 0.16123,0.344165 0.18914,0.186035 0.59531,0.186035 0.64183,0 0.84026,-0.452685 0.11783,-0.266651 0.10852,-0.95188 -0.16743,0.254248 -0.40307,0.378271 -0.23565,0.124024 -0.62322,0.124024 -0.5395,0 -0.94568,-0.381372 -0.40308,-0.384473 -0.40308,-1.26814 0,-0.834057 0.40618,-1.302246 0.40928,-0.468188 0.98599,-0.468188 z m 1.00459,1.705322 q 0,-0.617017 -0.25425,-0.914673 -0.25425,-0.297656 -0.64802,-0.297656 -0.58911,0 -0.80616,0.551904 -0.11472,0.294556 -0.11472,0.772046 0,0.561206 0.22635,0.855762 0.22944,0.291455 0.61391,0.291455 0.60152,0 0.84646,-0.542603 0.13643,-0.306958 0.13643,-0.716235 z m -0.93948,-1.727026 0,0 z" />
      <path
         id="path9258"
         style="font-size:6.3499999px;text-align:center;letter-spacing:0px;text-anchor:middle;stroke-width:0.26458332px"
         d="m 164.33545,94.625287 0,2.204516 q 0,0.254248 0.0806,0.415479 0.14883,0.297656 0.55501,0.297656 0.58291,0 0.79375,-0.520898 0.11472,-0.279053 0.11472,-0.765845 l 0,-1.630908 0.55811,0 0,3.320727 -0.5271,0 0.006,-0.489892 q -0.10852,0.189135 -0.26975,0.31936 -0.31936,0.260449 -0.77515,0.260449 -0.71003,0 -0.96738,-0.474389 -0.13953,-0.254248 -0.13953,-0.679029 l 0,-2.257226 0.57051,0 z m 0.76584,-0.08061 0,0 z" />
      <path
         id="path9260"
         style="font-size:6.3499999px;text-align:center;letter-spacing:0px;text-anchor:middle;stroke-width:0.26458332px"
         d="m 167.32751,94.625287 0.5302,0 0,0.573608 q 0.0651,-0.167431 0.31936,-0.406177 0.25425,-0.241845 0.58602,-0.241845 0.0155,0 0.0527,0.0031 0.0372,0.0031 0.12712,0.0124 l 0,0.589111 q -0.0496,-0.0093 -0.093,-0.0124 -0.0403,-0.0031 -0.0899,-0.0031 -0.42167,0 -0.64802,0.272852 -0.22634,0.269751 -0.22634,0.623217 l 0,1.909961 -0.55811,0 0,-3.320727 z" />
      <path
         id="path9262"
         style="font-size:6.3499999px;text-align:center;letter-spacing:0px;text-anchor:middle;stroke-width:0.26458332px"
         d="m 169.86069,97.062347 q 0,0.241846 0.17674,0.381372 0.17673,0.139527 0.41858,0.139527 0.29455,0 0.5705,-0.136426 0.46509,-0.226343 0.46509,-0.74104 l 0,-0.449585 q -0.10232,0.06511 -0.26355,0.108521 -0.16123,0.04341 -0.31626,0.06201 l -0.33796,0.04341 q -0.30386,0.04031 -0.45579,0.127124 -0.25735,0.145728 -0.25735,0.465088 z m 1.35186,-1.128613 q 0.19224,-0.02481 0.25735,-0.16123 0.0372,-0.07441 0.0372,-0.213941 0,-0.285254 -0.20464,-0.412378 -0.20154,-0.130224 -0.57981,-0.130224 -0.43719,0 -0.62012,0.235644 -0.10232,0.130225 -0.13333,0.387573 l -0.52089,0 q 0.0155,-0.613916 0.39687,-0.852661 0.38447,-0.241845 0.88987,-0.241845 0.58601,0 0.95188,0.223242 0.36277,0.223242 0.36277,0.694531 l 0,1.913062 q 0,0.08682 0.0341,0.139526 0.0372,0.05271 0.15193,0.05271 0.0372,0 0.0837,-0.0031 0.0465,-0.0062 0.0992,-0.0155 l 0,0.412378 q -0.13023,0.03721 -0.19844,0.04651 -0.0682,0.0093 -0.18604,0.0093 -0.28835,0 -0.41857,-0.204639 -0.0682,-0.10852 -0.0961,-0.306958 -0.17053,0.223242 -0.4899,0.387573 -0.31936,0.164331 -0.70383,0.164331 -0.46199,0 -0.75654,-0.279052 -0.29146,-0.282154 -0.29146,-0.703833 0,-0.461988 0.28836,-0.716236 0.28835,-0.254248 0.75654,-0.313159 l 0.88987,-0.111621 z m -0.46199,-1.389062 0,0 z" />
      <path
         id="path9264"
         style="font-size:6.3499999px;text-align:center;letter-spacing:0px;text-anchor:middle;stroke-width:0.26458332px"
         d="m 173.0791,93.698212 0.56431,0 0,0.927075 0.5302,0 0,0.455786 -0.5302,0 0,2.167309 q 0,0.173633 0.11782,0.232544 0.0651,0.03411 0.21704,0.03411 0.0403,0 0.0868,0 0.0465,-0.0031 0.10852,-0.0093 l 0,0.440283 q -0.0961,0.02791 -0.20154,0.04031 -0.10232,0.0124 -0.22324,0.0124 -0.39068,0 -0.5302,-0.198437 -0.13953,-0.201538 -0.13953,-0.520899 l 0,-2.198315 -0.44958,0 0,-0.455786 0.44958,0 0,-0.927075 z" />
      <path
         id="path9266"
         style="font-size:6.3499999px;text-align:center;letter-spacing:0px;text-anchor:middle;stroke-width:0.26458332px"
         d="m 174.72861,94.64079 0.56741,0 0,3.305224 -0.56741,0 0,-3.305224 z m 0,-1.249536 0.56741,0 0,0.632519 -0.56741,0 0,-0.632519 z" />
      <path
         id="path9268"
         style="font-size:6.3499999px;text-align:center;letter-spacing:0px;text-anchor:middle;stroke-width:0.26458332px"
         d="m 177.46023,97.586346 q 0.555,0 0.75964,-0.418579 0.20774,-0.421679 0.20774,-0.936377 0,-0.465088 -0.14883,-0.756543 -0.23564,-0.458886 -0.81235,-0.458886 -0.5116,0 -0.74414,0.390673 -0.23254,0.390674 -0.23254,0.942579 0,0.5302 0.23254,0.883667 0.23254,0.353466 0.73794,0.353466 z m 0.0217,-3.057177 q 0.64182,0 1.08521,0.427881 0.44338,0.42788 0.44338,1.258837 0,0.803052 -0.39067,1.327051 -0.39068,0.523999 -1.21233,0.523999 -0.68523,0 -1.08831,-0.461987 -0.40307,-0.465088 -0.40307,-1.246436 0,-0.837158 0.42478,-1.333252 0.42478,-0.496093 1.14101,-0.496093 z m -0.0186,0.0155 0,0 z" />
      <path
         id="path9270"
         style="font-size:6.3499999px;text-align:center;letter-spacing:0px;text-anchor:middle;stroke-width:0.26458332px"
         d="m 179.67715,94.625287 0.5302,0 0,0.471289 q 0.23564,-0.291455 0.49919,-0.418579 0.26355,-0.127124 0.58602,-0.127124 0.70693,0 0.95498,0.492993 0.13642,0.269751 0.13642,0.772046 l 0,2.130102 -0.56741,0 0,-2.092895 q 0,-0.303858 -0.0899,-0.489893 -0.14883,-0.310058 -0.5395,-0.310058 -0.19844,0 -0.32557,0.04031 -0.22944,0.06821 -0.40307,0.272852 -0.13953,0.164331 -0.18294,0.341064 -0.0403,0.173633 -0.0403,0.499195 l 0,1.739428 -0.55811,0 0,-3.320727 z m 1.31155,-0.08061 0,0 z" />
    </g>
    <path
       style="fill:none;fill-rule:evenodd;stroke:#000000;stroke-width:0.26499999;stroke-linecap:butt;stroke-linejoin:miter;stroke-miterlimit:4;stroke-dasharray:none;stroke-opacity:1;marker-start:url(#marker7408);marker-end:url(#marker7478)"
       d="m 81.185297,96.719865 c -5.992387,0 -11.267114,0 -15.497011,0"
       id="path7396" />
    <path
       id="rect8325"
       d="m 104.80831,71.212975 2.60588,0 0,0.27027 -2.60588,0 z"
       style="opacity:1;fill:#f5f5f5;fill-opacity:1;fill-rule:nonzero;stroke:none;stroke-width:0.44999993;stroke-linecap:butt;stroke-linejoin:miter;stroke-miterlimit:4;stroke-dasharray:2.6999998, 2.6999998;stroke-dashoffset:0;stroke-opacity:1" />
    <path
       id="path7566"
       d="m 106.07901,86.476703 0,-34.017853"
       style="fill:none;fill-rule:evenodd;stroke:#000000;stroke-width:0.26499999;stroke-linecap:butt;stroke-linejoin:miter;stroke-miterlimit:4;stroke-dasharray:none;stroke-opacity:1;marker-start:url(#marker7568);marker-end:url(#marker7650)" />
  </g>
</svg>
