<?xml version="1.0" encoding="UTF-8" standalone="no"?>
<!-- Created with Inkscape (http://www.inkscape.org/) -->

<svg
   xmlns:osb="http://www.openswatchbook.org/uri/2009/osb"
   xmlns:dc="http://purl.org/dc/elements/1.1/"
   xmlns:cc="http://creativecommons.org/ns#"
   xmlns:rdf="http://www.w3.org/1999/02/22-rdf-syntax-ns#"
   xmlns:svg="http://www.w3.org/2000/svg"
   xmlns="http://www.w3.org/2000/svg"
   xmlns:sodipodi="http://sodipodi.sourceforge.net/DTD/sodipodi-0.dtd"
   xmlns:inkscape="http://www.inkscape.org/namespaces/inkscape"
   width="90.116165mm"
   height="20.492966mm"
   viewBox="0 0 90.116165 20.492966"
   id="svg2"
   version="1.1"
   inkscape:version="0.91+devel+osxmenu r12922"
   sodipodi:docname="directories.svg">
  <defs
     id="defs4">
    <linearGradient
       id="linearGradient5992"
       osb:paint="solid">
      <stop
         style="stop-color:#000000;stop-opacity:1;"
         offset="0"
         id="stop5994" />
    </linearGradient>
    <linearGradient
       id="linearGradient4542"
       osb:paint="solid">
      <stop
         style="stop-color:#000000;stop-opacity:1;"
         offset="0"
         id="stop4544" />
    </linearGradient>
  </defs>
  <sodipodi:namedview
     id="base"
     pagecolor="#f7f7f6"
     bordercolor="#666666"
     borderopacity="1.0"
     inkscape:pageopacity="0"
     inkscape:pageshadow="2"
     inkscape:zoom="2.8"
     inkscape:cx="213.07674"
     inkscape:cy="-21.915263"
     inkscape:document-units="mm"
     inkscape:current-layer="layer1"
     showgrid="false"
     fit-margin-top="0"
     fit-margin-left="0"
     fit-margin-right="0"
     fit-margin-bottom="0"
     inkscape:window-width="1427"
     inkscape:window-height="784"
     inkscape:window-x="0"
     inkscape:window-y="23"
     inkscape:window-maximized="0" />
  <metadata
     id="metadata7">
    <rdf:RDF>
      <cc:Work
         rdf:about="">
        <dc:format>image/svg+xml</dc:format>
        <dc:type
           rdf:resource="http://purl.org/dc/dcmitype/StillImage" />
        <dc:title></dc:title>
      </cc:Work>
    </rdf:RDF>
  </metadata>
  <g
     inkscape:label="Layer 1"
     inkscape:groupmode="layer"
     id="layer1"
     transform="translate(-7.5184054,-18.019354)">
    <g
       transform="scale(0.26458333)"
       style="font-style:normal;font-variant:normal;font-weight:normal;font-stretch:normal;font-size:8px;line-height:125%;font-family:monospace;-inkscape-font-specification:monospace;letter-spacing:-1.95000005px;word-spacing:0px;fill:#000000;fill-opacity:1;stroke:none;stroke-width:1px;stroke-linecap:butt;stroke-linejoin:miter;stroke-opacity:1"
       aria-label="/ var / www / html / public_html / system / packages / my_package / pages / my_page /"
       id="flowRoot4141">
      <path
         d="m 31.820312,98.766602 0.59375,0 -1.820312,5.738278 -0.59375,0 1.820312,-5.738278 z"
         style="font-style:normal;font-variant:normal;font-weight:normal;font-stretch:normal;font-family:sans-serif;-inkscape-font-specification:sans-serif;letter-spacing:0.38px"
         id="path6152" />
      <path
         d="m 36.056875,100.32129 1.117188,3.40625 1.167968,-3.40625 0.769532,0 -1.578125,4.18359 -0.75,0 -1.542969,-4.18359 0.816406,0 z"
         style="font-style:normal;font-variant:normal;font-weight:normal;font-stretch:normal;font-family:sans-serif;-inkscape-font-specification:sans-serif;letter-spacing:0.38px"
         id="path6154" />
      <path
         d="m 40.632188,103.3916 q 0,0.30469 0.222656,0.48047 0.222656,0.17578 0.527344,0.17578 0.371094,0 0.71875,-0.17187 0.585937,-0.28516 0.585937,-0.9336 l 0,-0.5664 q -0.128906,0.082 -0.332031,0.13672 -0.203125,0.0547 -0.398437,0.0781 l -0.425782,0.0547 q -0.382812,0.0508 -0.574218,0.16015 -0.324219,0.1836 -0.324219,0.58594 z m 1.703125,-1.42187 q 0.242187,-0.0312 0.324219,-0.20313 0.04687,-0.0937 0.04687,-0.26953 0,-0.35937 -0.257813,-0.51953 -0.253906,-0.16406 -0.730469,-0.16406 -0.550781,0 -0.78125,0.29687 -0.128906,0.16406 -0.167968,0.48828 l -0.65625,0 q 0.01953,-0.77343 0.5,-1.07422 0.484375,-0.30468 1.121093,-0.30468 0.738282,0 1.199219,0.28125 0.457031,0.28125 0.457031,0.875 l 0,2.41015 q 0,0.10938 0.04297,0.17578 0.04687,0.0664 0.191406,0.0664 0.04687,0 0.105469,-0.004 0.05859,-0.008 0.125,-0.0195 l 0,0.51953 q -0.164062,0.0469 -0.25,0.0586 -0.08594,0.0117 -0.234375,0.0117 -0.363281,0 -0.527344,-0.25782 -0.08594,-0.13671 -0.121093,-0.38671 -0.214844,0.28125 -0.617188,0.48828 -0.402344,0.20703 -0.886719,0.20703 -0.582031,0 -0.953125,-0.35156 -0.367187,-0.35547 -0.367187,-0.88672 0,-0.58203 0.363281,-0.90235 0.363281,-0.32031 0.953125,-0.39453 l 1.121094,-0.14062 z m -0.582031,-1.75 0,0 z"
         style="font-style:normal;font-variant:normal;font-weight:normal;font-stretch:normal;font-family:sans-serif;-inkscape-font-specification:sans-serif;letter-spacing:0.38px"
         id="path6156" />
      <path
         d="m 44.945782,100.32129 0.667968,0 0,0.72266 q 0.08203,-0.21094 0.402344,-0.51172 0.320313,-0.30469 0.738281,-0.30469 0.01953,0 0.06641,0.004 0.04687,0.004 0.160156,0.0156 l 0,0.74219 q -0.0625,-0.0117 -0.117188,-0.0156 -0.05078,-0.004 -0.113281,-0.004 -0.53125,0 -0.816406,0.34375 -0.285156,0.33984 -0.285156,0.78515 l 0,2.40625 -0.703125,0 0,-4.18359 z"
         style="font-style:normal;font-variant:normal;font-weight:normal;font-stretch:normal;font-family:sans-serif;-inkscape-font-specification:sans-serif;letter-spacing:0.38px"
         id="path6158" />
      <path
         d="m 51.881563,98.766602 0.59375,0 -1.820312,5.738278 -0.59375,0 1.820312,-5.738278 z"
         style="font-style:normal;font-variant:normal;font-weight:normal;font-stretch:normal;font-family:sans-serif;-inkscape-font-specification:sans-serif;letter-spacing:0.38px"
         id="path6160" />
      <path
         d="m 56.098595,100.32129 0.804687,3.29687 0.816406,-3.29687 0.789063,0 0.820312,3.27734 0.855469,-3.27734 0.703125,0 -1.214844,4.18359 -0.730468,0 -0.851563,-3.23828 -0.824219,3.23828 -0.730468,0 -1.207032,-4.18359 0.769532,0 z"
         style="font-style:normal;font-variant:normal;font-weight:normal;font-stretch:normal;font-family:sans-serif;-inkscape-font-specification:sans-serif;letter-spacing:0.38px"
         id="path6162" />
      <path
         d="m 62.259844,100.32129 0.804687,3.29687 0.816407,-3.29687 0.789062,0 0.820313,3.27734 0.855468,-3.27734 0.703125,0 -1.214843,4.18359 -0.730469,0 -0.851563,-3.23828 -0.824218,3.23828 -0.730469,0 -1.207031,-4.18359 0.769531,0 z"
         style="font-style:normal;font-variant:normal;font-weight:normal;font-stretch:normal;font-family:sans-serif;-inkscape-font-specification:sans-serif;letter-spacing:0.38px"
         id="path6164" />
      <path
         d="m 68.421093,100.32129 0.804687,3.29687 0.816407,-3.29687 0.789062,0 0.820313,3.27734 0.855468,-3.27734 0.703125,0 -1.214843,4.18359 -0.730469,0 -0.851563,-3.23828 -0.824218,3.23828 -0.730469,0 -1.207031,-4.18359 0.769531,0 z"
         style="font-style:normal;font-variant:normal;font-weight:normal;font-stretch:normal;font-family:sans-serif;-inkscape-font-specification:sans-serif;letter-spacing:0.38px"
         id="path6166" />
      <path
         d="m 78.161564,98.766602 0.59375,0 -1.820313,5.738278 -0.59375,0 1.820313,-5.738278 z"
         style="font-style:normal;font-variant:normal;font-weight:normal;font-stretch:normal;font-family:sans-serif;-inkscape-font-specification:sans-serif;letter-spacing:0.38px"
         id="path6168" />
      <path
         d="m 82.054375,98.74707 0.703125,0 0,2.14063 q 0.25,-0.31641 0.449218,-0.44532 0.339844,-0.22265 0.847657,-0.22265 0.910156,0 1.234375,0.63672 0.175781,0.34765 0.175781,0.96484 l 0,2.68359 -0.722656,0 0,-2.63672 q 0,-0.46093 -0.117188,-0.67578 -0.191406,-0.34375 -0.71875,-0.34375 -0.4375,0 -0.792969,0.30078 -0.355468,0.30079 -0.355468,1.13672 l 0,2.21875 -0.703125,0 0,-5.75781 z"
         style="font-style:normal;font-variant:normal;font-weight:normal;font-stretch:normal;font-family:sans-serif;-inkscape-font-specification:sans-serif;letter-spacing:0.38px"
         id="path6170" />
      <path
         d="m 87.028126,99.15332 0.710937,0 0,1.16797 0.667969,0 0,0.57422 -0.667969,0 0,2.73047 q 0,0.21875 0.148438,0.29297 0.08203,0.043 0.273437,0.043 0.05078,0 0.109375,0 0.05859,-0.004 0.136719,-0.0117 l 0,0.55468 q -0.121094,0.0352 -0.253906,0.0508 -0.128906,0.0156 -0.28125,0.0156 -0.492188,0 -0.667969,-0.25 -0.175781,-0.25391 -0.175781,-0.65625 l 0,-2.76953 -0.566406,0 0,-0.57422 0.566406,0 0,-1.16797 z"
         style="font-style:normal;font-variant:normal;font-weight:normal;font-stretch:normal;font-family:sans-serif;-inkscape-font-specification:sans-serif;letter-spacing:0.38px"
         id="path6172" />
      <path
         d="m 89.486252,100.32129 0.695312,0 0,0.59375 q 0.25,-0.30859 0.453125,-0.44922 0.347657,-0.23828 0.789063,-0.23828 0.5,0 0.804687,0.24609 0.171875,0.14063 0.3125,0.41407 0.234375,-0.33594 0.550782,-0.4961 0.316406,-0.16406 0.710937,-0.16406 0.84375,0 1.148438,0.60937 0.164062,0.32813 0.164062,0.88282 l 0,2.78515 -0.730469,0 0,-2.90625 q 0,-0.41797 -0.210937,-0.57422 -0.207031,-0.15625 -0.507813,-0.15625 -0.414062,0 -0.714843,0.27735 -0.296875,0.27734 -0.296875,0.92578 l 0,2.43359 -0.714844,0 0,-2.73047 q 0,-0.42578 -0.101563,-0.62109 -0.160156,-0.29297 -0.597656,-0.29297 -0.398437,0 -0.726562,0.3086 -0.324219,0.30859 -0.324219,1.11718 l 0,2.21875 -0.703125,0 0,-4.18359 z"
         style="font-style:normal;font-variant:normal;font-weight:normal;font-stretch:normal;font-family:sans-serif;-inkscape-font-specification:sans-serif;letter-spacing:0.38px"
         id="path6174" />
      <path
         d="m 96.557655,98.766602 0.703125,0 0,5.738278 -0.703125,0 0,-5.738278 z"
         style="font-style:normal;font-variant:normal;font-weight:normal;font-stretch:normal;font-family:sans-serif;-inkscape-font-specification:sans-serif;letter-spacing:0.38px"
         id="path6176" />
      <path
         d="m 102.60281,98.766602 0.59375,0 -1.82031,5.738278 -0.59375,0 1.82031,-5.738278 z"
         style="font-style:normal;font-variant:normal;font-weight:normal;font-stretch:normal;font-family:sans-serif;-inkscape-font-specification:sans-serif;letter-spacing:0.38px"
         id="path6178" />
      <path
         d="m 108.26125,104.03223 q 0.49219,0 0.81641,-0.41016 0.32812,-0.41406 0.32812,-1.23437 0,-0.5 -0.14453,-0.85938 -0.27343,-0.69141 -1,-0.69141 -0.73047,0 -1,0.73047 -0.14453,0.39063 -0.14453,0.99219 0,0.48438 0.14453,0.82422 0.27344,0.64844 1,0.64844 z m -1.82031,-3.69141 0.68359,0 0,0.55469 q 0.21094,-0.28516 0.46094,-0.44141 0.35547,-0.23437 0.83594,-0.23437 0.71094,0 1.20703,0.54687 0.49609,0.54297 0.49609,1.55469 0,1.36719 -0.71484,1.95312 -0.45312,0.3711 -1.05469,0.3711 -0.47265,0 -0.79297,-0.20703 -0.1875,-0.11719 -0.41796,-0.40235 l 0,2.13672 -0.70313,0 0,-5.83203 z"
         style="font-style:normal;font-variant:normal;font-weight:normal;font-stretch:normal;font-family:sans-serif;-inkscape-font-specification:sans-serif;letter-spacing:0.38px"
         id="path6180" />
      <path
         d="m 112.03188,100.32129 0,2.77734 q 0,0.32032 0.10156,0.52344 0.1875,0.375 0.69922,0.375 0.73437,0 1,-0.65625 0.14453,-0.35156 0.14453,-0.96484 l 0,-2.05469 0.70312,0 0,4.18359 -0.66406,0 0.008,-0.61718 q -0.13672,0.23828 -0.33984,0.40234 -0.40234,0.32812 -0.97656,0.32812 -0.89453,0 -1.21875,-0.59765 -0.17578,-0.32031 -0.17578,-0.85547 l 0,-2.84375 0.71875,0 z m 0.96484,-0.10156 0,0 z"
         style="font-style:normal;font-variant:normal;font-weight:normal;font-stretch:normal;font-family:sans-serif;-inkscape-font-specification:sans-serif;letter-spacing:0.38px"
         id="path6182" />
      <path
         d="m 116.10719,98.74707 0.68359,0 0,2.08203 q 0.23047,-0.30078 0.55078,-0.45703 0.32031,-0.16016 0.69531,-0.16016 0.78125,0 1.26563,0.53907 0.48828,0.53515 0.48828,1.58203 0,0.99219 -0.48047,1.64844 -0.48047,0.65625 -1.33203,0.65625 -0.47656,0 -0.80469,-0.23047 -0.19531,-0.13672 -0.41797,-0.4375 l 0,0.53515 -0.64843,0 0,-5.75781 z m 1.82812,5.26953 q 0.57031,0 0.85156,-0.45312 0.28516,-0.45313 0.28516,-1.19532 0,-0.66015 -0.28516,-1.09375 -0.28125,-0.43359 -0.83203,-0.43359 -0.48047,0 -0.84375,0.35547 -0.35937,0.35547 -0.35937,1.17187 0,0.58985 0.14843,0.95704 0.27735,0.6914 1.03516,0.6914 z"
         style="font-style:normal;font-variant:normal;font-weight:normal;font-stretch:normal;font-family:sans-serif;-inkscape-font-specification:sans-serif;letter-spacing:0.38px"
         id="path6184" />
      <path
         d="m 121.01453,98.766602 0.70313,0 0,5.738278 -0.70313,0 0,-5.738278 z"
         style="font-style:normal;font-variant:normal;font-weight:normal;font-stretch:normal;font-family:sans-serif;-inkscape-font-specification:sans-serif;letter-spacing:0.38px"
         id="path6186" />
      <path
         d="m 123.15625,100.34082 0.71484,0 0,4.16406 -0.71484,0 0,-4.16406 z m 0,-1.574218 0.71484,0 0,0.796875 -0.71484,0 0,-0.796875 z"
         style="font-style:normal;font-variant:normal;font-weight:normal;font-stretch:normal;font-family:sans-serif;-inkscape-font-specification:sans-serif;letter-spacing:0.38px"
         id="path6188" />
      <path
         d="m 126.93078,100.2002 q 0.70703,0 1.14844,0.34375 0.44531,0.34375 0.53515,1.18359 l -0.68359,0 q -0.0625,-0.38672 -0.28516,-0.64063 -0.22265,-0.25781 -0.71484,-0.25781 -0.67188,0 -0.96094,0.65625 -0.1875,0.42578 -0.1875,1.05078 0,0.62891 0.26563,1.0586 0.26562,0.42968 0.83593,0.42968 0.4375,0 0.69141,-0.26562 0.25781,-0.26953 0.35547,-0.73438 l 0.68359,0 q -0.11719,0.83204 -0.58594,1.21875 -0.46875,0.38282 -1.19921,0.38282 -0.82032,0 -1.3086,-0.59766 -0.48828,-0.60156 -0.48828,-1.5 0,-1.10156 0.53516,-1.71484 0.53515,-0.61328 1.36328,-0.61328 z m -0.10938,0.0195 0,0 z"
         style="font-style:normal;font-variant:normal;font-weight:normal;font-stretch:normal;font-family:sans-serif;-inkscape-font-specification:sans-serif;letter-spacing:0.38px"
         id="path6190" />
      <path
         d="m 129.18188,105.50488 0,-0.39453 4.44922,0 0,0.39453 -4.44922,0 z"
         style="font-style:normal;font-variant:normal;font-weight:normal;font-stretch:normal;font-family:sans-serif;-inkscape-font-specification:sans-serif;letter-spacing:0.38px"
         id="path6192" />
      <path
         d="m 134.53062,98.74707 0.70313,0 0,2.14063 q 0.25,-0.31641 0.44922,-0.44532 0.33984,-0.22265 0.84765,-0.22265 0.91016,0 1.23438,0.63672 0.17578,0.34765 0.17578,0.96484 l 0,2.68359 -0.72266,0 0,-2.63672 q 0,-0.46093 -0.11718,-0.67578 -0.19141,-0.34375 -0.71875,-0.34375 -0.4375,0 -0.79297,0.30078 -0.35547,0.30079 -0.35547,1.13672 l 0,2.21875 -0.70313,0 0,-5.75781 z"
         style="font-style:normal;font-variant:normal;font-weight:normal;font-stretch:normal;font-family:sans-serif;-inkscape-font-specification:sans-serif;letter-spacing:0.38px"
         id="path6194" />
      <path
         d="m 139.50437,99.15332 0.71094,0 0,1.16797 0.66797,0 0,0.57422 -0.66797,0 0,2.73047 q 0,0.21875 0.14844,0.29297 0.082,0.043 0.27343,0.043 0.0508,0 0.10938,0 0.0586,-0.004 0.13672,-0.0117 l 0,0.55468 q -0.1211,0.0352 -0.25391,0.0508 -0.1289,0.0156 -0.28125,0.0156 -0.49219,0 -0.66797,-0.25 -0.17578,-0.25391 -0.17578,-0.65625 l 0,-2.76953 -0.5664,0 0,-0.57422 0.5664,0 0,-1.16797 z"
         style="font-style:normal;font-variant:normal;font-weight:normal;font-stretch:normal;font-family:sans-serif;-inkscape-font-specification:sans-serif;letter-spacing:0.38px"
         id="path6196" />
      <path
         d="m 141.9625,100.32129 0.69531,0 0,0.59375 q 0.25,-0.30859 0.45313,-0.44922 0.34766,-0.23828 0.78906,-0.23828 0.5,0 0.80469,0.24609 0.17187,0.14063 0.3125,0.41407 0.23437,-0.33594 0.55078,-0.4961 0.31641,-0.16406 0.71094,-0.16406 0.84375,0 1.14844,0.60937 0.16406,0.32813 0.16406,0.88282 l 0,2.78515 -0.73047,0 0,-2.90625 q 0,-0.41797 -0.21094,-0.57422 -0.20703,-0.15625 -0.50781,-0.15625 -0.41406,0 -0.71484,0.27735 -0.29688,0.27734 -0.29688,0.92578 l 0,2.43359 -0.71484,0 0,-2.73047 q 0,-0.42578 -0.10157,-0.62109 -0.16015,-0.29297 -0.59765,-0.29297 -0.39844,0 -0.72656,0.3086 -0.32422,0.30859 -0.32422,1.11718 l 0,2.21875 -0.70313,0 0,-4.18359 z"
         style="font-style:normal;font-variant:normal;font-weight:normal;font-stretch:normal;font-family:sans-serif;-inkscape-font-specification:sans-serif;letter-spacing:0.38px"
         id="path6198" />
      <path
         d="m 149.03391,98.766602 0.70312,0 0,5.738278 -0.70312,0 0,-5.738278 z"
         style="font-style:normal;font-variant:normal;font-weight:normal;font-stretch:normal;font-family:sans-serif;-inkscape-font-specification:sans-serif;letter-spacing:0.38px"
         id="path6200" />
      <path
         d="m 155.07906,98.766602 0.59375,0 -1.82031,5.738278 -0.59375,0 1.82031,-5.738278 z"
         style="font-style:normal;font-variant:normal;font-weight:normal;font-stretch:normal;font-family:sans-serif;-inkscape-font-specification:sans-serif;letter-spacing:0.38px"
         id="path6202" />
      <path
         d="m 159.38985,103.19238 q 0.0312,0.35157 0.17578,0.53907 0.26562,0.33984 0.92187,0.33984 0.39063,0 0.6875,-0.16797 0.29688,-0.17187 0.29688,-0.52734 0,-0.26953 -0.23828,-0.41016 -0.15235,-0.0859 -0.60157,-0.19922 l -0.55859,-0.14062 q -0.53516,-0.13282 -0.78906,-0.29688 -0.45313,-0.28515 -0.45313,-0.78906 0,-0.59375 0.42578,-0.96094 0.42969,-0.36719 1.15235,-0.36719 0.94531,0 1.36328,0.55469 0.26172,0.35156 0.25391,0.75781 l -0.66407,0 q -0.0195,-0.23828 -0.16797,-0.43359 -0.24218,-0.27734 -0.83984,-0.27734 -0.39844,0 -0.60547,0.15234 -0.20312,0.15234 -0.20312,0.40234 0,0.27344 0.26953,0.4375 0.15625,0.0977 0.46094,0.17188 l 0.46484,0.11328 q 0.75781,0.18359 1.01562,0.35547 0.41016,0.26953 0.41016,0.84766 0,0.55859 -0.42578,0.96484 -0.42188,0.40625 -1.28906,0.40625 -0.9336,0 -1.32422,-0.42188 -0.38672,-0.42578 -0.41406,-1.05078 l 0.67578,0 z m 1.03906,-2.97265 0,0 z"
         style="font-style:normal;font-variant:normal;font-weight:normal;font-stretch:normal;font-family:sans-serif;-inkscape-font-specification:sans-serif;letter-spacing:0.38px"
         id="path6204" />
      <path
         d="m 165.96515,100.32129 0.77734,0 q -0.14843,0.40234 -0.66015,1.83594 -0.38282,1.07812 -0.64063,1.75781 -0.60937,1.60156 -0.85937,1.95312 -0.25,0.35157 -0.85938,0.35157 -0.14844,0 -0.23047,-0.0117 -0.0781,-0.0117 -0.19531,-0.043 l 0,-0.64063 q 0.18359,0.0508 0.26563,0.0625 0.082,0.0117 0.14453,0.0117 0.19531,0 0.28515,-0.0664 0.0937,-0.0625 0.15625,-0.15625 0.0195,-0.0312 0.14063,-0.32032 0.12109,-0.28906 0.17578,-0.42968 l -1.54688,-4.30469 0.79688,0 1.12109,3.40625 1.12891,-3.40625 z m -1.13281,-0.10156 0,0 z"
         style="font-style:normal;font-variant:normal;font-weight:normal;font-stretch:normal;font-family:sans-serif;-inkscape-font-specification:sans-serif;letter-spacing:0.38px"
         id="path6206" />
      <path
         d="m 168.14984,103.19238 q 0.0312,0.35157 0.17578,0.53907 0.26563,0.33984 0.92188,0.33984 0.39062,0 0.6875,-0.16797 0.29687,-0.17187 0.29687,-0.52734 0,-0.26953 -0.23828,-0.41016 -0.15234,-0.0859 -0.60156,-0.19922 l -0.55859,-0.14062 q -0.53516,-0.13282 -0.78907,-0.29688 -0.45312,-0.28515 -0.45312,-0.78906 0,-0.59375 0.42578,-0.96094 0.42969,-0.36719 1.15234,-0.36719 0.94532,0 1.36328,0.55469 0.26172,0.35156 0.25391,0.75781 l -0.66406,0 q -0.0195,-0.23828 -0.16797,-0.43359 -0.24219,-0.27734 -0.83984,-0.27734 -0.39844,0 -0.60547,0.15234 -0.20313,0.15234 -0.20313,0.40234 0,0.27344 0.26953,0.4375 0.15625,0.0977 0.46094,0.17188 l 0.46484,0.11328 q 0.75782,0.18359 1.01563,0.35547 0.41016,0.26953 0.41016,0.84766 0,0.55859 -0.42579,0.96484 -0.42187,0.40625 -1.28906,0.40625 -0.93359,0 -1.32422,-0.42188 -0.38672,-0.42578 -0.41406,-1.05078 l 0.67578,0 z m 1.03906,-2.97265 0,0 z"
         style="font-style:normal;font-variant:normal;font-weight:normal;font-stretch:normal;font-family:sans-serif;-inkscape-font-specification:sans-serif;letter-spacing:0.38px"
         id="path6208" />
      <path
         d="m 172.2525,99.15332 0.71094,0 0,1.16797 0.66797,0 0,0.57422 -0.66797,0 0,2.73047 q 0,0.21875 0.14844,0.29297 0.082,0.043 0.27343,0.043 0.0508,0 0.10938,0 0.0586,-0.004 0.13672,-0.0117 l 0,0.55468 q -0.1211,0.0352 -0.25391,0.0508 -0.1289,0.0156 -0.28125,0.0156 -0.49219,0 -0.66797,-0.25 -0.17578,-0.25391 -0.17578,-0.65625 l 0,-2.76953 -0.5664,0 0,-0.57422 0.5664,0 0,-1.16797 z"
         style="font-style:normal;font-variant:normal;font-weight:normal;font-stretch:normal;font-family:sans-serif;-inkscape-font-specification:sans-serif;letter-spacing:0.38px"
         id="path6210" />
      <path
         d="m 176.45282,100.22754 q 0.44531,0 0.86328,0.21094 0.41797,0.20703 0.63672,0.53906 0.21094,0.31641 0.28125,0.73828 0.0625,0.28906 0.0625,0.92188 l -3.06641,0 q 0.0195,0.63671 0.30078,1.02343 0.28125,0.38282 0.8711,0.38282 0.55078,0 0.8789,-0.36329 0.1875,-0.21093 0.26563,-0.48828 l 0.69141,0 q -0.0273,0.23047 -0.1836,0.51563 -0.15234,0.28125 -0.34375,0.46094 -0.32031,0.3125 -0.79297,0.42187 -0.2539,0.0625 -0.57422,0.0625 -0.78125,0 -1.32421,-0.56641 -0.54297,-0.57031 -0.54297,-1.59375 0,-1.00781 0.54687,-1.63671 0.54688,-0.62891 1.42969,-0.62891 z m 1.12109,1.85156 q -0.043,-0.45703 -0.19922,-0.73047 -0.28906,-0.50781 -0.96484,-0.50781 -0.48437,0 -0.8125,0.35156 -0.32812,0.34766 -0.34766,0.88672 l 2.32422,0 z m -1.1875,-1.85937 0,0 z"
         style="font-style:normal;font-variant:normal;font-weight:normal;font-stretch:normal;font-family:sans-serif;-inkscape-font-specification:sans-serif;letter-spacing:0.38px"
         id="path6212" />
      <path
         d="m 179.54375,100.32129 0.69531,0 0,0.59375 q 0.25,-0.30859 0.45312,-0.44922 0.34766,-0.23828 0.78907,-0.23828 0.5,0 0.80468,0.24609 0.17188,0.14063 0.3125,0.41407 0.23438,-0.33594 0.55079,-0.4961 0.3164,-0.16406 0.71093,-0.16406 0.84375,0 1.14844,0.60937 0.16406,0.32813 0.16406,0.88282 l 0,2.78515 -0.73047,0 0,-2.90625 q 0,-0.41797 -0.21093,-0.57422 -0.20703,-0.15625 -0.50782,-0.15625 -0.41406,0 -0.71484,0.27735 -0.29687,0.27734 -0.29687,0.92578 l 0,2.43359 -0.71485,0 0,-2.73047 q 0,-0.42578 -0.10156,-0.62109 -0.16016,-0.29297 -0.59766,-0.29297 -0.39843,0 -0.72656,0.3086 -0.32422,0.30859 -0.32422,1.11718 l 0,2.21875 -0.70312,0 0,-4.18359 z"
         style="font-style:normal;font-variant:normal;font-weight:normal;font-stretch:normal;font-family:sans-serif;-inkscape-font-specification:sans-serif;letter-spacing:0.38px"
         id="path6214" />
      <path
         d="m 190.49907,98.766602 0.59375,0 -1.82031,5.738278 -0.59375,0 1.82031,-5.738278 z"
         style="font-style:normal;font-variant:normal;font-weight:normal;font-stretch:normal;font-family:sans-serif;-inkscape-font-specification:sans-serif;letter-spacing:0.38px"
         id="path6216" />
      <path
         d="m 196.1575,104.03223 q 0.49219,0 0.81641,-0.41016 0.32812,-0.41406 0.32812,-1.23437 0,-0.5 -0.14453,-0.85938 -0.27344,-0.69141 -1,-0.69141 -0.73047,0 -1,0.73047 -0.14453,0.39063 -0.14453,0.99219 0,0.48438 0.14453,0.82422 0.27344,0.64844 1,0.64844 z m -1.82031,-3.69141 0.68359,0 0,0.55469 q 0.21094,-0.28516 0.46094,-0.44141 0.35547,-0.23437 0.83594,-0.23437 0.71093,0 1.20703,0.54687 0.49609,0.54297 0.49609,1.55469 0,1.36719 -0.71484,1.95312 -0.45313,0.3711 -1.05469,0.3711 -0.47266,0 -0.79297,-0.20703 -0.1875,-0.11719 -0.41797,-0.40235 l 0,2.13672 -0.70312,0 0,-5.83203 z"
         style="font-style:normal;font-variant:normal;font-weight:normal;font-stretch:normal;font-family:sans-serif;-inkscape-font-specification:sans-serif;letter-spacing:0.38px"
         id="path6218" />
      <path
         d="m 199.76407,103.3916 q 0,0.30469 0.22265,0.48047 0.22266,0.17578 0.52735,0.17578 0.37109,0 0.71875,-0.17187 0.58594,-0.28516 0.58594,-0.9336 l 0,-0.5664 q -0.12891,0.082 -0.33204,0.13672 -0.20312,0.0547 -0.39843,0.0781 l -0.42578,0.0547 q -0.38282,0.0508 -0.57422,0.16015 -0.32422,0.1836 -0.32422,0.58594 z m 1.70312,-1.42187 q 0.24219,-0.0312 0.32422,-0.20313 0.0469,-0.0937 0.0469,-0.26953 0,-0.35937 -0.25782,-0.51953 -0.2539,-0.16406 -0.73046,-0.16406 -0.55079,0 -0.78125,0.29687 -0.12891,0.16406 -0.16797,0.48828 l -0.65625,0 q 0.0195,-0.77343 0.5,-1.07422 0.48437,-0.30468 1.12109,-0.30468 0.73828,0 1.19922,0.28125 0.45703,0.28125 0.45703,0.875 l 0,2.41015 q 0,0.10938 0.043,0.17578 0.0469,0.0664 0.19141,0.0664 0.0469,0 0.10546,-0.004 0.0586,-0.008 0.125,-0.0195 l 0,0.51953 q -0.16406,0.0469 -0.25,0.0586 -0.0859,0.0117 -0.23437,0.0117 -0.36328,0 -0.52734,-0.25782 -0.0859,-0.13671 -0.1211,-0.38671 -0.21484,0.28125 -0.61719,0.48828 -0.40234,0.20703 -0.88671,0.20703 -0.58204,0 -0.95313,-0.35156 -0.36719,-0.35547 -0.36719,-0.88672 0,-0.58203 0.36328,-0.90235 0.36329,-0.32031 0.95313,-0.39453 l 1.12109,-0.14062 z m -0.58203,-1.75 0,0 z"
         style="font-style:normal;font-variant:normal;font-weight:normal;font-stretch:normal;font-family:sans-serif;-inkscape-font-specification:sans-serif;letter-spacing:0.38px"
         id="path6220" />
      <path
         d="m 205.6714,100.2002 q 0.70703,0 1.14844,0.34375 0.44531,0.34375 0.53516,1.18359 l -0.6836,0 q -0.0625,-0.38672 -0.28515,-0.64063 -0.22266,-0.25781 -0.71485,-0.25781 -0.67187,0 -0.96094,0.65625 -0.1875,0.42578 -0.1875,1.05078 0,0.62891 0.26563,1.0586 0.26562,0.42968 0.83594,0.42968 0.4375,0 0.6914,-0.26562 0.25782,-0.26953 0.35547,-0.73438 l 0.6836,0 q -0.11719,0.83204 -0.58594,1.21875 -0.46875,0.38282 -1.19922,0.38282 -0.82031,0 -1.30859,-0.59766 -0.48829,-0.60156 -0.48829,-1.5 0,-1.10156 0.53516,-1.71484 0.53516,-0.61328 1.36328,-0.61328 z m -0.10937,0.0195 0,0 z"
         style="font-style:normal;font-variant:normal;font-weight:normal;font-stretch:normal;font-family:sans-serif;-inkscape-font-specification:sans-serif;letter-spacing:0.38px"
         id="path6222" />
      <path
         d="m 208.4225,98.766602 0.67578,0 0,3.332028 1.80469,-1.77734 0.89844,0 -1.60157,1.56641 1.69141,2.61718 -0.89844,0 -1.30468,-2.10937 -0.58985,0.53906 0,1.57031 -0.67578,0 0,-5.738278 z"
         style="font-style:normal;font-variant:normal;font-weight:normal;font-stretch:normal;font-family:sans-serif;-inkscape-font-specification:sans-serif;letter-spacing:0.38px"
         id="path6224" />
      <path
         d="m 213.35719,103.3916 q 0,0.30469 0.22266,0.48047 0.22266,0.17578 0.52734,0.17578 0.3711,0 0.71875,-0.17187 0.58594,-0.28516 0.58594,-0.9336 l 0,-0.5664 q -0.12891,0.082 -0.33203,0.13672 -0.20313,0.0547 -0.39844,0.0781 l -0.42578,0.0547 q -0.38281,0.0508 -0.57422,0.16015 -0.32422,0.1836 -0.32422,0.58594 z m 1.70313,-1.42187 q 0.24219,-0.0312 0.32422,-0.20313 0.0469,-0.0937 0.0469,-0.26953 0,-0.35937 -0.25781,-0.51953 -0.25391,-0.16406 -0.73047,-0.16406 -0.55078,0 -0.78125,0.29687 -0.12891,0.16406 -0.16797,0.48828 l -0.65625,0 q 0.0195,-0.77343 0.5,-1.07422 0.48438,-0.30468 1.1211,-0.30468 0.73828,0 1.19921,0.28125 0.45704,0.28125 0.45704,0.875 l 0,2.41015 q 0,0.10938 0.043,0.17578 0.0469,0.0664 0.19141,0.0664 0.0469,0 0.10547,-0.004 0.0586,-0.008 0.125,-0.0195 l 0,0.51953 q -0.16406,0.0469 -0.25,0.0586 -0.0859,0.0117 -0.23438,0.0117 -0.36328,0 -0.52734,-0.25782 -0.0859,-0.13671 -0.12109,-0.38671 -0.21485,0.28125 -0.61719,0.48828 -0.40234,0.20703 -0.88672,0.20703 -0.58203,0 -0.95312,-0.35156 -0.36719,-0.35547 -0.36719,-0.88672 0,-0.58203 0.36328,-0.90235 0.36328,-0.32031 0.95312,-0.39453 l 1.1211,-0.14062 z m -0.58203,-1.75 0,0 z"
         style="font-style:normal;font-variant:normal;font-weight:normal;font-stretch:normal;font-family:sans-serif;-inkscape-font-specification:sans-serif;letter-spacing:0.38px"
         id="path6226" />
      <path
         d="m 219.12781,100.24707 q 0.49219,0 0.85937,0.24219 0.19922,0.13672 0.40625,0.39844 l 0,-0.52735 0.64844,0 0,3.80469 q 0,0.79687 -0.23437,1.25781 -0.4375,0.85156 -1.65235,0.85156 -0.67578,0 -1.13672,-0.30468 -0.46093,-0.30078 -0.51562,-0.94532 l 0.71484,0 q 0.0508,0.28125 0.20313,0.4336 0.23828,0.23437 0.75,0.23437 0.80859,0 1.05859,-0.57031 0.14844,-0.33594 0.13672,-1.19922 -0.21094,0.32031 -0.50781,0.47656 -0.29688,0.15625 -0.78516,0.15625 -0.67969,0 -1.19141,-0.48046 -0.50781,-0.48438 -0.50781,-1.59766 0,-1.05078 0.51172,-1.64063 0.51563,-0.58984 1.24219,-0.58984 z m 1.26562,2.14844 q 0,-0.77735 -0.32031,-1.15235 -0.32031,-0.375 -0.81641,-0.375 -0.74218,0 -1.01562,0.69532 -0.14453,0.37109 -0.14453,0.97265 0,0.70703 0.28515,1.07813 0.28907,0.36719 0.77344,0.36719 0.75781,0 1.06641,-0.6836 0.17187,-0.38672 0.17187,-0.90234 z m -1.18359,-2.17578 0,0 z"
         style="font-style:normal;font-variant:normal;font-weight:normal;font-stretch:normal;font-family:sans-serif;-inkscape-font-specification:sans-serif;letter-spacing:0.38px"
         id="path6228" />
      <path
         d="m 224.22656,100.22754 q 0.44531,0 0.86328,0.21094 0.41797,0.20703 0.63672,0.53906 0.21094,0.31641 0.28125,0.73828 0.0625,0.28906 0.0625,0.92188 l -3.0664,0 q 0.0195,0.63671 0.30078,1.02343 0.28125,0.38282 0.87109,0.38282 0.55078,0 0.87891,-0.36329 0.1875,-0.21093 0.26562,-0.48828 l 0.69141,0 q -0.0273,0.23047 -0.1836,0.51563 -0.15234,0.28125 -0.34375,0.46094 -0.32031,0.3125 -0.79296,0.42187 -0.25391,0.0625 -0.57422,0.0625 -0.78125,0 -1.32422,-0.56641 -0.54297,-0.57031 -0.54297,-1.59375 0,-1.00781 0.54687,-1.63671 0.54688,-0.62891 1.42969,-0.62891 z m 1.1211,1.85156 q -0.043,-0.45703 -0.19922,-0.73047 -0.28907,-0.50781 -0.96485,-0.50781 -0.48437,0 -0.8125,0.35156 -0.32812,0.34766 -0.34765,0.88672 l 2.32422,0 z m -1.1875,-1.85937 0,0 z"
         style="font-style:normal;font-variant:normal;font-weight:normal;font-stretch:normal;font-family:sans-serif;-inkscape-font-specification:sans-serif;letter-spacing:0.38px"
         id="path6230" />
      <path
         d="m 227.73547,103.19238 q 0.0312,0.35157 0.17578,0.53907 0.26563,0.33984 0.92188,0.33984 0.39062,0 0.6875,-0.16797 0.29687,-0.17187 0.29687,-0.52734 0,-0.26953 -0.23828,-0.41016 -0.15234,-0.0859 -0.60156,-0.19922 l -0.55859,-0.14062 q -0.53516,-0.13282 -0.78907,-0.29688 -0.45312,-0.28515 -0.45312,-0.78906 0,-0.59375 0.42578,-0.96094 0.42969,-0.36719 1.15234,-0.36719 0.94532,0 1.36329,0.55469 0.26171,0.35156 0.2539,0.75781 l -0.66406,0 q -0.0195,-0.23828 -0.16797,-0.43359 -0.24219,-0.27734 -0.83984,-0.27734 -0.39844,0 -0.60547,0.15234 -0.20313,0.15234 -0.20313,0.40234 0,0.27344 0.26953,0.4375 0.15625,0.0977 0.46094,0.17188 l 0.46485,0.11328 q 0.75781,0.18359 1.01562,0.35547 0.41016,0.26953 0.41016,0.84766 0,0.55859 -0.42578,0.96484 -0.42188,0.40625 -1.28907,0.40625 -0.93359,0 -1.32422,-0.42188 -0.38671,-0.42578 -0.41406,-1.05078 l 0.67578,0 z m 1.03907,-2.97265 0,0 z"
         style="font-style:normal;font-variant:normal;font-weight:normal;font-stretch:normal;font-family:sans-serif;-inkscape-font-specification:sans-serif;letter-spacing:0.38px"
         id="path6232" />
      <path
         d="m 235.60094,98.766602 0.59375,0 -1.82032,5.738278 -0.59375,0 1.82032,-5.738278 z"
         style="font-style:normal;font-variant:normal;font-weight:normal;font-stretch:normal;font-family:sans-serif;-inkscape-font-specification:sans-serif;letter-spacing:0.38px"
         id="path6234" />
      <path
         d="m 239.49374,100.32129 0.69532,0 0,0.59375 q 0.25,-0.30859 0.45312,-0.44922 0.34766,-0.23828 0.78906,-0.23828 0.5,0 0.80469,0.24609 0.17188,0.14063 0.3125,0.41407 0.23438,-0.33594 0.55078,-0.4961 0.31641,-0.16406 0.71094,-0.16406 0.84375,0 1.14844,0.60937 0.16406,0.32813 0.16406,0.88282 l 0,2.78515 -0.73047,0 0,-2.90625 q 0,-0.41797 -0.21094,-0.57422 -0.20703,-0.15625 -0.50781,-0.15625 -0.41406,0 -0.71484,0.27735 -0.29688,0.27734 -0.29688,0.92578 l 0,2.43359 -0.71484,0 0,-2.73047 q 0,-0.42578 -0.10156,-0.62109 -0.16016,-0.29297 -0.59766,-0.29297 -0.39844,0 -0.72656,0.3086 -0.32422,0.30859 -0.32422,1.11718 l 0,2.21875 -0.70313,0 0,-4.18359 z"
         style="font-style:normal;font-variant:normal;font-weight:normal;font-stretch:normal;font-family:sans-serif;-inkscape-font-specification:sans-serif;letter-spacing:0.38px"
         id="path6236" />
      <path
         d="m 249.15891,100.32129 0.77734,0 q -0.14844,0.40234 -0.66016,1.83594 -0.38281,1.07812 -0.64062,1.75781 -0.60938,1.60156 -0.85938,1.95312 -0.25,0.35157 -0.85937,0.35157 -0.14844,0 -0.23047,-0.0117 -0.0781,-0.0117 -0.19531,-0.043 l 0,-0.64063 q 0.18359,0.0508 0.26562,0.0625 0.082,0.0117 0.14453,0.0117 0.19532,0 0.28516,-0.0664 0.0937,-0.0625 0.15625,-0.15625 0.0195,-0.0312 0.14062,-0.32032 0.1211,-0.28906 0.17579,-0.42968 l -1.54688,-4.30469 0.79688,0 1.12109,3.40625 1.12891,-3.40625 z m -1.13282,-0.10156 0,0 z"
         style="font-style:normal;font-variant:normal;font-weight:normal;font-stretch:normal;font-family:sans-serif;-inkscape-font-specification:sans-serif;letter-spacing:0.38px"
         id="path6238" />
      <path
         d="m 250.41,105.50488 0,-0.39453 4.44922,0 0,0.39453 -4.44922,0 z"
         style="font-style:normal;font-variant:normal;font-weight:normal;font-stretch:normal;font-family:sans-serif;-inkscape-font-specification:sans-serif;letter-spacing:0.38px"
         id="path6240" />
      <path
         d="m 257.52437,104.03223 q 0.49219,0 0.8164,-0.41016 0.32813,-0.41406 0.32813,-1.23437 0,-0.5 -0.14453,-0.85938 -0.27344,-0.69141 -1,-0.69141 -0.73047,0 -1,0.73047 -0.14453,0.39063 -0.14453,0.99219 0,0.48438 0.14453,0.82422 0.27344,0.64844 1,0.64844 z m -1.82031,-3.69141 0.68359,0 0,0.55469 q 0.21094,-0.28516 0.46094,-0.44141 0.35547,-0.23437 0.83593,-0.23437 0.71094,0 1.20704,0.54687 0.49609,0.54297 0.49609,1.55469 0,1.36719 -0.71484,1.95312 -0.45313,0.3711 -1.05469,0.3711 -0.47266,0 -0.79297,-0.20703 -0.1875,-0.11719 -0.41797,-0.40235 l 0,2.13672 -0.70312,0 0,-5.83203 z"
         style="font-style:normal;font-variant:normal;font-weight:normal;font-stretch:normal;font-family:sans-serif;-inkscape-font-specification:sans-serif;letter-spacing:0.38px"
         id="path6242" />
      <path
         d="m 261.13094,103.3916 q 0,0.30469 0.22265,0.48047 0.22266,0.17578 0.52735,0.17578 0.37109,0 0.71875,-0.17187 0.58593,-0.28516 0.58593,-0.9336 l 0,-0.5664 q -0.1289,0.082 -0.33203,0.13672 -0.20312,0.0547 -0.39844,0.0781 l -0.42578,0.0547 q -0.38281,0.0508 -0.57422,0.16015 -0.32421,0.1836 -0.32421,0.58594 z m 1.70312,-1.42187 q 0.24219,-0.0312 0.32422,-0.20313 0.0469,-0.0937 0.0469,-0.26953 0,-0.35937 -0.25781,-0.51953 -0.2539,-0.16406 -0.73047,-0.16406 -0.55078,0 -0.78125,0.29687 -0.1289,0.16406 -0.16797,0.48828 l -0.65625,0 q 0.0195,-0.77343 0.5,-1.07422 0.48438,-0.30468 1.1211,-0.30468 0.73828,0 1.19922,0.28125 0.45703,0.28125 0.45703,0.875 l 0,2.41015 q 0,0.10938 0.043,0.17578 0.0469,0.0664 0.1914,0.0664 0.0469,0 0.10547,-0.004 0.0586,-0.008 0.125,-0.0195 l 0,0.51953 q -0.16406,0.0469 -0.25,0.0586 -0.0859,0.0117 -0.23437,0.0117 -0.36328,0 -0.52735,-0.25782 -0.0859,-0.13671 -0.12109,-0.38671 -0.21484,0.28125 -0.61719,0.48828 -0.40234,0.20703 -0.88672,0.20703 -0.58203,0 -0.95312,-0.35156 -0.36719,-0.35547 -0.36719,-0.88672 0,-0.58203 0.36328,-0.90235 0.36328,-0.32031 0.95313,-0.39453 l 1.12109,-0.14062 z m -0.58203,-1.75 0,0 z"
         style="font-style:normal;font-variant:normal;font-weight:normal;font-stretch:normal;font-family:sans-serif;-inkscape-font-specification:sans-serif;letter-spacing:0.38px"
         id="path6244" />
      <path
         d="m 267.03828,100.2002 q 0.70704,0 1.14844,0.34375 0.44531,0.34375 0.53516,1.18359 l -0.6836,0 q -0.0625,-0.38672 -0.28515,-0.64063 -0.22266,-0.25781 -0.71485,-0.25781 -0.67187,0 -0.96093,0.65625 -0.1875,0.42578 -0.1875,1.05078 0,0.62891 0.26562,1.0586 0.26563,0.42968 0.83594,0.42968 0.4375,0 0.69141,-0.26562 0.25781,-0.26953 0.35546,-0.73438 l 0.6836,0 q -0.11719,0.83204 -0.58594,1.21875 -0.46875,0.38282 -1.19922,0.38282 -0.82031,0 -1.30859,-0.59766 -0.48828,-0.60156 -0.48828,-1.5 0,-1.10156 0.53515,-1.71484 0.53516,-0.61328 1.36328,-0.61328 z m -0.10937,0.0195 0,0 z"
         style="font-style:normal;font-variant:normal;font-weight:normal;font-stretch:normal;font-family:sans-serif;-inkscape-font-specification:sans-serif;letter-spacing:0.38px"
         id="path6246" />
      <path
         d="m 269.78937,98.766602 0.67578,0 0,3.332028 1.80469,-1.77734 0.89843,0 -1.60156,1.56641 1.69141,2.61718 -0.89844,0 -1.30469,-2.10937 -0.58984,0.53906 0,1.57031 -0.67578,0 0,-5.738278 z"
         style="font-style:normal;font-variant:normal;font-weight:normal;font-stretch:normal;font-family:sans-serif;-inkscape-font-specification:sans-serif;letter-spacing:0.38px"
         id="path6248" />
      <path
         d="m 274.72406,103.3916 q 0,0.30469 0.22266,0.48047 0.22265,0.17578 0.52734,0.17578 0.37109,0 0.71875,-0.17187 0.58594,-0.28516 0.58594,-0.9336 l 0,-0.5664 q -0.12891,0.082 -0.33203,0.13672 -0.20313,0.0547 -0.39844,0.0781 l -0.42578,0.0547 q -0.38281,0.0508 -0.57422,0.16015 -0.32422,0.1836 -0.32422,0.58594 z m 1.70313,-1.42187 q 0.24218,-0.0312 0.32421,-0.20313 0.0469,-0.0937 0.0469,-0.26953 0,-0.35937 -0.25781,-0.51953 -0.25391,-0.16406 -0.73047,-0.16406 -0.55078,0 -0.78125,0.29687 -0.12891,0.16406 -0.16797,0.48828 l -0.65625,0 q 0.0195,-0.77343 0.5,-1.07422 0.48437,-0.30468 1.12109,-0.30468 0.73828,0 1.19922,0.28125 0.45703,0.28125 0.45703,0.875 l 0,2.41015 q 0,0.10938 0.043,0.17578 0.0469,0.0664 0.19141,0.0664 0.0469,0 0.10547,-0.004 0.0586,-0.008 0.125,-0.0195 l 0,0.51953 q -0.16407,0.0469 -0.25,0.0586 -0.0859,0.0117 -0.23438,0.0117 -0.36328,0 -0.52734,-0.25782 -0.0859,-0.13671 -0.1211,-0.38671 -0.21484,0.28125 -0.61718,0.48828 -0.40235,0.20703 -0.88672,0.20703 -0.58203,0 -0.95313,-0.35156 -0.36718,-0.35547 -0.36718,-0.88672 0,-0.58203 0.36328,-0.90235 0.36328,-0.32031 0.95312,-0.39453 l 1.1211,-0.14062 z m -0.58204,-1.75 0,0 z"
         style="font-style:normal;font-variant:normal;font-weight:normal;font-stretch:normal;font-family:sans-serif;-inkscape-font-specification:sans-serif;letter-spacing:0.38px"
         id="path6250" />
      <path
         d="m 280.49469,100.24707 q 0.49219,0 0.85937,0.24219 0.19922,0.13672 0.40625,0.39844 l 0,-0.52735 0.64844,0 0,3.80469 q 0,0.79687 -0.23437,1.25781 -0.4375,0.85156 -1.65235,0.85156 -0.67578,0 -1.13672,-0.30468 -0.46093,-0.30078 -0.51562,-0.94532 l 0.71484,0 q 0.0508,0.28125 0.20313,0.4336 0.23828,0.23437 0.75,0.23437 0.80859,0 1.05859,-0.57031 0.14844,-0.33594 0.13672,-1.19922 -0.21094,0.32031 -0.50781,0.47656 -0.29688,0.15625 -0.78516,0.15625 -0.67969,0 -1.1914,-0.48046 -0.50782,-0.48438 -0.50782,-1.59766 0,-1.05078 0.51172,-1.64063 0.51563,-0.58984 1.24219,-0.58984 z m 1.26562,2.14844 q 0,-0.77735 -0.32031,-1.15235 -0.32031,-0.375 -0.8164,-0.375 -0.74219,0 -1.01563,0.69532 -0.14453,0.37109 -0.14453,0.97265 0,0.70703 0.28516,1.07813 0.28906,0.36719 0.77343,0.36719 0.75782,0 1.06641,-0.6836 0.17187,-0.38672 0.17187,-0.90234 z m -1.18359,-2.17578 0,0 z"
         style="font-style:normal;font-variant:normal;font-weight:normal;font-stretch:normal;font-family:sans-serif;-inkscape-font-specification:sans-serif;letter-spacing:0.38px"
         id="path6252" />
      <path
         d="m 285.59344,100.22754 q 0.44532,0 0.86329,0.21094 0.41796,0.20703 0.63671,0.53906 0.21094,0.31641 0.28125,0.73828 0.0625,0.28906 0.0625,0.92188 l -3.0664,0 q 0.0195,0.63671 0.30078,1.02343 0.28125,0.38282 0.87109,0.38282 0.55078,0 0.87891,-0.36329 0.1875,-0.21093 0.26562,-0.48828 l 0.69141,0 q -0.0273,0.23047 -0.18359,0.51563 -0.15235,0.28125 -0.34375,0.46094 -0.32032,0.3125 -0.79297,0.42187 -0.25391,0.0625 -0.57422,0.0625 -0.78125,0 -1.32422,-0.56641 -0.54297,-0.57031 -0.54297,-1.59375 0,-1.00781 0.54688,-1.63671 0.54687,-0.62891 1.42968,-0.62891 z m 1.1211,1.85156 q -0.043,-0.45703 -0.19922,-0.73047 -0.28906,-0.50781 -0.96484,-0.50781 -0.48438,0 -0.8125,0.35156 -0.32813,0.34766 -0.34766,0.88672 l 2.32422,0 z m -1.1875,-1.85937 0,0 z"
         style="font-style:normal;font-variant:normal;font-weight:normal;font-stretch:normal;font-family:sans-serif;-inkscape-font-specification:sans-serif;letter-spacing:0.38px"
         id="path6254" />
      <path
         d="m 292.5878,98.766602 0.59375,0 -1.82031,5.738278 -0.59375,0 1.82031,-5.738278 z"
         style="font-style:normal;font-variant:normal;font-weight:normal;font-stretch:normal;font-family:sans-serif;-inkscape-font-specification:sans-serif;letter-spacing:0.38px"
         id="path6256" />
      <path
         d="m 298.24625,104.03223 q 0.49218,0 0.8164,-0.41016 0.32813,-0.41406 0.32813,-1.23437 0,-0.5 -0.14453,-0.85938 -0.27344,-0.69141 -1,-0.69141 -0.73047,0 -1,0.73047 -0.14453,0.39063 -0.14453,0.99219 0,0.48438 0.14453,0.82422 0.27343,0.64844 1,0.64844 z m -1.82032,-3.69141 0.6836,0 0,0.55469 q 0.21094,-0.28516 0.46094,-0.44141 0.35546,-0.23437 0.83593,-0.23437 0.71094,0 1.20703,0.54687 0.4961,0.54297 0.4961,1.55469 0,1.36719 -0.71485,1.95312 -0.45312,0.3711 -1.05468,0.3711 -0.47266,0 -0.79297,-0.20703 -0.1875,-0.11719 -0.41797,-0.40235 l 0,2.13672 -0.70313,0 0,-5.83203 z"
         style="font-style:normal;font-variant:normal;font-weight:normal;font-stretch:normal;font-family:sans-serif;-inkscape-font-specification:sans-serif;letter-spacing:0.38px"
         id="path6258" />
      <path
         d="m 301.85281,103.3916 q 0,0.30469 0.22266,0.48047 0.22266,0.17578 0.52734,0.17578 0.3711,0 0.71875,-0.17187 0.58594,-0.28516 0.58594,-0.9336 l 0,-0.5664 q -0.12891,0.082 -0.33203,0.13672 -0.20313,0.0547 -0.39844,0.0781 l -0.42578,0.0547 q -0.38281,0.0508 -0.57422,0.16015 -0.32422,0.1836 -0.32422,0.58594 z m 1.70313,-1.42187 q 0.24219,-0.0312 0.32422,-0.20313 0.0469,-0.0937 0.0469,-0.26953 0,-0.35937 -0.25781,-0.51953 -0.25391,-0.16406 -0.73047,-0.16406 -0.55078,0 -0.78125,0.29687 -0.12891,0.16406 -0.16797,0.48828 l -0.65625,0 q 0.0195,-0.77343 0.5,-1.07422 0.48438,-0.30468 1.1211,-0.30468 0.73828,0 1.19921,0.28125 0.45704,0.28125 0.45704,0.875 l 0,2.41015 q 0,0.10938 0.043,0.17578 0.0469,0.0664 0.19141,0.0664 0.0469,0 0.10547,-0.004 0.0586,-0.008 0.125,-0.0195 l 0,0.51953 q -0.16406,0.0469 -0.25,0.0586 -0.0859,0.0117 -0.23438,0.0117 -0.36328,0 -0.52734,-0.25782 -0.0859,-0.13671 -0.12109,-0.38671 -0.21485,0.28125 -0.61719,0.48828 -0.40234,0.20703 -0.88672,0.20703 -0.58203,0 -0.95312,-0.35156 -0.36719,-0.35547 -0.36719,-0.88672 0,-0.58203 0.36328,-0.90235 0.36328,-0.32031 0.95312,-0.39453 l 1.1211,-0.14062 z m -0.58203,-1.75 0,0 z"
         style="font-style:normal;font-variant:normal;font-weight:normal;font-stretch:normal;font-family:sans-serif;-inkscape-font-specification:sans-serif;letter-spacing:0.38px"
         id="path6260" />
      <path
         d="m 307.62344,100.24707 q 0.49219,0 0.85938,0.24219 0.19922,0.13672 0.40625,0.39844 l 0,-0.52735 0.64844,0 0,3.80469 q 0,0.79687 -0.23438,1.25781 -0.4375,0.85156 -1.65234,0.85156 -0.67578,0 -1.13672,-0.30468 -0.46094,-0.30078 -0.51563,-0.94532 l 0.71485,0 q 0.0508,0.28125 0.20312,0.4336 0.23828,0.23437 0.75,0.23437 0.8086,0 1.0586,-0.57031 0.14843,-0.33594 0.13671,-1.19922 -0.21093,0.32031 -0.50781,0.47656 -0.29687,0.15625 -0.78515,0.15625 -0.67969,0 -1.19141,-0.48046 -0.50781,-0.48438 -0.50781,-1.59766 0,-1.05078 0.51172,-1.64063 0.51562,-0.58984 1.24218,-0.58984 z m 1.26563,2.14844 q 0,-0.77735 -0.32031,-1.15235 -0.32032,-0.375 -0.81641,-0.375 -0.74219,0 -1.01563,0.69532 -0.14453,0.37109 -0.14453,0.97265 0,0.70703 0.28516,1.07813 0.28906,0.36719 0.77344,0.36719 0.75781,0 1.0664,-0.6836 0.17188,-0.38672 0.17188,-0.90234 z m -1.1836,-2.17578 0,0 z"
         style="font-style:normal;font-variant:normal;font-weight:normal;font-stretch:normal;font-family:sans-serif;-inkscape-font-specification:sans-serif;letter-spacing:0.38px"
         id="path6262" />
      <path
         d="m 312.7222,100.22754 q 0.44531,0 0.86328,0.21094 0.41797,0.20703 0.63672,0.53906 0.21094,0.31641 0.28125,0.73828 0.0625,0.28906 0.0625,0.92188 l -3.06641,0 q 0.0195,0.63671 0.30078,1.02343 0.28125,0.38282 0.8711,0.38282 0.55078,0 0.8789,-0.36329 0.1875,-0.21093 0.26563,-0.48828 l 0.6914,0 q -0.0273,0.23047 -0.18359,0.51563 -0.15234,0.28125 -0.34375,0.46094 -0.32031,0.3125 -0.79297,0.42187 -0.2539,0.0625 -0.57422,0.0625 -0.78125,0 -1.32422,-0.56641 -0.54296,-0.57031 -0.54296,-1.59375 0,-1.00781 0.54687,-1.63671 0.54688,-0.62891 1.42969,-0.62891 z m 1.12109,1.85156 q -0.043,-0.45703 -0.19922,-0.73047 -0.28906,-0.50781 -0.96484,-0.50781 -0.48438,0 -0.8125,0.35156 -0.32813,0.34766 -0.34766,0.88672 l 2.32422,0 z m -1.1875,-1.85937 0,0 z"
         style="font-style:normal;font-variant:normal;font-weight:normal;font-stretch:normal;font-family:sans-serif;-inkscape-font-specification:sans-serif;letter-spacing:0.38px"
         id="path6264" />
      <path
         d="m 316.23108,103.19238 q 0.0312,0.35157 0.17578,0.53907 0.26563,0.33984 0.92188,0.33984 0.39062,0 0.6875,-0.16797 0.29687,-0.17187 0.29687,-0.52734 0,-0.26953 -0.23828,-0.41016 -0.15234,-0.0859 -0.60156,-0.19922 l -0.5586,-0.14062 q -0.53515,-0.13282 -0.78906,-0.29688 -0.45312,-0.28515 -0.45312,-0.78906 0,-0.59375 0.42578,-0.96094 0.42968,-0.36719 1.15234,-0.36719 0.94531,0 1.36328,0.55469 0.26172,0.35156 0.25391,0.75781 l -0.66406,0 q -0.0195,-0.23828 -0.16797,-0.43359 -0.24219,-0.27734 -0.83985,-0.27734 -0.39843,0 -0.60547,0.15234 -0.20312,0.15234 -0.20312,0.40234 0,0.27344 0.26953,0.4375 0.15625,0.0977 0.46094,0.17188 l 0.46484,0.11328 q 0.75781,0.18359 1.01563,0.35547 0.41015,0.26953 0.41015,0.84766 0,0.55859 -0.42578,0.96484 -0.42187,0.40625 -1.28906,0.40625 -0.93359,0 -1.32422,-0.42188 -0.38672,-0.42578 -0.41406,-1.05078 l 0.67578,0 z m 1.03906,-2.97265 0,0 z"
         style="font-style:normal;font-variant:normal;font-weight:normal;font-stretch:normal;font-family:sans-serif;-inkscape-font-specification:sans-serif;letter-spacing:0.38px"
         id="path6266" />
      <path
         d="m 324.09656,98.766602 0.59375,0 -1.82031,5.738278 -0.59375,0 1.82031,-5.738278 z"
         style="font-style:normal;font-variant:normal;font-weight:normal;font-stretch:normal;font-family:sans-serif;-inkscape-font-specification:sans-serif;letter-spacing:0.38px"
         id="path6268" />
      <path
         d="m 327.98938,100.32129 0.69531,0 0,0.59375 q 0.25,-0.30859 0.45313,-0.44922 0.34765,-0.23828 0.78906,-0.23828 0.5,0 0.80469,0.24609 0.17187,0.14063 0.3125,0.41407 0.23437,-0.33594 0.55078,-0.4961 0.3164,-0.16406 0.71094,-0.16406 0.84375,0 1.14843,0.60937 0.16407,0.32813 0.16407,0.88282 l 0,2.78515 -0.73047,0 0,-2.90625 q 0,-0.41797 -0.21094,-0.57422 -0.20703,-0.15625 -0.50781,-0.15625 -0.41407,0 -0.71485,0.27735 -0.29687,0.27734 -0.29687,0.92578 l 0,2.43359 -0.71485,0 0,-2.73047 q 0,-0.42578 -0.10156,-0.62109 -0.16015,-0.29297 -0.59765,-0.29297 -0.39844,0 -0.72657,0.3086 -0.32422,0.30859 -0.32422,1.11718 l 0,2.21875 -0.70312,0 0,-4.18359 z"
         style="font-style:normal;font-variant:normal;font-weight:normal;font-stretch:normal;font-family:sans-serif;-inkscape-font-specification:sans-serif;letter-spacing:0.38px"
         id="path6270" />
      <path
         d="m 337.65454,100.32129 0.77734,0 q -0.14843,0.40234 -0.66015,1.83594 -0.38281,1.07812 -0.64063,1.75781 -0.60937,1.60156 -0.85937,1.95312 -0.25,0.35157 -0.85938,0.35157 -0.14843,0 -0.23047,-0.0117 -0.0781,-0.0117 -0.19531,-0.043 l 0,-0.64063 q 0.1836,0.0508 0.26563,0.0625 0.082,0.0117 0.14453,0.0117 0.19531,0 0.28515,-0.0664 0.0937,-0.0625 0.15625,-0.15625 0.0195,-0.0312 0.14063,-0.32032 0.12109,-0.28906 0.17578,-0.42968 l -1.54687,-4.30469 0.79687,0 1.12109,3.40625 1.12891,-3.40625 z m -1.13281,-0.10156 0,0 z"
         style="font-style:normal;font-variant:normal;font-weight:normal;font-stretch:normal;font-family:sans-serif;-inkscape-font-specification:sans-serif;letter-spacing:0.38px"
         id="path6272" />
      <path
         d="m 338.90564,105.50488 0,-0.39453 4.44922,0 0,0.39453 -4.44922,0 z"
         style="font-style:normal;font-variant:normal;font-weight:normal;font-stretch:normal;font-family:sans-serif;-inkscape-font-specification:sans-serif;letter-spacing:0.38px"
         id="path6274" />
      <path
         d="m 346.01999,104.03223 q 0.49219,0 0.81641,-0.41016 0.32812,-0.41406 0.32812,-1.23437 0,-0.5 -0.14453,-0.85938 -0.27344,-0.69141 -1,-0.69141 -0.73047,0 -1,0.73047 -0.14453,0.39063 -0.14453,0.99219 0,0.48438 0.14453,0.82422 0.27344,0.64844 1,0.64844 z m -1.82031,-3.69141 0.68359,0 0,0.55469 q 0.21094,-0.28516 0.46094,-0.44141 0.35547,-0.23437 0.83594,-0.23437 0.71093,0 1.20703,0.54687 0.49609,0.54297 0.49609,1.55469 0,1.36719 -0.71484,1.95312 -0.45313,0.3711 -1.05469,0.3711 -0.47266,0 -0.79297,-0.20703 -0.1875,-0.11719 -0.41797,-0.40235 l 0,2.13672 -0.70312,0 0,-5.83203 z"
         style="font-style:normal;font-variant:normal;font-weight:normal;font-stretch:normal;font-family:sans-serif;-inkscape-font-specification:sans-serif;letter-spacing:0.38px"
         id="path6276" />
      <path
         d="m 349.62656,103.3916 q 0,0.30469 0.22265,0.48047 0.22266,0.17578 0.52735,0.17578 0.37109,0 0.71875,-0.17187 0.58593,-0.28516 0.58593,-0.9336 l 0,-0.5664 q -0.1289,0.082 -0.33203,0.13672 -0.20312,0.0547 -0.39843,0.0781 l -0.42579,0.0547 q -0.38281,0.0508 -0.57421,0.16015 -0.32422,0.1836 -0.32422,0.58594 z m 1.70312,-1.42187 q 0.24219,-0.0312 0.32422,-0.20313 0.0469,-0.0937 0.0469,-0.26953 0,-0.35937 -0.25782,-0.51953 -0.2539,-0.16406 -0.73047,-0.16406 -0.55078,0 -0.78125,0.29687 -0.1289,0.16406 -0.16796,0.48828 l -0.65625,0 q 0.0195,-0.77343 0.5,-1.07422 0.48437,-0.30468 1.12109,-0.30468 0.73828,0 1.19922,0.28125 0.45703,0.28125 0.45703,0.875 l 0,2.41015 q 0,0.10938 0.043,0.17578 0.0469,0.0664 0.1914,0.0664 0.0469,0 0.10547,-0.004 0.0586,-0.008 0.125,-0.0195 l 0,0.51953 q -0.16406,0.0469 -0.25,0.0586 -0.0859,0.0117 -0.23437,0.0117 -0.36328,0 -0.52735,-0.25782 -0.0859,-0.13671 -0.12109,-0.38671 -0.21484,0.28125 -0.61719,0.48828 -0.40234,0.20703 -0.88672,0.20703 -0.58203,0 -0.95312,-0.35156 -0.36719,-0.35547 -0.36719,-0.88672 0,-0.58203 0.36328,-0.90235 0.36328,-0.32031 0.95313,-0.39453 l 1.12109,-0.14062 z m -0.58203,-1.75 0,0 z"
         style="font-style:normal;font-variant:normal;font-weight:normal;font-stretch:normal;font-family:sans-serif;-inkscape-font-specification:sans-serif;letter-spacing:0.38px"
         id="path6278" />
      <path
         d="m 355.39719,100.24707 q 0.49218,0 0.85937,0.24219 0.19922,0.13672 0.40625,0.39844 l 0,-0.52735 0.64844,0 0,3.80469 q 0,0.79687 -0.23438,1.25781 -0.4375,0.85156 -1.65234,0.85156 -0.67578,0 -1.13672,-0.30468 -0.46094,-0.30078 -0.51562,-0.94532 l 0.71484,0 q 0.0508,0.28125 0.20313,0.4336 0.23828,0.23437 0.75,0.23437 0.80859,0 1.05859,-0.57031 0.14844,-0.33594 0.13672,-1.19922 -0.21094,0.32031 -0.50781,0.47656 -0.29688,0.15625 -0.78516,0.15625 -0.67969,0 -1.19141,-0.48046 -0.50781,-0.48438 -0.50781,-1.59766 0,-1.05078 0.51172,-1.64063 0.51562,-0.58984 1.24219,-0.58984 z m 1.26562,2.14844 q 0,-0.77735 -0.32031,-1.15235 -0.32031,-0.375 -0.81641,-0.375 -0.74218,0 -1.01562,0.69532 -0.14453,0.37109 -0.14453,0.97265 0,0.70703 0.28515,1.07813 0.28907,0.36719 0.77344,0.36719 0.75781,0 1.06641,-0.6836 0.17187,-0.38672 0.17187,-0.90234 z m -1.18359,-2.17578 0,0 z"
         style="font-style:normal;font-variant:normal;font-weight:normal;font-stretch:normal;font-family:sans-serif;-inkscape-font-specification:sans-serif;letter-spacing:0.38px"
         id="path6280" />
      <path
         d="m 360.49594,100.22754 q 0.44531,0 0.86328,0.21094 0.41797,0.20703 0.63672,0.53906 0.21094,0.31641 0.28125,0.73828 0.0625,0.28906 0.0625,0.92188 l -3.06641,0 q 0.0195,0.63671 0.30079,1.02343 0.28125,0.38282 0.87109,0.38282 0.55078,0 0.87891,-0.36329 0.1875,-0.21093 0.26562,-0.48828 l 0.69141,0 q -0.0273,0.23047 -0.1836,0.51563 -0.15234,0.28125 -0.34375,0.46094 -0.32031,0.3125 -0.79297,0.42187 -0.2539,0.0625 -0.57421,0.0625 -0.78125,0 -1.32422,-0.56641 -0.54297,-0.57031 -0.54297,-1.59375 0,-1.00781 0.54687,-1.63671 0.54688,-0.62891 1.42969,-0.62891 z m 1.12109,1.85156 q -0.043,-0.45703 -0.19921,-0.73047 -0.28907,-0.50781 -0.96485,-0.50781 -0.48437,0 -0.8125,0.35156 -0.32812,0.34766 -0.34765,0.88672 l 2.32421,0 z m -1.1875,-1.85937 0,0 z"
         style="font-style:normal;font-variant:normal;font-weight:normal;font-stretch:normal;font-family:sans-serif;-inkscape-font-specification:sans-serif;letter-spacing:0.38px"
         id="path6282" />
      <path
         d="m 367.49033,98.766602 0.59375,0 -1.82032,5.738278 -0.59375,0 1.82032,-5.738278 z"
         style="font-style:normal;font-variant:normal;font-weight:normal;font-stretch:normal;font-family:sans-serif;-inkscape-font-specification:sans-serif;letter-spacing:0.38px"
         id="path6284" />
    </g>
    <path
       sodipodi:nodetypes="cssssc"
       inkscape:connector-curvature="0"
       id="path4152"
       d="m 63.088739,23.69565 0,-0.8765 c 0,-1.110195 -0.900385,-1.474794 -2.0188,-1.474794 l -51.3827345,0 c -1.118415,0 -2.0187991,0.364599 -2.0187991,1.474794 l 0,0.8765"
       style="opacity:0.45800003;fill:none;fill-opacity:1;fill-rule:nonzero;stroke:#00b600;stroke-width:0.30000001;stroke-linecap:butt;stroke-linejoin:miter;stroke-miterlimit:4;stroke-dasharray:none;stroke-dashoffset:0;stroke-opacity:1" />
    <path
       sodipodi:nodetypes="cssssc"
       inkscape:connector-curvature="0"
       id="path4154"
       d="m 77.905405,29.661024 0,4.0515 c 0,1.110195 -0.900385,1.474794 -2.0188,1.474794 l -66.1994005,0 c -1.118415,0 -2.0187991,-0.364599 -2.0187991,-1.474794 l 0,-4.0515"
       style="opacity:0.45800003;fill:none;fill-opacity:1;fill-rule:nonzero;stroke:#0000ff;stroke-width:0.30000001;stroke-linecap:butt;stroke-linejoin:miter;stroke-miterlimit:4;stroke-dasharray:none;stroke-dashoffset:0;stroke-opacity:1" />
    <path
       style="opacity:0.45800003;fill:none;fill-opacity:1;fill-rule:nonzero;stroke:#ff8500;stroke-width:0.30000001;stroke-linecap:butt;stroke-linejoin:miter;stroke-miterlimit:4;stroke-dasharray:none;stroke-dashoffset:0;stroke-opacity:1"
       d="m 86.372072,23.695648 0,-4.0515 c 0,-1.110195 -0.900385,-1.474794 -2.0188,-1.474794 l -74.6660675,0 c -1.118415,0 -2.0187991,0.364599 -2.0187991,1.474794 l 0,4.0515"
       id="path4156"
       inkscape:connector-curvature="0"
       sodipodi:nodetypes="cssssc" />
    <path
       style="opacity:0.45800003;fill:none;fill-opacity:1;fill-rule:nonzero;stroke:#0fa7a6;stroke-width:0.30000001;stroke-linecap:butt;stroke-linejoin:miter;stroke-miterlimit:4;stroke-dasharray:none;stroke-dashoffset:0;stroke-opacity:1"
       d="m 97.484572,29.661026 0,7.2265 c 0,1.110195 -0.900385,1.474794 -2.0188,1.474794 l -85.7785675,0 c -1.118415,0 -2.0187991,-0.364599 -2.0187991,-1.474794 l 0,-7.2265"
       id="path4158"
       inkscape:connector-curvature="0"
       sodipodi:nodetypes="cssssc" />
    <path
       style="opacity:0.45800003;fill:none;fill-opacity:1;fill-rule:nonzero;stroke:#b60000;stroke-width:0.30000001;stroke-linecap:butt;stroke-linejoin:miter;stroke-miterlimit:4;stroke-dasharray:none;stroke-dashoffset:0;stroke-opacity:1"
       d="m 27.634572,29.661022 0,0.8765 c 0,1.110195 -0.900385,1.474794 -2.0188,1.474794 l -15.9285675,0 c -1.118415,0 -2.0187991,-0.364599 -2.0187991,-1.474794 l 0,-0.8765"
       id="rect4149"
       inkscape:connector-curvature="0"
       sodipodi:nodetypes="cssssc" />
    <g
       transform="translate(0,0.26726953)"
       style="font-style:normal;font-weight:normal;font-size:2.11666656px;line-height:125%;font-family:sans-serif;text-align:center;letter-spacing:-0.51593751px;word-spacing:0px;text-anchor:middle;fill:#b60000;fill-opacity:1;stroke:none;stroke-width:0.26458332px;stroke-linecap:butt;stroke-linejoin:miter;stroke-opacity:1"
       aria-label="COMPOSE_ROOT"
       id="flowRoot4522">
      <path
         d="m 13.312614,31.021964 q -0.114377,0.07924 -0.265272,0.07924 -0.188792,0 -0.287321,-0.129535 -0.09784,-0.129536 -0.09784,-0.374827 0,-0.237022 0.09509,-0.370692 0.09508,-0.134359 0.290077,-0.134359 0.07028,0 0.139181,0.01791 0.0689,0.01791 0.110932,0.04754 l -0.03721,0.08888 q -0.09715,-0.05512 -0.212906,-0.05512 -0.134359,0 -0.199816,0.09784 -0.06546,0.09715 -0.06546,0.307991 0,0.405144 0.265273,0.405144 0.11231,0 0.230132,-0.0689 l 0.03514,0.08888 z"
         style="font-style:normal;font-variant:normal;font-weight:normal;font-stretch:normal;font-size:1.41111112px;font-family:monospace;-inkscape-font-specification:monospace;letter-spacing:0px;fill:#b60000;fill-opacity:1;stroke-width:0.26458332px"
         id="path6375" />
      <path
         d="m 13.84247,30.091788 q 0.163297,0 0.248736,0.129536 0.08613,0.128847 0.08613,0.375515 0,0.245291 -0.08544,0.374827 -0.08544,0.129535 -0.249425,0.129535 -0.162609,0 -0.248736,-0.128846 -0.08544,-0.129536 -0.08544,-0.375516 0,-0.245979 0.08544,-0.375515 0.08544,-0.129536 0.248736,-0.129536 z m 0,0.910195 q 0.214974,0 0.214974,-0.405144 0,-0.405832 -0.214974,-0.405832 -0.104731,0 -0.159853,0.10542 -0.05443,0.104731 -0.05443,0.300412 0,0.197749 0.05443,0.301791 0.05443,0.103353 0.159853,0.103353 z"
         style="font-style:normal;font-variant:normal;font-weight:normal;font-stretch:normal;font-size:1.41111112px;font-family:monospace;-inkscape-font-specification:monospace;letter-spacing:0px;fill:#b60000;fill-opacity:1;stroke-width:0.26458332px"
         id="path6377" />
      <path
         d="m 15.003467,31.082598 -0.108865,0 0,-0.833713 -0.146761,0.398942 -0.106798,0 -0.146761,-0.398942 0,0.833713 -0.108865,0 0,-0.972206 0.146761,0 0.162608,0.443039 0.16192,-0.443039 0.146761,0 0,0.972206 z"
         style="font-style:normal;font-variant:normal;font-weight:normal;font-stretch:normal;font-size:1.41111112px;font-family:monospace;-inkscape-font-specification:monospace;letter-spacing:0px;fill:#b60000;fill-opacity:1;stroke-width:0.26458332px"
         id="path6379" />
      <path
         d="m 15.28941,30.110392 0.246668,0 q 0.139871,0 0.223932,0.07028 0.08406,0.07028 0.08406,0.193614 0,0.124024 -0.08406,0.198438 -0.08337,0.07372 -0.219108,0.07372 l -0.138493,0 0,0.436149 -0.112999,0 0,-0.972206 z m 0.112999,0.437527 0.122645,0 q 0.199127,0 0.199127,-0.166743 0,-0.07717 -0.05443,-0.124712 -0.05374,-0.04754 -0.139182,-0.04754 l -0.128157,0 0,0.338997 z"
         style="font-style:normal;font-variant:normal;font-weight:normal;font-stretch:normal;font-size:1.41111112px;font-family:monospace;-inkscape-font-specification:monospace;letter-spacing:0px;fill:#b60000;fill-opacity:1;stroke-width:0.26458332px"
         id="path6381" />
      <path
         d="m 16.380816,30.091788 q 0.163298,0 0.248736,0.129536 0.08613,0.128847 0.08613,0.375515 0,0.245291 -0.08544,0.374827 -0.08544,0.129535 -0.249425,0.129535 -0.162608,0 -0.248736,-0.128846 -0.08544,-0.129536 -0.08544,-0.375516 0,-0.245979 0.08544,-0.375515 0.08544,-0.129536 0.248736,-0.129536 z m 0,0.910195 q 0.214974,0 0.214974,-0.405144 0,-0.405832 -0.214974,-0.405832 -0.104731,0 -0.159852,0.10542 -0.05443,0.104731 -0.05443,0.300412 0,0.197749 0.05443,0.301791 0.05443,0.103353 0.159852,0.103353 z"
         style="font-style:normal;font-variant:normal;font-weight:normal;font-stretch:normal;font-size:1.41111112px;font-family:monospace;-inkscape-font-specification:monospace;letter-spacing:0px;fill:#b60000;fill-opacity:1;stroke-width:0.26458332px"
         id="path6383" />
      <path
         d="m 17.435704,30.217879 q -0.08682,-0.02963 -0.164675,-0.02963 -0.08819,0 -0.144005,0.04065 -0.05512,0.03996 -0.05512,0.114377 0,0.08819 0.145383,0.15503 0.107487,0.04961 0.141938,0.0689 0.03514,0.01929 0.07097,0.05305 0.03583,0.03376 0.05719,0.07993 0.02205,0.04548 0.02205,0.102664 0,0.141938 -0.09577,0.220486 -0.09509,0.07786 -0.22462,0.07786 -0.125402,0 -0.219798,-0.04961 l 0.02343,-0.09715 q 0.110932,0.0503 0.193614,0.0503 0.09646,0 0.154341,-0.04961 0.05857,-0.0503 0.05857,-0.137803 0,-0.06477 -0.0379,-0.109554 -0.0379,-0.04548 -0.139871,-0.09233 -0.10473,-0.04823 -0.135736,-0.06546 -0.03032,-0.01791 -0.06063,-0.04892 -0.03032,-0.03101 -0.04685,-0.06959 -0.01654,-0.03858 -0.01654,-0.08406 0,-0.120579 0.08682,-0.188103 0.08682,-0.06752 0.219797,-0.06752 0.09715,0 0.192925,0.02963 l -0.02549,0.09646 z"
         style="font-style:normal;font-variant:normal;font-weight:normal;font-stretch:normal;font-size:1.41111112px;font-family:monospace;-inkscape-font-specification:monospace;letter-spacing:0px;fill:#b60000;fill-opacity:1;stroke-width:0.26458332px"
         id="path6385" />
      <path
         d="m 18.335563,31.082598 -0.507807,0 0,-0.972206 0.503673,0 0,0.09853 -0.390674,0 0,0.301101 0.375515,0 0,0.09853 -0.375515,0 0,0.375515 0.394808,0 0,0.09853 z"
         style="font-style:normal;font-variant:normal;font-weight:normal;font-stretch:normal;font-size:1.41111112px;font-family:monospace;-inkscape-font-specification:monospace;letter-spacing:0px;fill:#b60000;fill-opacity:1;stroke-width:0.26458332px"
         id="path6387" />
      <path
         d="m 19.344287,31.3899 -0.846804,0 0,-0.09026 0.846804,0 0,0.09026 z"
         style="font-style:normal;font-variant:normal;font-weight:normal;font-stretch:normal;font-size:1.41111112px;font-family:monospace;-inkscape-font-specification:monospace;letter-spacing:0px;fill:#b60000;fill-opacity:1;stroke-width:0.26458332px"
         id="path6389" />
      <path
         d="m 20.152507,31.082598 -0.141249,0 -0.285254,-0.441661 -0.125402,0 0,0.441661 -0.112999,0 0,-0.972206 0.274919,0 q 0.138493,0 0.218419,0.06752 0.08061,0.06684 0.08061,0.186724 0,0.08888 -0.05857,0.158474 -0.05857,0.0689 -0.16123,0.09371 l 0.310748,0.465777 z m -0.551905,-0.540191 0.142627,0 q 0.08957,0 0.145383,-0.04823 0.05581,-0.04892 0.05581,-0.122646 0,-0.162608 -0.198438,-0.162608 l -0.145383,0 0,0.333485 z"
         style="font-style:normal;font-variant:normal;font-weight:normal;font-stretch:normal;font-size:1.41111112px;font-family:monospace;-inkscape-font-specification:monospace;letter-spacing:0px;fill:#b60000;fill-opacity:1;stroke-width:0.26458332px"
         id="path6391" />
      <path
         d="m 20.611393,30.091788 q 0.163298,0 0.248736,0.129536 0.08613,0.128847 0.08613,0.375515 0,0.245291 -0.08544,0.374827 -0.08544,0.129535 -0.249425,0.129535 -0.162608,0 -0.248735,-0.128846 -0.08544,-0.129536 -0.08544,-0.375516 0,-0.245979 0.08544,-0.375515 0.08544,-0.129536 0.248735,-0.129536 z m 0,0.910195 q 0.214974,0 0.214974,-0.405144 0,-0.405832 -0.214974,-0.405832 -0.10473,0 -0.159852,0.10542 -0.05443,0.104731 -0.05443,0.300412 0,0.197749 0.05443,0.301791 0.05443,0.103353 0.159852,0.103353 z"
         style="font-style:normal;font-variant:normal;font-weight:normal;font-stretch:normal;font-size:1.41111112px;font-family:monospace;-inkscape-font-specification:monospace;letter-spacing:0px;fill:#b60000;fill-opacity:1;stroke-width:0.26458332px"
         id="path6393" />
      <path
         d="m 21.457509,30.091788 q 0.163298,0 0.248736,0.129536 0.08613,0.128847 0.08613,0.375515 0,0.245291 -0.08544,0.374827 -0.08544,0.129535 -0.249425,0.129535 -0.162608,0 -0.248736,-0.128846 -0.08544,-0.129536 -0.08544,-0.375516 0,-0.245979 0.08544,-0.375515 0.08544,-0.129536 0.248736,-0.129536 z m 0,0.910195 q 0.214974,0 0.214974,-0.405144 0,-0.405832 -0.214974,-0.405832 -0.104731,0 -0.159852,0.10542 -0.05443,0.104731 -0.05443,0.300412 0,0.197749 0.05443,0.301791 0.05443,0.103353 0.159852,0.103353 z"
         style="font-style:normal;font-variant:normal;font-weight:normal;font-stretch:normal;font-size:1.41111112px;font-family:monospace;-inkscape-font-specification:monospace;letter-spacing:0px;fill:#b60000;fill-opacity:1;stroke-width:0.26458332px"
         id="path6395" />
      <path
         d="m 22.662603,30.202031 -0.299723,0 0,0.880567 -0.11231,0 0,-0.880567 -0.301102,0 0,-0.09164 0.713135,0 0,0.09164 z"
         style="font-style:normal;font-variant:normal;font-weight:normal;font-stretch:normal;font-size:1.41111112px;font-family:monospace;-inkscape-font-specification:monospace;letter-spacing:0px;fill:#b60000;fill-opacity:1;stroke-width:0.26458332px"
         id="path6397" />
    </g>
    <g
       transform="translate(0,3.4422697)"
       style="font-style:normal;font-weight:normal;font-size:2.11666656px;line-height:125%;font-family:sans-serif;text-align:center;letter-spacing:-0.51593751px;word-spacing:0px;text-anchor:middle;fill:#0000ff;fill-opacity:1;stroke:none;stroke-width:0.26458332px;stroke-linecap:butt;stroke-linejoin:miter;stroke-opacity:1"
       aria-label="PACKAGE_ROOT"
       id="flowRoot6022">
      <path
         d="m 37.933681,30.110392 0.246668,0 q 0.139871,0 0.223932,0.07028 0.08406,0.07028 0.08406,0.193614 0,0.124024 -0.08406,0.198438 -0.08337,0.07372 -0.219108,0.07372 l -0.138493,0 0,0.436149 -0.112999,0 0,-0.972206 z m 0.112999,0.437527 0.122645,0 q 0.199127,0 0.199127,-0.166743 0,-0.07717 -0.05443,-0.124712 -0.05374,-0.04754 -0.139182,-0.04754 l -0.128157,0 0,0.338997 z"
         style="font-style:normal;font-variant:normal;font-weight:normal;font-stretch:normal;font-size:1.41111112px;font-family:monospace;-inkscape-font-specification:monospace;letter-spacing:0px;fill:#0000ff;fill-opacity:1;stroke-width:0.26458332px"
         id="path6306" />
      <path
         d="m 39.413694,31.082598 -0.118512,0 -0.107487,-0.340376 -0.319016,0 -0.108865,0.340376 -0.117133,0 0.317638,-0.972206 0.135737,0 0.317638,0.972206 z m -0.258383,-0.438905 -0.127468,-0.402387 -0.12678,0.402387 0.254248,0 z"
         style="font-style:normal;font-variant:normal;font-weight:normal;font-stretch:normal;font-size:1.41111112px;font-family:monospace;-inkscape-font-specification:monospace;letter-spacing:0px;fill:#0000ff;fill-opacity:1;stroke-width:0.26458332px"
         id="path6308" />
      <path
         d="m 40.187462,31.021964 q -0.114377,0.07924 -0.265272,0.07924 -0.188792,0 -0.287321,-0.129535 -0.09784,-0.129536 -0.09784,-0.374827 0,-0.237022 0.09508,-0.370692 0.09508,-0.134359 0.290077,-0.134359 0.07028,0 0.139182,0.01791 0.0689,0.01791 0.110932,0.04754 l -0.03721,0.08888 q -0.09715,-0.05512 -0.212907,-0.05512 -0.134359,0 -0.199816,0.09784 -0.06546,0.09715 -0.06546,0.307991 0,0.405144 0.265273,0.405144 0.11231,0 0.230132,-0.0689 l 0.03514,0.08888 z"
         style="font-style:normal;font-variant:normal;font-weight:normal;font-stretch:normal;font-size:1.41111112px;font-family:monospace;-inkscape-font-specification:monospace;letter-spacing:0px;fill:#0000ff;fill-opacity:1;stroke-width:0.26458332px"
         id="path6310" />
      <path
         d="m 41.126595,31.082598 -0.142627,0 -0.328662,-0.476801 -0.102664,0.111621 0,0.36518 -0.112999,0 0,-0.972206 0.112999,0 0,0.465777 0.431326,-0.465777 0.130225,0 -0.37965,0.410655 0.392052,0.561551 z"
         style="font-style:normal;font-variant:normal;font-weight:normal;font-stretch:normal;font-size:1.41111112px;font-family:monospace;-inkscape-font-specification:monospace;letter-spacing:0px;fill:#0000ff;fill-opacity:1;stroke-width:0.26458332px"
         id="path6312" />
      <path
         d="m 41.95204,31.082598 -0.118511,0 -0.107487,-0.340376 -0.319016,0 -0.108865,0.340376 -0.117133,0 0.317637,-0.972206 0.135737,0 0.317638,0.972206 z m -0.258382,-0.438905 -0.127469,-0.402387 -0.126779,0.402387 0.254248,0 z"
         style="font-style:normal;font-variant:normal;font-weight:normal;font-stretch:normal;font-size:1.41111112px;font-family:monospace;-inkscape-font-specification:monospace;letter-spacing:0px;fill:#0000ff;fill-opacity:1;stroke-width:0.26458332px"
         id="path6314" />
      <path
         d="m 42.724431,31.013696 q -0.119201,0.08751 -0.263895,0.08751 -0.18948,0 -0.287321,-0.128157 -0.09784,-0.128847 -0.09784,-0.376205 0,-0.239089 0.09439,-0.37207 0.09508,-0.132981 0.290766,-0.132981 0.07028,0 0.139182,0.01791 0.0689,0.01791 0.110932,0.04754 l -0.03721,0.08888 q -0.09715,-0.05512 -0.212907,-0.05512 -0.133669,0 -0.199815,0.09784 -0.06546,0.09784 -0.06546,0.307991 0,0.405144 0.265272,0.405144 0.09991,0 0.150895,-0.04203 l 0,-0.239779 -0.17501,0 0,-0.09784 0.28801,0 0,0.391363 z"
         style="font-style:normal;font-variant:normal;font-weight:normal;font-stretch:normal;font-size:1.41111112px;font-family:monospace;-inkscape-font-specification:monospace;letter-spacing:0px;fill:#0000ff;fill-opacity:1;stroke-width:0.26458332px"
         id="path6316" />
      <path
         d="m 43.51818,31.082598 -0.507807,0 0,-0.972206 0.503673,0 0,0.09853 -0.390674,0 0,0.301101 0.375516,0 0,0.09853 -0.375516,0 0,0.375515 0.394808,0 0,0.09853 z"
         style="font-style:normal;font-variant:normal;font-weight:normal;font-stretch:normal;font-size:1.41111112px;font-family:monospace;-inkscape-font-specification:monospace;letter-spacing:0px;fill:#0000ff;fill-opacity:1;stroke-width:0.26458332px"
         id="path6318" />
      <path
         d="m 44.526904,31.3899 -0.846804,0 0,-0.09026 0.846804,0 0,0.09026 z"
         style="font-style:normal;font-variant:normal;font-weight:normal;font-stretch:normal;font-size:1.41111112px;font-family:monospace;-inkscape-font-specification:monospace;letter-spacing:0px;fill:#0000ff;fill-opacity:1;stroke-width:0.26458332px"
         id="path6320" />
      <path
         d="m 45.335124,31.082598 -0.141249,0 -0.285254,-0.441661 -0.125401,0 0,0.441661 -0.113,0 0,-0.972206 0.274919,0 q 0.138493,0 0.218419,0.06752 0.08062,0.06684 0.08062,0.186724 0,0.08888 -0.05857,0.158474 -0.05857,0.0689 -0.161231,0.09371 l 0.310748,0.465777 z m -0.551904,-0.540191 0.142626,0 q 0.08957,0 0.145384,-0.04823 0.05581,-0.04892 0.05581,-0.122646 0,-0.162608 -0.198437,-0.162608 l -0.145383,0 0,0.333485 z"
         style="font-style:normal;font-variant:normal;font-weight:normal;font-stretch:normal;font-size:1.41111112px;font-family:monospace;-inkscape-font-specification:monospace;letter-spacing:0px;fill:#0000ff;fill-opacity:1;stroke-width:0.26458332px"
         id="path6322" />
      <path
         d="m 45.794011,30.091788 q 0.163297,0 0.248736,0.129536 0.08613,0.128847 0.08613,0.375515 0,0.245291 -0.08544,0.374827 -0.08544,0.129535 -0.249425,0.129535 -0.162609,0 -0.248736,-0.128846 -0.08544,-0.129536 -0.08544,-0.375516 0,-0.245979 0.08544,-0.375515 0.08544,-0.129536 0.248736,-0.129536 z m 0,0.910195 q 0.214974,0 0.214974,-0.405144 0,-0.405832 -0.214974,-0.405832 -0.104731,0 -0.159853,0.10542 -0.05443,0.104731 -0.05443,0.300412 0,0.197749 0.05443,0.301791 0.05443,0.103353 0.159853,0.103353 z"
         style="font-style:normal;font-variant:normal;font-weight:normal;font-stretch:normal;font-size:1.41111112px;font-family:monospace;-inkscape-font-specification:monospace;letter-spacing:0px;fill:#0000ff;fill-opacity:1;stroke-width:0.26458332px"
         id="path6324" />
      <path
         d="m 46.640126,30.091788 q 0.163298,0 0.248736,0.129536 0.08613,0.128847 0.08613,0.375515 0,0.245291 -0.08544,0.374827 -0.08544,0.129535 -0.249425,0.129535 -0.162608,0 -0.248736,-0.128846 -0.08544,-0.129536 -0.08544,-0.375516 0,-0.245979 0.08544,-0.375515 0.08544,-0.129536 0.248736,-0.129536 z m 0,0.910195 q 0.214974,0 0.214974,-0.405144 0,-0.405832 -0.214974,-0.405832 -0.104731,0 -0.159852,0.10542 -0.05443,0.104731 -0.05443,0.300412 0,0.197749 0.05443,0.301791 0.05443,0.103353 0.159852,0.103353 z"
         style="font-style:normal;font-variant:normal;font-weight:normal;font-stretch:normal;font-size:1.41111112px;font-family:monospace;-inkscape-font-specification:monospace;letter-spacing:0px;fill:#0000ff;fill-opacity:1;stroke-width:0.26458332px"
         id="path6326" />
      <path
         d="m 47.84522,30.202031 -0.299723,0 0,0.880567 -0.11231,0 0,-0.880567 -0.301101,0 0,-0.09164 0.713134,0 0,0.09164 z"
         style="font-style:normal;font-variant:normal;font-weight:normal;font-stretch:normal;font-size:1.41111112px;font-family:monospace;-inkscape-font-specification:monospace;letter-spacing:0px;fill:#0000ff;fill-opacity:1;stroke-width:0.26458332px"
         id="path6328" />
    </g>
    <g
       transform="translate(0,6.6172699)"
       style="font-style:normal;font-weight:normal;font-size:2.11666656px;line-height:125%;font-family:sans-serif;text-align:center;letter-spacing:-0.51593751px;word-spacing:0px;text-anchor:middle;fill:#0fa7a6;fill-opacity:1;stroke:none;stroke-width:0.26458332px;stroke-linecap:butt;stroke-linejoin:miter;stroke-opacity:1"
       aria-label="PAGE_ROOT"
       id="flowRoot6030">
      <path
         d="m 48.983127,30.110392 0.246669,0 q 0.139871,0 0.223931,0.07028 0.08406,0.07028 0.08406,0.193614 0,0.124024 -0.08406,0.198438 -0.08337,0.07372 -0.219108,0.07372 l -0.138493,0 0,0.436149 -0.112999,0 0,-0.972206 z m 0.112999,0.437527 0.122646,0 q 0.199126,0 0.199126,-0.166743 0,-0.07717 -0.05443,-0.124712 -0.05374,-0.04754 -0.139182,-0.04754 l -0.128158,0 0,0.338997 z"
         style="font-style:normal;font-variant:normal;font-weight:normal;font-stretch:normal;font-size:1.41111112px;font-family:monospace;-inkscape-font-specification:monospace;letter-spacing:0px;fill:#0fa7a6;fill-opacity:1;stroke-width:0.26458332px"
         id="path6287" />
      <path
         d="m 50.46314,31.082598 -0.118511,0 -0.107487,-0.340376 -0.319016,0 -0.108865,0.340376 -0.117133,0 0.317638,-0.972206 0.135736,0 0.317638,0.972206 z m -0.258382,-0.438905 -0.127468,-0.402387 -0.12678,0.402387 0.254248,0 z"
         style="font-style:normal;font-variant:normal;font-weight:normal;font-stretch:normal;font-size:1.41111112px;font-family:monospace;-inkscape-font-specification:monospace;letter-spacing:0px;fill:#0fa7a6;fill-opacity:1;stroke-width:0.26458332px"
         id="path6289" />
      <path
         d="m 51.235531,31.013696 q -0.119201,0.08751 -0.263895,0.08751 -0.18948,0 -0.287321,-0.128157 -0.09784,-0.128847 -0.09784,-0.376205 0,-0.239089 0.09439,-0.37207 0.09509,-0.132981 0.290766,-0.132981 0.07028,0 0.139182,0.01791 0.0689,0.01791 0.110932,0.04754 l -0.03721,0.08888 q -0.09715,-0.05512 -0.212907,-0.05512 -0.133669,0 -0.199815,0.09784 -0.06546,0.09784 -0.06546,0.307991 0,0.405144 0.265272,0.405144 0.09991,0 0.150895,-0.04203 l 0,-0.239779 -0.17501,0 0,-0.09784 0.28801,0 0,0.391363 z"
         style="font-style:normal;font-variant:normal;font-weight:normal;font-stretch:normal;font-size:1.41111112px;font-family:monospace;-inkscape-font-specification:monospace;letter-spacing:0px;fill:#0fa7a6;fill-opacity:1;stroke-width:0.26458332px"
         id="path6291" />
      <path
         d="m 52.029281,31.082598 -0.507808,0 0,-0.972206 0.503673,0 0,0.09853 -0.390673,0 0,0.301101 0.375515,0 0,0.09853 -0.375515,0 0,0.375515 0.394808,0 0,0.09853 z"
         style="font-style:normal;font-variant:normal;font-weight:normal;font-stretch:normal;font-size:1.41111112px;font-family:monospace;-inkscape-font-specification:monospace;letter-spacing:0px;fill:#0fa7a6;fill-opacity:1;stroke-width:0.26458332px"
         id="path6293" />
      <path
         d="m 53.038005,31.3899 -0.846805,0 0,-0.09026 0.846805,0 0,0.09026 z"
         style="font-style:normal;font-variant:normal;font-weight:normal;font-stretch:normal;font-size:1.41111112px;font-family:monospace;-inkscape-font-specification:monospace;letter-spacing:0px;fill:#0fa7a6;fill-opacity:1;stroke-width:0.26458332px"
         id="path6295" />
      <path
         d="m 53.846224,31.082598 -0.141249,0 -0.285254,-0.441661 -0.125401,0 0,0.441661 -0.112999,0 0,-0.972206 0.274918,0 q 0.138493,0 0.218419,0.06752 0.08062,0.06684 0.08062,0.186724 0,0.08888 -0.05857,0.158474 -0.05857,0.0689 -0.16123,0.09371 l 0.310747,0.465777 z m -0.551904,-0.540191 0.142627,0 q 0.08957,0 0.145383,-0.04823 0.05581,-0.04892 0.05581,-0.122646 0,-0.162608 -0.198437,-0.162608 l -0.145383,0 0,0.333485 z"
         style="font-style:normal;font-variant:normal;font-weight:normal;font-stretch:normal;font-size:1.41111112px;font-family:monospace;-inkscape-font-specification:monospace;letter-spacing:0px;fill:#0fa7a6;fill-opacity:1;stroke-width:0.26458332px"
         id="path6297" />
      <path
         d="m 54.305111,30.091788 q 0.163297,0 0.248735,0.129536 0.08613,0.128847 0.08613,0.375515 0,0.245291 -0.08544,0.374827 -0.08544,0.129535 -0.249424,0.129535 -0.162609,0 -0.248736,-0.128846 -0.08544,-0.129536 -0.08544,-0.375516 0,-0.245979 0.08544,-0.375515 0.08544,-0.129536 0.248736,-0.129536 z m 0,0.910195 q 0.214973,0 0.214973,-0.405144 0,-0.405832 -0.214973,-0.405832 -0.104731,0 -0.159853,0.10542 -0.05443,0.104731 -0.05443,0.300412 0,0.197749 0.05443,0.301791 0.05443,0.103353 0.159853,0.103353 z"
         style="font-style:normal;font-variant:normal;font-weight:normal;font-stretch:normal;font-size:1.41111112px;font-family:monospace;-inkscape-font-specification:monospace;letter-spacing:0px;fill:#0fa7a6;fill-opacity:1;stroke-width:0.26458332px"
         id="path6299" />
      <path
         d="m 55.151226,30.091788 q 0.163298,0 0.248736,0.129536 0.08613,0.128847 0.08613,0.375515 0,0.245291 -0.08544,0.374827 -0.08544,0.129535 -0.249425,0.129535 -0.162608,0 -0.248736,-0.128846 -0.08544,-0.129536 -0.08544,-0.375516 0,-0.245979 0.08544,-0.375515 0.08544,-0.129536 0.248736,-0.129536 z m 0,0.910195 q 0.214974,0 0.214974,-0.405144 0,-0.405832 -0.214974,-0.405832 -0.104731,0 -0.159852,0.10542 -0.05443,0.104731 -0.05443,0.300412 0,0.197749 0.05443,0.301791 0.05443,0.103353 0.159852,0.103353 z"
         style="font-style:normal;font-variant:normal;font-weight:normal;font-stretch:normal;font-size:1.41111112px;font-family:monospace;-inkscape-font-specification:monospace;letter-spacing:0px;fill:#0fa7a6;fill-opacity:1;stroke-width:0.26458332px"
         id="path6301" />
      <path
         d="m 56.356321,30.202031 -0.299724,0 0,0.880567 -0.11231,0 0,-0.880567 -0.301101,0 0,-0.09164 0.713135,0 0,0.09164 z"
         style="font-style:normal;font-variant:normal;font-weight:normal;font-stretch:normal;font-size:1.41111112px;font-family:monospace;-inkscape-font-specification:monospace;letter-spacing:0px;fill:#0fa7a6;fill-opacity:1;stroke-width:0.26458332px"
         id="path6303" />
    </g>
    <g
       transform="translate(0,-8.1993976)"
       style="font-style:normal;font-weight:normal;font-size:2.11666656px;line-height:125%;font-family:sans-serif;text-align:center;letter-spacing:-0.51593751px;word-spacing:0px;text-anchor:middle;fill:#00b600;fill-opacity:1;stroke:none;stroke-width:0.26458332px;stroke-linecap:butt;stroke-linejoin:miter;stroke-opacity:1"
       aria-label="PACKAGES_DIR"
       id="flowRoot6038">
      <path
         d="m 30.477626,30.110392 0.246669,0 q 0.139871,0 0.223931,0.07028 0.08406,0.07028 0.08406,0.193614 0,0.124024 -0.08406,0.198438 -0.08337,0.07372 -0.219108,0.07372 l -0.138493,0 0,0.436149 -0.112999,0 0,-0.972206 z m 0.112999,0.437527 0.122645,0 q 0.199127,0 0.199127,-0.166743 0,-0.07717 -0.05443,-0.124712 -0.05374,-0.04754 -0.139181,-0.04754 l -0.128158,0 0,0.338997 z"
         style="font-style:normal;font-variant:normal;font-weight:normal;font-stretch:normal;font-size:1.41111112px;font-family:monospace;-inkscape-font-specification:monospace;letter-spacing:0px;fill:#00b600;fill-opacity:1;stroke-width:0.26458332px"
         id="path6331" />
      <path
         d="m 31.957639,31.082598 -0.118511,0 -0.107487,-0.340376 -0.319016,0 -0.108865,0.340376 -0.117133,0 0.317637,-0.972206 0.135737,0 0.317638,0.972206 z m -0.258382,-0.438905 -0.127469,-0.402387 -0.126779,0.402387 0.254248,0 z"
         style="font-style:normal;font-variant:normal;font-weight:normal;font-stretch:normal;font-size:1.41111112px;font-family:monospace;-inkscape-font-specification:monospace;letter-spacing:0px;fill:#00b600;fill-opacity:1;stroke-width:0.26458332px"
         id="path6333" />
      <path
         d="m 32.731407,31.021964 q -0.114377,0.07924 -0.265272,0.07924 -0.188791,0 -0.287321,-0.129535 -0.09784,-0.129536 -0.09784,-0.374827 0,-0.237022 0.09508,-0.370692 0.09509,-0.134359 0.290077,-0.134359 0.07028,0 0.139182,0.01791 0.0689,0.01791 0.110932,0.04754 l -0.03721,0.08888 q -0.09715,-0.05512 -0.212907,-0.05512 -0.134359,0 -0.199816,0.09784 -0.06546,0.09715 -0.06546,0.307991 0,0.405144 0.265272,0.405144 0.11231,0 0.230132,-0.0689 l 0.03514,0.08888 z"
         style="font-style:normal;font-variant:normal;font-weight:normal;font-stretch:normal;font-size:1.41111112px;font-family:monospace;-inkscape-font-specification:monospace;letter-spacing:0px;fill:#00b600;fill-opacity:1;stroke-width:0.26458332px"
         id="path6335" />
      <path
         d="m 33.67054,31.082598 -0.142627,0 -0.328662,-0.476801 -0.102664,0.111621 0,0.36518 -0.112999,0 0,-0.972206 0.112999,0 0,0.465777 0.431326,-0.465777 0.130225,0 -0.37965,0.410655 0.392052,0.561551 z"
         style="font-style:normal;font-variant:normal;font-weight:normal;font-stretch:normal;font-size:1.41111112px;font-family:monospace;-inkscape-font-specification:monospace;letter-spacing:0px;fill:#00b600;fill-opacity:1;stroke-width:0.26458332px"
         id="path6337" />
      <path
         d="m 34.495985,31.082598 -0.118511,0 -0.107487,-0.340376 -0.319016,0 -0.108865,0.340376 -0.117133,0 0.317638,-0.972206 0.135736,0 0.317638,0.972206 z m -0.258382,-0.438905 -0.127468,-0.402387 -0.12678,0.402387 0.254248,0 z"
         style="font-style:normal;font-variant:normal;font-weight:normal;font-stretch:normal;font-size:1.41111112px;font-family:monospace;-inkscape-font-specification:monospace;letter-spacing:0px;fill:#00b600;fill-opacity:1;stroke-width:0.26458332px"
         id="path6339" />
      <path
         d="m 35.268376,31.013696 q -0.1192,0.08751 -0.263894,0.08751 -0.189481,0 -0.287321,-0.128157 -0.09784,-0.128847 -0.09784,-0.376205 0,-0.239089 0.09439,-0.37207 0.09508,-0.132981 0.290767,-0.132981 0.07028,0 0.139181,0.01791 0.0689,0.01791 0.110932,0.04754 l -0.03721,0.08888 q -0.09715,-0.05512 -0.212906,-0.05512 -0.13367,0 -0.199816,0.09784 -0.06546,0.09784 -0.06546,0.307991 0,0.405144 0.265273,0.405144 0.09991,0 0.150895,-0.04203 l 0,-0.239779 -0.175011,0 0,-0.09784 0.28801,0 0,0.391363 z"
         style="font-style:normal;font-variant:normal;font-weight:normal;font-stretch:normal;font-size:1.41111112px;font-family:monospace;-inkscape-font-specification:monospace;letter-spacing:0px;fill:#00b600;fill-opacity:1;stroke-width:0.26458332px"
         id="path6341" />
      <path
         d="m 36.062126,31.082598 -0.507808,0 0,-0.972206 0.503673,0 0,0.09853 -0.390673,0 0,0.301101 0.375515,0 0,0.09853 -0.375515,0 0,0.375515 0.394808,0 0,0.09853 z"
         style="font-style:normal;font-variant:normal;font-weight:normal;font-stretch:normal;font-size:1.41111112px;font-family:monospace;-inkscape-font-specification:monospace;letter-spacing:0px;fill:#00b600;fill-opacity:1;stroke-width:0.26458332px"
         id="path6343" />
      <path
         d="m 36.854498,30.217879 q -0.08682,-0.02963 -0.164676,-0.02963 -0.08819,0 -0.144005,0.04065 -0.05512,0.03996 -0.05512,0.114377 0,0.08819 0.145383,0.15503 0.107487,0.04961 0.141937,0.0689 0.03514,0.01929 0.07097,0.05305 0.03583,0.03376 0.05719,0.07993 0.02205,0.04548 0.02205,0.102664 0,0.141938 -0.09577,0.220486 -0.09508,0.07786 -0.22462,0.07786 -0.125402,0 -0.219797,-0.04961 l 0.02343,-0.09715 q 0.110932,0.0503 0.193615,0.0503 0.09646,0 0.15434,-0.04961 0.05857,-0.0503 0.05857,-0.137803 0,-0.06477 -0.0379,-0.109554 -0.0379,-0.04548 -0.139871,-0.09233 -0.104731,-0.04823 -0.135737,-0.06546 -0.03032,-0.01791 -0.06063,-0.04892 -0.03032,-0.03101 -0.04685,-0.06959 -0.01654,-0.03858 -0.01654,-0.08406 0,-0.120579 0.08682,-0.188103 0.08682,-0.06752 0.219797,-0.06752 0.09715,0 0.192925,0.02963 l -0.02549,0.09646 z"
         style="font-style:normal;font-variant:normal;font-weight:normal;font-stretch:normal;font-size:1.41111112px;font-family:monospace;-inkscape-font-specification:monospace;letter-spacing:0px;fill:#00b600;fill-opacity:1;stroke-width:0.26458332px"
         id="path6345" />
      <path
         d="m 37.916965,31.3899 -0.846804,0 0,-0.09026 0.846804,0 0,0.09026 z"
         style="font-style:normal;font-variant:normal;font-weight:normal;font-stretch:normal;font-size:1.41111112px;font-family:monospace;-inkscape-font-specification:monospace;letter-spacing:0px;fill:#00b600;fill-opacity:1;stroke-width:0.26458332px"
         id="path6347" />
      <path
         d="m 38.060281,30.110392 0.191548,0 q 0.190858,0 0.305924,0.130225 0.115066,0.129535 0.115066,0.356222 0,0.231511 -0.117133,0.358979 -0.116444,0.12678 -0.299034,0.12678 l -0.196371,0 0,-0.972206 z m 0.112999,0.873676 0.07993,0 q 0.138492,0 0.219108,-0.102664 0.08062,-0.102664 0.08062,-0.284565 0,-0.180523 -0.0813,-0.283875 -0.08062,-0.104042 -0.218419,-0.104042 l -0.07993,0 0,0.775146 z"
         style="font-style:normal;font-variant:normal;font-weight:normal;font-stretch:normal;font-size:1.41111112px;font-family:monospace;-inkscape-font-specification:monospace;letter-spacing:0px;fill:#00b600;fill-opacity:1;stroke-width:0.26458332px"
         id="path6349" />
      <path
         d="m 39.401802,31.082598 -0.441662,0 0,-0.09853 0.167432,0 0,-0.775146 -0.167432,0 0,-0.09853 0.441662,0 0,0.09853 -0.161231,0 0,0.775146 0.161231,0 0,0.09853 z"
         style="font-style:normal;font-variant:normal;font-weight:normal;font-stretch:normal;font-size:1.41111112px;font-family:monospace;-inkscape-font-specification:monospace;letter-spacing:0px;fill:#00b600;fill-opacity:1;stroke-width:0.26458332px"
         id="path6351" />
      <path
         d="m 40.417415,31.082598 -0.141248,0 -0.285254,-0.441661 -0.125402,0 0,0.441661 -0.112999,0 0,-0.972206 0.274919,0 q 0.138492,0 0.218419,0.06752 0.08062,0.06684 0.08062,0.186724 0,0.08888 -0.05857,0.158474 -0.05857,0.0689 -0.16123,0.09371 l 0.310747,0.465777 z m -0.551904,-0.540191 0.142627,0 q 0.08957,0 0.145383,-0.04823 0.05581,-0.04892 0.05581,-0.122646 0,-0.162608 -0.198438,-0.162608 l -0.145383,0 0,0.333485 z"
         style="font-style:normal;font-variant:normal;font-weight:normal;font-stretch:normal;font-size:1.41111112px;font-family:monospace;-inkscape-font-specification:monospace;letter-spacing:0px;fill:#00b600;fill-opacity:1;stroke-width:0.26458332px"
         id="path6353" />
    </g>
    <g
       transform="translate(0,-11.374398)"
       style="font-style:normal;font-weight:normal;font-size:2.11666656px;line-height:125%;font-family:sans-serif;text-align:center;letter-spacing:-0.51593751px;word-spacing:0px;text-anchor:middle;fill:#ff8500;fill-opacity:1;stroke:none;stroke-width:0.26458332px;stroke-linecap:butt;stroke-linejoin:miter;stroke-opacity:1"
       aria-label="PAGES_DIR"
       id="flowRoot6046">
      <path
         d="m 43.369846,30.110392 0.246669,0 q 0.139871,0 0.223931,0.07028 0.08406,0.07028 0.08406,0.193614 0,0.124024 -0.08406,0.198438 -0.08337,0.07372 -0.219108,0.07372 l -0.138493,0 0,0.436149 -0.112999,0 0,-0.972206 z m 0.112999,0.437527 0.122645,0 q 0.199127,0 0.199127,-0.166743 0,-0.07717 -0.05443,-0.124712 -0.05374,-0.04754 -0.139181,-0.04754 l -0.128158,0 0,0.338997 z"
         style="font-style:normal;font-variant:normal;font-weight:normal;font-stretch:normal;font-size:1.41111112px;font-family:monospace;-inkscape-font-specification:monospace;letter-spacing:0px;fill:#ff8500;fill-opacity:1;stroke-width:0.26458332px"
         id="path6356" />
      <path
         d="m 44.849859,31.082598 -0.118511,0 -0.107487,-0.340376 -0.319016,0 -0.108865,0.340376 -0.117133,0 0.317637,-0.972206 0.135737,0 0.317638,0.972206 z m -0.258382,-0.438905 -0.127469,-0.402387 -0.126779,0.402387 0.254248,0 z"
         style="font-style:normal;font-variant:normal;font-weight:normal;font-stretch:normal;font-size:1.41111112px;font-family:monospace;-inkscape-font-specification:monospace;letter-spacing:0px;fill:#ff8500;fill-opacity:1;stroke-width:0.26458332px"
         id="path6358" />
      <path
         d="m 45.622249,31.013696 q -0.1192,0.08751 -0.263894,0.08751 -0.18948,0 -0.287321,-0.128157 -0.09784,-0.128847 -0.09784,-0.376205 0,-0.239089 0.0944,-0.37207 0.09509,-0.132981 0.290766,-0.132981 0.07028,0 0.139182,0.01791 0.0689,0.01791 0.110932,0.04754 l -0.03721,0.08888 q -0.09715,-0.05512 -0.212907,-0.05512 -0.13367,0 -0.199815,0.09784 -0.06546,0.09784 -0.06546,0.307991 0,0.405144 0.265272,0.405144 0.09991,0 0.150895,-0.04203 l 0,-0.239779 -0.175011,0 0,-0.09784 0.28801,0 0,0.391363 z"
         style="font-style:normal;font-variant:normal;font-weight:normal;font-stretch:normal;font-size:1.41111112px;font-family:monospace;-inkscape-font-specification:monospace;letter-spacing:0px;fill:#ff8500;fill-opacity:1;stroke-width:0.26458332px"
         id="path6360" />
      <path
         d="m 46.415999,31.082598 -0.507807,0 0,-0.972206 0.503673,0 0,0.09853 -0.390674,0 0,0.301101 0.375516,0 0,0.09853 -0.375516,0 0,0.375515 0.394808,0 0,0.09853 z"
         style="font-style:normal;font-variant:normal;font-weight:normal;font-stretch:normal;font-size:1.41111112px;font-family:monospace;-inkscape-font-specification:monospace;letter-spacing:0px;fill:#ff8500;fill-opacity:1;stroke-width:0.26458332px"
         id="path6362" />
      <path
         d="m 47.208371,30.217879 q -0.08682,-0.02963 -0.164675,-0.02963 -0.08819,0 -0.144005,0.04065 -0.05512,0.03996 -0.05512,0.114377 0,0.08819 0.145383,0.15503 0.107487,0.04961 0.141938,0.0689 0.03514,0.01929 0.07097,0.05305 0.03583,0.03376 0.05719,0.07993 0.02205,0.04548 0.02205,0.102664 0,0.141938 -0.09577,0.220486 -0.09509,0.07786 -0.22462,0.07786 -0.125402,0 -0.219798,-0.04961 l 0.02343,-0.09715 q 0.110932,0.0503 0.193614,0.0503 0.09646,0 0.154341,-0.04961 0.05857,-0.0503 0.05857,-0.137803 0,-0.06477 -0.0379,-0.109554 -0.0379,-0.04548 -0.139871,-0.09233 -0.10473,-0.04823 -0.135736,-0.06546 -0.03032,-0.01791 -0.06063,-0.04892 -0.03032,-0.03101 -0.04685,-0.06959 -0.01654,-0.03858 -0.01654,-0.08406 0,-0.120579 0.08682,-0.188103 0.08682,-0.06752 0.219797,-0.06752 0.09715,0 0.192925,0.02963 l -0.02549,0.09646 z"
         style="font-style:normal;font-variant:normal;font-weight:normal;font-stretch:normal;font-size:1.41111112px;font-family:monospace;-inkscape-font-specification:monospace;letter-spacing:0px;fill:#ff8500;fill-opacity:1;stroke-width:0.26458332px"
         id="path6364" />
      <path
         d="m 48.270839,31.3899 -0.846805,0 0,-0.09026 0.846805,0 0,0.09026 z"
         style="font-style:normal;font-variant:normal;font-weight:normal;font-stretch:normal;font-size:1.41111112px;font-family:monospace;-inkscape-font-specification:monospace;letter-spacing:0px;fill:#ff8500;fill-opacity:1;stroke-width:0.26458332px"
         id="path6366" />
      <path
         d="m 48.414155,30.110392 0.191547,0 q 0.190858,0 0.305924,0.130225 0.115067,0.129535 0.115067,0.356222 0,0.231511 -0.117134,0.358979 -0.116444,0.12678 -0.299034,0.12678 l -0.19637,0 0,-0.972206 z m 0.112999,0.873676 0.07993,0 q 0.138493,0 0.219108,-0.102664 0.08061,-0.102664 0.08061,-0.284565 0,-0.180523 -0.0813,-0.283875 -0.08062,-0.104042 -0.218419,-0.104042 l -0.07993,0 0,0.775146 z"
         style="font-style:normal;font-variant:normal;font-weight:normal;font-stretch:normal;font-size:1.41111112px;font-family:monospace;-inkscape-font-specification:monospace;letter-spacing:0px;fill:#ff8500;fill-opacity:1;stroke-width:0.26458332px"
         id="path6368" />
      <path
         d="m 49.755675,31.082598 -0.441661,0 0,-0.09853 0.167431,0 0,-0.775146 -0.167431,0 0,-0.09853 0.441661,0 0,0.09853 -0.161231,0 0,0.775146 0.161231,0 0,0.09853 z"
         style="font-style:normal;font-variant:normal;font-weight:normal;font-stretch:normal;font-size:1.41111112px;font-family:monospace;-inkscape-font-specification:monospace;letter-spacing:0px;fill:#ff8500;fill-opacity:1;stroke-width:0.26458332px"
         id="path6370" />
      <path
         d="m 50.771289,31.082598 -0.141249,0 -0.285254,-0.441661 -0.125401,0 0,0.441661 -0.112999,0 0,-0.972206 0.274918,0 q 0.138493,0 0.218419,0.06752 0.08062,0.06684 0.08062,0.186724 0,0.08888 -0.05857,0.158474 -0.05857,0.0689 -0.16123,0.09371 l 0.310747,0.465777 z m -0.551904,-0.540191 0.142627,0 q 0.08957,0 0.145383,-0.04823 0.05581,-0.04892 0.05581,-0.122646 0,-0.162608 -0.198437,-0.162608 l -0.145383,0 0,0.333485 z"
         style="font-style:normal;font-variant:normal;font-weight:normal;font-stretch:normal;font-size:1.41111112px;font-family:monospace;-inkscape-font-specification:monospace;letter-spacing:0px;fill:#ff8500;fill-opacity:1;stroke-width:0.26458332px"
         id="path6372" />
    </g>
  </g>
</svg>
